<?xml version="1.0" encoding="utf-8"?>
<!-- Uploaded to: SVG Repo, www.svgrepo.com, Generator: SVG Repo Mixer Tools -->
<svg width="800px" height="800px" viewBox="0 0 512 512" xmlns="http://www.w3.org/2000/svg" xmlns:xlink="http://www.w3.org/1999/xlink">
  <defs>
    <clipPath id="clip-Artboard_2">
      <rect width="512" height="512"/>
    </clipPath>
  </defs>
  <g id="Artboard_2" data-name="Artboard 2" clip-path="url(#clip-Artboard_2)">
    <g id="men" transform="translate(-552)">
      <g id="Group_99" data-name="Group 99">
        <path id="skin-dark" d="M716.266,160.645c44.766,29.687,89.234,21.563,119.323,4.123s46.227-54.183,46.227-54.183l7.769,6.78-18.407,28.329-.186.222a110.693,110.693,0,0,0,35.42,24.964l-.007,50.99.015,57.164a12.021,12.021,0,0,0,12.021-12.022V244.955l0-.009A29.37,29.37,0,0,1,906.4,301.1v18.05a98.31,98.31,0,0,1-44.6,82.393h1.552V440.86a55.181,55.181,0,0,1-55.181,55.181h0a55.18,55.18,0,0,1-55.18-55.181V401.543h1.2a98.31,98.31,0,0,1-44.6-82.393V301.1a29.358,29.358,0,0,1-12.041-56.136l.019,22.048A12.022,12.022,0,0,0,709.6,279.034V155.7S712.077,157.6,716.266,160.645Z" fill="#8d6e63"/>
        <path id="skin-tanned" d="M716.266,160.645c44.766,29.687,89.234,21.563,119.323,4.123s46.227-54.183,46.227-54.183l7.769,6.78-18.407,28.329-.186.222a110.693,110.693,0,0,0,35.42,24.964l-.007,50.99.015,57.164a12.021,12.021,0,0,0,12.021-12.022V244.955l0-.009A29.37,29.37,0,0,1,906.4,301.1v18.05a98.31,98.31,0,0,1-44.6,82.393h1.552V440.86a55.181,55.181,0,0,1-55.181,55.181h0a55.18,55.18,0,0,1-55.18-55.181V401.543h1.2a98.31,98.31,0,0,1-44.6-82.393V301.1a29.358,29.358,0,0,1-12.041-56.136l.019,22.048A12.022,12.022,0,0,0,709.6,279.034V155.7S712.077,157.6,716.266,160.645Z" fill="#ffccbc"/>
        <path id="skin-light" d="M716.266,160.645c44.766,29.687,89.234,21.563,119.323,4.123s46.227-54.183,46.227-54.183l7.769,6.78-18.407,28.329-.186.222a110.693,110.693,0,0,0,35.42,24.964l-.007,50.99.015,57.164a12.021,12.021,0,0,0,12.021-12.022V244.955l0-.009A29.37,29.37,0,0,1,906.4,301.1v18.05a98.31,98.31,0,0,1-44.6,82.393h1.552V440.86a55.181,55.181,0,0,1-55.181,55.181h0a55.18,55.18,0,0,1-55.18-55.181V401.543h1.2a98.31,98.31,0,0,1-44.6-82.393V301.1a29.358,29.358,0,0,1-12.041-56.136l.019,22.048A12.022,12.022,0,0,0,709.6,279.034V155.7S712.077,157.6,716.266,160.645Z" fill="#fbe9e7"/>
        <g id="shadows_highlights" data-name="shadows/highlights">
          <g id="Group_87" data-name="Group 87" style="mix-blend-mode: soft-light;isolation: isolate">
            <path id="Path_438" data-name="Path 438" d="M863.6,409.345a98.446,98.446,0,0,1-113.017-1.272" fill="none" stroke="#4e342e" stroke-linecap="round" stroke-linejoin="round" stroke-width="14"/>
            <path id="Path_439" data-name="Path 439" d="M908.4,313.15c0,54.345-44.95,98.4-100.4,98.4s-100.4-44.055-100.4-98.4" fill="none" stroke="#4e342e" stroke-linecap="round" stroke-linejoin="round" stroke-width="8"/>
            <path id="Path_440" data-name="Path 440" d="M918.448,258.793a18.016,18.016,0,0,1,2.639,23.817" fill="none" stroke="#4e342e" stroke-linecap="round" stroke-linejoin="round" stroke-width="8"/>
            <path id="Path_441" data-name="Path 441" d="M697.559,258.793a18.012,18.012,0,0,0-2.639,23.817" fill="none" stroke="#4e342e" stroke-linecap="round" stroke-linejoin="round" stroke-width="8"/>
            <path id="Path_442" data-name="Path 442" d="M875.776,110.664c-16.242,40.783-50.084,75.607-96.657,75.607-26.35,0-50.545-15.173-69.531-30.572" fill="none" stroke="#4e342e" stroke-linecap="round" stroke-linejoin="round" stroke-width="8"/>
            <path id="Path_443" data-name="Path 443" d="M876.983,145.916c4.793,10.792,16,21.854,29.42,27.792" fill="none" stroke="#4e342e" stroke-linecap="round" stroke-linejoin="round" stroke-width="8"/>
            <path id="Path_444" data-name="Path 444" d="M830.772,306.818c0,10.006-10.195,18.015-22.772,18.015s-22.772-8.009-22.772-18.015" fill="none" stroke="#4e342e" stroke-linecap="round" stroke-linejoin="round" stroke-width="8"/>
          </g>
          <ellipse id="Ellipse_112" data-name="Ellipse 112" cx="6.121" cy="6.25" rx="6.121" ry="6.25" transform="translate(801.879 292.458)" fill="#ffffff" style="mix-blend-mode: soft-light;isolation: isolate"/>
        </g>
        <g id="Group_88" data-name="Group 88" style="mix-blend-mode: soft-light;isolation: isolate">
          <path id="Path_445" data-name="Path 445" d="M839.656,247.216a15.707,15.707,0,0,1,31.415,0Z" fill="#5d4037"/>
          <path id="Path_446" data-name="Path 446" d="M744.68,247.216a15.707,15.707,0,1,1,31.414,0Z" fill="#5d4037"/>
        </g>
        <g id="eyes-green_blue" data-name="eyes-green/blue">
          <g id="Group_89" data-name="Group 89">
            <path id="Path_447" data-name="Path 447" d="M839.656,247.216a15.707,15.707,0,0,0,31.415,0Z" fill="#ffffff"/>
            <path id="Path_448" data-name="Path 448" d="M744.68,247.216a15.707,15.707,0,1,0,31.414,0Z" fill="#ffffff"/>
          </g>
          <circle id="Ellipse_113" data-name="Ellipse 113" cx="8.113" cy="8.113" r="8.113" transform="translate(847.251 239.103)" fill="#00bcd4"/>
          <circle id="Ellipse_114" data-name="Ellipse 114" cx="8.113" cy="8.113" r="8.113" transform="translate(752.274 239.103)" fill="#00bcd4"/>
          <g id="Group_90" data-name="Group 90">
            <circle id="Ellipse_115" data-name="Ellipse 115" cx="8.113" cy="8.113" r="8.113" transform="translate(847.251 239.103)" fill="none" stroke="#4e342e" stroke-linecap="round" stroke-linejoin="round" stroke-width="4"/>
            <circle id="Ellipse_116" data-name="Ellipse 116" cx="8.113" cy="8.113" r="8.113" transform="translate(752.274 239.103)" fill="none" stroke="#4e342e" stroke-linecap="round" stroke-linejoin="round" stroke-width="4"/>
            <path id="Path_449" data-name="Path 449" d="M783.169,227.928a29.851,29.851,0,0,0-45.564,0" fill="none" stroke="#4e342e" stroke-linecap="round" stroke-linejoin="round" stroke-width="6"/>
            <path id="Path_450" data-name="Path 450" d="M878.146,227.928a29.852,29.852,0,0,0-45.565,0" fill="none" stroke="#4e342e" stroke-linecap="round" stroke-linejoin="round" stroke-width="6"/>
          </g>
        </g>
        <g id="eyes-brown">
          <g id="Group_91" data-name="Group 91">
            <path id="Path_451" data-name="Path 451" d="M839.656,247.216a15.707,15.707,0,0,0,31.415,0Z" fill="#ffffff"/>
            <path id="Path_452" data-name="Path 452" d="M744.68,247.216a15.707,15.707,0,1,0,31.414,0Z" fill="#ffffff"/>
          </g>
          <circle id="Ellipse_117" data-name="Ellipse 117" cx="8.113" cy="8.113" r="8.113" transform="translate(847.251 239.103)" fill="#795548"/>
          <circle id="Ellipse_118" data-name="Ellipse 118" cx="8.113" cy="8.113" r="8.113" transform="translate(752.274 239.103)" fill="#795548"/>
          <g id="Group_92" data-name="Group 92">
            <circle id="Ellipse_119" data-name="Ellipse 119" cx="8.113" cy="8.113" r="8.113" transform="translate(847.251 239.103)" fill="none" stroke="#4e342e" stroke-linecap="round" stroke-linejoin="round" stroke-width="4"/>
            <circle id="Ellipse_120" data-name="Ellipse 120" cx="8.113" cy="8.113" r="8.113" transform="translate(752.274 239.103)" fill="none" stroke="#4e342e" stroke-linecap="round" stroke-linejoin="round" stroke-width="4"/>
            <path id="Path_453" data-name="Path 453" d="M783.169,227.928a29.851,29.851,0,0,0-45.564,0" fill="none" stroke="#4e342e" stroke-linecap="round" stroke-linejoin="round" stroke-width="6"/>
            <path id="Path_454" data-name="Path 454" d="M878.146,227.928a29.852,29.852,0,0,0-45.565,0" fill="none" stroke="#4e342e" stroke-linecap="round" stroke-linejoin="round" stroke-width="6"/>
          </g>
        </g>
        <g id="eyes-dark">
          <g id="Group_93" data-name="Group 93">
            <path id="Path_455" data-name="Path 455" d="M839.656,247.216a15.707,15.707,0,0,0,31.415,0Z" fill="#ffffff"/>
            <path id="Path_456" data-name="Path 456" d="M744.68,247.216a15.707,15.707,0,1,0,31.414,0Z" fill="#ffffff"/>
          </g>
          <circle id="Ellipse_121" data-name="Ellipse 121" cx="8.113" cy="8.113" r="8.113" transform="translate(847.251 239.103)" fill="#5d4037"/>
          <circle id="Ellipse_122" data-name="Ellipse 122" cx="8.113" cy="8.113" r="8.113" transform="translate(752.274 239.103)" fill="#5d4037"/>
          <g id="Group_94" data-name="Group 94">
            <circle id="Ellipse_123" data-name="Ellipse 123" cx="8.113" cy="8.113" r="8.113" transform="translate(847.251 239.103)" fill="none" stroke="#4e342e" stroke-linecap="round" stroke-linejoin="round" stroke-width="4"/>
            <circle id="Ellipse_124" data-name="Ellipse 124" cx="8.113" cy="8.113" r="8.113" transform="translate(752.274 239.103)" fill="none" stroke="#4e342e" stroke-linecap="round" stroke-linejoin="round" stroke-width="4"/>
            <path id="Path_457" data-name="Path 457" d="M783.169,227.928a29.851,29.851,0,0,0-45.564,0" fill="none" stroke="#4e342e" stroke-linecap="round" stroke-linejoin="round" stroke-width="6"/>
            <path id="Path_458" data-name="Path 458" d="M878.146,227.928a29.852,29.852,0,0,0-45.565,0" fill="none" stroke="#4e342e" stroke-linecap="round" stroke-linejoin="round" stroke-width="6"/>
          </g>
        </g>
        <path id="hair-black" d="M888.728,117.365a4.908,4.908,0,0,1,3.772-1.829c1.5-.078,3.5,1.445,4.326,2.561l.006.008-.073-.1a109.943,109.943,0,0,1,21.682,65.731v83.278a12.021,12.021,0,0,1-12.021,12.022l-.008-108.154a110.693,110.693,0,0,1-35.42-24.964l.186-.222a119.3,119.3,0,0,0,17.274-28.071Zm-6.912-6.78s2.684-6.544-.312-9.276v0a110.442,110.442,0,0,0-183.945,82.43l.019,83.278A12.022,12.022,0,0,0,709.6,279.034l0-123.388a110.494,110.494,0,0,0,172.188-44.982Z" fill="#5d4037"/>
        <path id="hair-brown" d="M888.728,117.365a4.908,4.908,0,0,1,3.772-1.829c1.5-.078,3.5,1.445,4.326,2.561l.006.008-.073-.1a109.943,109.943,0,0,1,21.682,65.731v83.278a12.021,12.021,0,0,1-12.021,12.022l-.008-108.154a110.693,110.693,0,0,1-35.42-24.964l.186-.222a119.3,119.3,0,0,0,17.274-28.071Zm-6.912-6.78s2.684-6.544-.312-9.276v0a110.442,110.442,0,0,0-183.945,82.43l.019,83.278A12.022,12.022,0,0,0,709.6,279.034l0-123.388a110.494,110.494,0,0,0,172.188-44.982Z" fill="#795548"/>
        <path id="hair-blonde" d="M888.728,117.365a4.908,4.908,0,0,1,3.772-1.829c1.5-.078,3.5,1.445,4.326,2.561l.006.008-.073-.1a109.943,109.943,0,0,1,21.682,65.731v83.278a12.021,12.021,0,0,1-12.021,12.022l-.008-108.154a110.693,110.693,0,0,1-35.42-24.964l.186-.222a119.3,119.3,0,0,0,17.274-28.071Zm-6.912-6.78s2.684-6.544-.312-9.276v0a110.442,110.442,0,0,0-183.945,82.43l.019,83.278A12.022,12.022,0,0,0,709.6,279.034l0-123.388a110.494,110.494,0,0,0,172.188-44.982Z" fill="#ffd600"/>
        <path id="hair-grey" d="M888.728,117.365a4.908,4.908,0,0,1,3.772-1.829c1.5-.078,3.5,1.445,4.326,2.561l.006.008-.073-.1a109.943,109.943,0,0,1,21.682,65.731v83.278a12.021,12.021,0,0,1-12.021,12.022l-.008-108.154a110.693,110.693,0,0,1-35.42-24.964l.186-.222a119.3,119.3,0,0,0,17.274-28.071Zm-6.912-6.78s2.684-6.544-.312-9.276v0a110.442,110.442,0,0,0-183.945,82.43l.019,83.278A12.022,12.022,0,0,0,709.6,279.034l0-123.388a110.494,110.494,0,0,0,172.188-44.982Z" fill="#bdbdbd"/>
        <g id="Group_95" data-name="Group 95" style="mix-blend-mode: overlay;isolation: isolate">
          <path id="Path_459" data-name="Path 459" d="M868.185,120.458c-10.81,18.984-25.435,31.375-41.435,40.25" fill="none" stroke="#ffffff" stroke-linecap="round" stroke-miterlimit="10" stroke-width="6" opacity="0.8"/>
          <path id="Path_460" data-name="Path 460" d="M849.434,120.458a92.715,92.715,0,0,1-28.194,25.019" fill="none" stroke="#ffffff" stroke-linecap="round" stroke-miterlimit="10" stroke-width="6" opacity="0.8"/>
          <path id="Path_461" data-name="Path 461" d="M833.609,115.239a86.924,86.924,0,0,1-17.592,14.912" fill="none" stroke="#ffffff" stroke-linecap="round" stroke-miterlimit="10" stroke-width="6" opacity="0.8"/>
        </g>
        <g id="lines">
          <g id="Group_96" data-name="Group 96">
            <g id="Path_462" data-name="Path 462" fill="none" stroke-linecap="round" stroke-linejoin="round">
              <path d="M918.443,244.946l0-52.212c0-.113,0-.224,0-.337l0-8.663a109.936,109.936,0,0,0-21.609-65.629l-.006-.008a3.709,3.709,0,0,0-3.571-1.464l-4.527.732-6.912-6.78s4.2-5.247-.312-9.276q-3.695-3.3-7.679-6.261a39.04,39.04,0,0,0-5.427-3.783,109.93,109.93,0,0,0-61.161-17.97c-60.9.412-109.678,50.785-109.678,111.688v59.981A29.358,29.358,0,0,0,709.6,301.1v18.05a98.31,98.31,0,0,0,44.6,82.393h-1.2V440.86a55.18,55.18,0,0,0,55.18,55.181h0a55.181,55.181,0,0,0,55.181-55.181V401.543H861.8a98.31,98.31,0,0,0,44.6-82.393V301.1a29.37,29.37,0,0,0,12.043-56.154Z" stroke="none"/>
              <path d="M 808.0014038085938 73.29238891601562 C 807.7467651367188 73.29238891601562 807.4920043945312 73.29327392578125 807.2369995117188 73.29498291015625 C 746.3350219726562 73.70700073242188 697.5590209960938 124.0799865722656 697.5590209960938 184.9830017089844 L 697.5590209960938 244.9639892578125 C 687.3499755859375 249.56298828125 680.2360229492188 259.8119812011719 680.2360229492188 271.7349853515625 C 680.2360229492188 287.9530029296875 693.3820190429688 301.1000061035156 709.5999755859375 301.1000061035156 L 709.5999755859375 319.1499938964844 C 709.5999755859375 353.635009765625 727.343994140625 383.9719848632812 754.1959838867188 401.5429992675781 L 752.9949951171875 401.5429992675781 L 752.9949951171875 440.8599853515625 C 752.9949951171875 471.3359985351562 777.7000122070312 496.0409851074219 808.1749877929688 496.0409851074219 C 838.6510009765625 496.0409851074219 863.3560180664062 471.3359985351562 863.3560180664062 440.8599853515625 L 863.3560180664062 401.5429992675781 L 861.8040161132812 401.5429992675781 C 888.656005859375 383.9719848632812 906.4000244140625 353.635009765625 906.4000244140625 319.1499938964844 L 906.4000244140625 301.1000061035156 C 922.6179809570312 301.1000061035156 935.7639770507812 287.9530029296875 935.7639770507812 271.7349853515625 C 935.7639770507812 259.8099975585938 928.655029296875 249.5440063476562 918.4429931640625 244.9459838867188 L 918.4409790039062 192.7339782714844 C 918.4409790039062 192.6210021972656 918.43798828125 192.5099792480469 918.43701171875 192.3970031738281 L 918.4409790039062 183.7339782714844 C 918.4409790039062 159.1549987792969 910.4110107421875 136.4519958496094 896.8319091796875 118.10498046875 L 896.8259887695312 118.0969848632812 C 896.0020141601562 116.9809875488281 894.6248779296875 116.412109375 893.2550048828125 116.6329956054688 L 888.72802734375 117.364990234375 L 881.8159790039062 110.5849914550781 C 881.8159790039062 110.5849914550781 886.02001953125 105.3379821777344 881.5040283203125 101.3089904785156 C 879.041015625 99.11099243164062 876.47900390625 97.02099609375 873.8250122070312 95.04800415039062 C 872.208984375 93.69000244140625 870.3900146484375 92.42898559570312 868.3980102539062 91.26498413085938 C 851.0411987304688 79.90472412109375 830.2943115234375 73.29238891601562 808.0014038085938 73.29238891601562 M 808.0014038085938 65.29241943359375 C 831.109619140625 65.29241943359375 853.5093994140625 71.95892333984375 872.7791137695312 84.5712890625 C 874.8401489257812 85.763671875 877.0396728515625 87.2998046875 878.9717407226562 88.92343139648438 C 881.4432373046875 90.74298095703125 884.1900024414062 92.98367309570312 886.8306274414062 95.34017944335938 C 891.1259155273438 99.17230224609375 892.2440185546875 104.1517639160156 891.3130493164062 108.6944580078125 L 891.443115234375 108.8220520019531 L 891.97802734375 108.7355651855469 C 892.4002685546875 108.6672973632812 893.4138793945312 108.5859375 893.8416137695312 108.5859375 C 897.5401000976562 108.5861206054688 901.0615234375 110.3651733398438 903.2616577148438 113.3450012207031 C 918.4238891601562 133.8309326171875 926.4409790039062 158.1735534667969 926.4409790039062 183.7339782714844 L 926.43701171875 192.4006652832031 L 926.4424438476562 240.1962890625 C 937.1103515625 246.9877319335938 943.7639770507812 258.8616027832031 943.7639770507812 271.7349853515625 C 943.7639770507812 289.5929565429688 931.1714477539062 304.5651245117188 914.4000244140625 308.2378540039062 L 914.4000244140625 319.1499938964844 C 914.4000244140625 353.0709838867188 898.4232788085938 384.5760498046875 871.3560180664062 404.6337280273438 L 871.3560180664062 440.8599853515625 C 871.3560180664062 475.6981201171875 843.0131225585938 504.0409851074219 808.1749877929688 504.0409851074219 C 773.3374633789062 504.0409851074219 744.9949951171875 475.6981201171875 744.9949951171875 440.8599853515625 L 744.9949951171875 404.8927612304688 C 717.7167358398438 384.8478088378906 701.5999755859375 353.2160949707031 701.5999755859375 319.1499938964844 L 701.5999755859375 308.2378540039062 C 684.8285522460938 304.5651245117188 672.2360229492188 289.5929565429688 672.2360229492188 271.7349853515625 C 672.2360229492188 258.8743896484375 678.8908081054688 247.0070495605469 689.5590209960938 240.2149963378906 L 689.5590209960938 184.9830017089844 C 689.5590209960938 119.4256896972656 742.3248901367188 65.73391723632812 807.182861328125 65.295166015625 C 807.200927734375 65.2950439453125 807.9833374023438 65.29241943359375 808.0014038085938 65.29241943359375 Z" stroke="none" fill="#4e342e"/>
            </g>
            <path id="Path_463" data-name="Path 463" d="M834.914,303.538a5.849,5.849,0,0,1-11.7,0,15.216,15.216,0,0,1-30.432,0,5.849,5.849,0,0,1-11.7,0" fill="none" stroke="#4e342e" stroke-linecap="round" stroke-linejoin="round" stroke-width="6"/>
            <line id="Line_12" data-name="Line 12" x2="36.906" transform="translate(789.547 349.792)" fill="none" stroke="#4e342e" stroke-linecap="round" stroke-linejoin="round" stroke-width="6"/>
            <path id="Path_464" data-name="Path 464" d="M697.557,244.946A29.37,29.37,0,0,0,709.6,301.1" fill="none" stroke="#4e342e" stroke-linecap="round" stroke-linejoin="round" stroke-width="6"/>
            <path id="Path_465" data-name="Path 465" d="M917.83,244.679A29.369,29.369,0,0,1,906.4,301.1" fill="none" stroke="#4e342e" stroke-linecap="round" stroke-linejoin="round" stroke-width="6"/>
            <path id="Path_466" data-name="Path 466" d="M863.005,401.543V440.86a55.18,55.18,0,0,1-55.18,55.181h0a55.181,55.181,0,0,1-55.181-55.181V401.543" fill="none" stroke="#4e342e" stroke-linecap="round" stroke-linejoin="round" stroke-width="6"/>
            <path id="Path_467" data-name="Path 467" d="M906.4,170.88V319.15a98.4,98.4,0,0,1-196.8,0V155.7" fill="none" stroke="#4e342e" stroke-linecap="round" stroke-linejoin="round" stroke-width="6"/>
            <path id="Path_468" data-name="Path 468" d="M697.557,244.946a29.377,29.377,0,0,0,0,53.579" fill="none" stroke="#4e342e" stroke-linecap="round" stroke-linejoin="round" stroke-width="6"/>
            <path id="Path_469" data-name="Path 469" d="M917.83,244.679a29.377,29.377,0,0,1,.6,53.849" fill="none" stroke="#4e342e" stroke-linecap="round" stroke-linejoin="round" stroke-width="6"/>
            <path id="Path_470" data-name="Path 470" d="M881.785,110.664A110.494,110.494,0,0,1,709.6,155.646" fill="none" stroke="#4e342e" stroke-linecap="round" stroke-linejoin="round" stroke-width="6"/>
            <path id="Path_471" data-name="Path 471" d="M864.656,110.235a94.6,94.6,0,0,1-153.743,25.09" fill="none" stroke="#4e342e" stroke-linecap="round" stroke-linejoin="round" stroke-width="6"/>
            <path id="Path_472" data-name="Path 472" d="M842.15,116.962a78.71,78.71,0,0,1-122.226,4.709" fill="none" stroke="#4e342e" stroke-linecap="round" stroke-linejoin="round" stroke-width="6"/>
            <path id="Path_473" data-name="Path 473" d="M808.908,125.188A62.9,62.9,0,0,1,730.872,110.1" fill="none" stroke="#4e342e" stroke-linecap="round" stroke-linejoin="round" stroke-width="6"/>
            <path id="Path_474" data-name="Path 474" d="M779.128,116.843A46.922,46.922,0,0,1,743.486,100.5" fill="none" stroke="#4e342e" stroke-linecap="round" stroke-linejoin="round" stroke-width="6"/>
            <path id="Path_475" data-name="Path 475" d="M888.452,117.623a119.3,119.3,0,0,1-17.274,28.071l-.186.222a110.693,110.693,0,0,0,35.42,24.964,109.608,109.608,0,0,0,10.6,4.048" fill="none" stroke="#4e342e" stroke-linecap="round" stroke-linejoin="round" stroke-width="6"/>
            <path id="Path_476" data-name="Path 476" d="M906.42,279.034a12.021,12.021,0,0,0,12.021-12.022V183.734A109.943,109.943,0,0,0,896.759,118l.073.1-.006-.008c-.824-1.116-2.824-2.639-4.326-2.561a4.908,4.908,0,0,0-3.772,1.829s-4.658-4.739-6.912-6.78c0,0,2.684-6.544-.312-9.276v0a110.442,110.442,0,0,0-183.945,82.43l.019,83.278A12.022,12.022,0,0,0,709.6,279.034" fill="none" stroke="#4e342e" stroke-linecap="round" stroke-linejoin="round" stroke-width="6"/>
            <path id="Path_477" data-name="Path 477" d="M862.394,449.1a55.193,55.193,0,0,1-54.569,46.941h0A55.192,55.192,0,0,1,753.211,448.8" fill="none" stroke="#4e342e" stroke-linecap="round" stroke-linejoin="round" stroke-width="6"/>
          </g>
          <g id="Group_97" data-name="Group 97">
            <circle id="Ellipse_125" data-name="Ellipse 125" cx="0.314" cy="0.314" r="0.314" transform="translate(843.925 281.079)" fill="none" stroke="#4e342e" stroke-linecap="round" stroke-linejoin="round" stroke-width="6"/>
            <circle id="Ellipse_126" data-name="Ellipse 126" cx="0.314" cy="0.314" r="0.314" transform="translate(855.035 292.19)" fill="none" stroke="#4e342e" stroke-linecap="round" stroke-linejoin="round" stroke-width="6"/>
            <circle id="Ellipse_127" data-name="Ellipse 127" cx="0.314" cy="0.314" r="0.314" transform="translate(866.145 281.079)" fill="none" stroke="#4e342e" stroke-linecap="round" stroke-linejoin="round" stroke-width="6"/>
            <circle id="Ellipse_128" data-name="Ellipse 128" cx="0.314" cy="0.314" r="0.314" transform="translate(866.145 303.3)" fill="none" stroke="#4e342e" stroke-linecap="round" stroke-linejoin="round" stroke-width="6"/>
            <circle id="Ellipse_129" data-name="Ellipse 129" cx="0.314" cy="0.314" r="0.314" transform="translate(877.256 292.19)" fill="none" stroke="#4e342e" stroke-linecap="round" stroke-linejoin="round" stroke-width="6"/>
            <circle id="Ellipse_130" data-name="Ellipse 130" cx="0.314" cy="0.314" r="0.314" transform="translate(888.366 281.079)" fill="none" stroke="#4e342e" stroke-linecap="round" stroke-linejoin="round" stroke-width="6"/>
            <circle id="Ellipse_131" data-name="Ellipse 131" cx="0.314" cy="0.314" r="0.314" transform="translate(888.366 303.3)" fill="none" stroke="#4e342e" stroke-linecap="round" stroke-linejoin="round" stroke-width="6"/>
            <circle id="Ellipse_132" data-name="Ellipse 132" cx="0.314" cy="0.314" r="0.314" transform="translate(855.035 314.41)" fill="none" stroke="#4e342e" stroke-linecap="round" stroke-linejoin="round" stroke-width="6"/>
            <circle id="Ellipse_133" data-name="Ellipse 133" cx="0.314" cy="0.314" r="0.314" transform="translate(877.256 314.41)" fill="none" stroke="#4e342e" stroke-linecap="round" stroke-linejoin="round" stroke-width="6"/>
            <circle id="Ellipse_134" data-name="Ellipse 134" cx="0.314" cy="0.314" r="0.314" transform="translate(727.006 281.079)" fill="none" stroke="#4e342e" stroke-linecap="round" stroke-linejoin="round" stroke-width="6"/>
            <circle id="Ellipse_135" data-name="Ellipse 135" cx="0.314" cy="0.314" r="0.314" transform="translate(727.006 303.3)" fill="none" stroke="#4e342e" stroke-linecap="round" stroke-linejoin="round" stroke-width="6"/>
            <circle id="Ellipse_136" data-name="Ellipse 136" cx="0.314" cy="0.314" r="0.314" transform="translate(738.117 292.19)" fill="none" stroke="#4e342e" stroke-linecap="round" stroke-linejoin="round" stroke-width="6"/>
            <circle id="Ellipse_137" data-name="Ellipse 137" cx="0.314" cy="0.314" r="0.314" transform="translate(749.227 281.079)" fill="none" stroke="#4e342e" stroke-linecap="round" stroke-linejoin="round" stroke-width="6"/>
            <circle id="Ellipse_138" data-name="Ellipse 138" cx="0.314" cy="0.314" r="0.314" transform="translate(749.227 303.3)" fill="none" stroke="#4e342e" stroke-linecap="round" stroke-linejoin="round" stroke-width="6"/>
            <circle id="Ellipse_139" data-name="Ellipse 139" cx="0.314" cy="0.314" r="0.314" transform="translate(760.337 292.19)" fill="none" stroke="#4e342e" stroke-linecap="round" stroke-linejoin="round" stroke-width="6"/>
            <circle id="Ellipse_140" data-name="Ellipse 140" cx="0.314" cy="0.314" r="0.314" transform="translate(771.448 281.079)" fill="none" stroke="#4e342e" stroke-linecap="round" stroke-linejoin="round" stroke-width="6"/>
            <circle id="Ellipse_141" data-name="Ellipse 141" cx="0.314" cy="0.314" r="0.314" transform="translate(738.117 314.41)" fill="none" stroke="#4e342e" stroke-linecap="round" stroke-linejoin="round" stroke-width="6"/>
            <circle id="Ellipse_142" data-name="Ellipse 142" cx="0.314" cy="0.314" r="0.314" transform="translate(760.337 314.41)" fill="none" stroke="#4e342e" stroke-linecap="round" stroke-linejoin="round" stroke-width="6"/>
          </g>
          <g id="Group_98" data-name="Group 98">
            <path id="Path_478" data-name="Path 478" d="M821.265,237.851c0-2.412-2.276-2.183-13.112-2.183H808.1c-10.836,0-13.365-.229-13.365,2.183v20.32c0-4.011,5.947-3.632,13.284-3.632h-.038c7.337,0,13.284-.379,13.284,3.632Z" fill="#ffffff"/>
            <path id="Path_479" data-name="Path 479" d="M791.987,260.518c-7.522,25.242-20.094,33.528-41.084,33.528-25.407,0-33.87-16.443-33.87-42.509,0-19.054,13.98-24.546,40.418-24.546C790.013,226.991,799.788,234.339,791.987,260.518Z" fill="none" stroke="#4e342e" stroke-linecap="round" stroke-linejoin="round" stroke-width="8"/>
            <path id="Path_480" data-name="Path 480" d="M824.013,260.518c7.522,25.242,20.094,33.528,41.084,33.528,25.407,0,33.87-16.443,33.87-42.509,0-19.054-13.98-24.546-40.418-24.546C825.987,226.991,816.212,234.339,824.013,260.518Z" fill="none" stroke="#4e342e" stroke-linecap="round" stroke-linejoin="round" stroke-width="8"/>
            <path id="Path_481" data-name="Path 481" d="M717.153,246.2l-18.214-4.174a1.575,1.575,0,0,1-1.417-1.567h0a1.575,1.575,0,0,1,1.576-1.576h20.553" fill="none" stroke="#4e342e" stroke-linecap="round" stroke-linejoin="round" stroke-width="8"/>
            <path id="Path_482" data-name="Path 482" d="M899.9,246.624l17.164-4.6a1.575,1.575,0,0,0,1.417-1.567h0a1.575,1.575,0,0,0-1.576-1.576H896.795" fill="none" stroke="#4e342e" stroke-linecap="round" stroke-linejoin="round" stroke-width="8"/>
            <path id="Path_483" data-name="Path 483" d="M821.265,237.851c0-2.412-2.276-2.183-13.112-2.183H808.1c-10.836,0-13.365-.229-13.365,2.183v16.563a50.767,50.767,0,0,0,13.284,1.809h-.038a50.767,50.767,0,0,0,13.284-1.809Z" fill="none" stroke="#4e342e" stroke-linecap="round" stroke-linejoin="round" stroke-width="6"/>
          </g>
        </g>
      </g>
    </g>
  </g>
</svg>