<?xml version="1.0" encoding="utf-8"?>
<!-- Uploaded to: SVG Repo, www.svgrepo.com, Generator: SVG Repo Mixer Tools -->
<svg width="800px" height="800px" viewBox="0 0 512 512" xmlns="http://www.w3.org/2000/svg" xmlns:xlink="http://www.w3.org/1999/xlink">
  <defs>
    <clipPath id="clip-Artboard_5">
      <rect width="512" height="512"/>
    </clipPath>
  </defs>
  <g id="Artboard_5" data-name="Artboard 5" clip-path="url(#clip-Artboard_5)">
    <g id="men" transform="translate(-2208)">
      <g id="Group_67" data-name="Group 67">
        <path id="skin-dark" d="M2573.83,244.679h-11.422c.015-13.391.033-30.083.033-30.083-18.781-14.394-18.356-22.011-18.356-49.136,0-7.237,1.542-19.827,6.406-24.34h0a98.591,98.591,0,0,0-63.9-48.861h0q-2.707-.636-5.472-1.124h0a99.3,99.3,0,0,0-34.287,0h0q-2.763.486-5.471,1.124h0a98.575,98.575,0,0,0-63.894,48.851h0c4.872,4.506,6.415,17.109,6.415,24.35,0,27.125.425,34.742-18.355,49.136l.032,30.35h-12.005A29.37,29.37,0,0,0,2365.6,301.1v18.05a103.256,103.256,0,0,0,43.044,83.4V440.86a55.181,55.181,0,0,0,55.181,55.181h0A55.18,55.18,0,0,0,2519,440.86V402.8a103.259,103.259,0,0,0,43.4-83.653V301.1a29.369,29.369,0,0,0,11.43-56.421Z" fill="#8d6e63"/>
        <path id="skin-tanned" d="M2573.83,244.679h-11.422c.015-13.391.033-30.083.033-30.083-18.781-14.394-18.356-22.011-18.356-49.136,0-7.237,1.542-19.827,6.406-24.34h0a98.591,98.591,0,0,0-63.9-48.861h0q-2.707-.636-5.472-1.124h0a99.3,99.3,0,0,0-34.287,0h0q-2.763.486-5.471,1.124h0a98.575,98.575,0,0,0-63.894,48.851h0c4.872,4.506,6.415,17.109,6.415,24.35,0,27.125.425,34.742-18.355,49.136l.032,30.35h-12.005A29.37,29.37,0,0,0,2365.6,301.1v18.05a103.256,103.256,0,0,0,43.044,83.4V440.86a55.181,55.181,0,0,0,55.181,55.181h0A55.18,55.18,0,0,0,2519,440.86V402.8a103.259,103.259,0,0,0,43.4-83.653V301.1a29.369,29.369,0,0,0,11.43-56.421Z" fill="#ffccbc"/>
        <path id="skin-light" d="M2573.83,244.679h-11.422c.015-13.391.033-30.083.033-30.083-18.781-14.394-18.356-22.011-18.356-49.136,0-7.237,1.542-19.827,6.406-24.34h0a98.591,98.591,0,0,0-63.9-48.861h0q-2.707-.636-5.472-1.124h0a99.3,99.3,0,0,0-34.287,0h0q-2.763.486-5.471,1.124h0a98.575,98.575,0,0,0-63.894,48.851h0c4.872,4.506,6.415,17.109,6.415,24.35,0,27.125.425,34.742-18.355,49.136l.032,30.35h-12.005A29.37,29.37,0,0,0,2365.6,301.1v18.05a103.256,103.256,0,0,0,43.044,83.4V440.86a55.181,55.181,0,0,0,55.181,55.181h0A55.18,55.18,0,0,0,2519,440.86V402.8a103.259,103.259,0,0,0,43.4-83.653V301.1a29.369,29.369,0,0,0,11.43-56.421Z" fill="#fbe9e7"/>
        <g id="shadows_highlights" data-name="shadows/highlights">
          <g id="Group_57" data-name="Group 57" style="mix-blend-mode: soft-light;isolation: isolate">
            <path id="Path_321" data-name="Path 321" d="M2519.6,409.345c-15.819,10.854-34.969,20.2-55.6,20.2-21.428,0-41.255-9.849-57.414-21.477" fill="none" stroke="#4e342e" stroke-miterlimit="10" stroke-width="14"/>
            <path id="Path_322" data-name="Path 322" d="M2564.4,313.15c0,54.345-44.95,100.474-100.4,100.474s-100.4-46.129-100.4-100.474" fill="none" stroke="#4e342e" stroke-miterlimit="10" stroke-width="8"/>
            <path id="Path_323" data-name="Path 323" d="M2443.388,397.116h0c3.741,7.428,11.566,7.842,20.612,7.842s16.871-.414,20.612-7.842h0" fill="none" stroke="#4e342e" stroke-miterlimit="10" stroke-width="8"/>
            <path id="Path_324" data-name="Path 324" d="M2483.914,306.818a19.914,19.914,0,1,1-39.828,0" fill="none" stroke="#4e342e" stroke-miterlimit="10" stroke-width="8"/>
            <path id="Path_325" data-name="Path 325" d="M2574.448,258.793a18.016,18.016,0,0,1,2.639,23.817" fill="none" stroke="#4e342e" stroke-miterlimit="10" stroke-width="8"/>
            <path id="Path_326" data-name="Path 326" d="M2353.559,258.793a18.013,18.013,0,0,0-2.639,23.817" fill="none" stroke="#4e342e" stroke-miterlimit="10" stroke-width="8"/>
          </g>
          <ellipse id="Ellipse_72" data-name="Ellipse 72" cx="11.393" cy="6.531" rx="11.393" ry="6.531" transform="translate(2453 376.426)" fill="#ffffff" style="mix-blend-mode: soft-light;isolation: isolate"/>
          <circle id="Ellipse_73" data-name="Ellipse 73" cx="6.25" cy="6.25" r="6.25" transform="translate(2457.75 292.458)" fill="#ffffff" style="mix-blend-mode: soft-light;isolation: isolate"/>
        </g>
        <g id="Group_58" data-name="Group 58" style="mix-blend-mode: soft-light;isolation: isolate">
          <path id="Path_327" data-name="Path 327" d="M2495.656,253.216a15.708,15.708,0,0,1,31.415,0Z" fill="#5d4037"/>
          <path id="Path_328" data-name="Path 328" d="M2400.68,253.216a15.707,15.707,0,0,1,31.414,0Z" fill="#5d4037"/>
        </g>
        <g id="eyes-green_blue" data-name="eyes-green/blue">
          <g id="Group_59" data-name="Group 59">
            <path id="Path_329" data-name="Path 329" d="M2495.656,253.216a15.708,15.708,0,0,0,31.415,0Z" fill="#ffffff"/>
            <path id="Path_330" data-name="Path 330" d="M2400.68,253.216a15.707,15.707,0,0,0,31.414,0Z" fill="#ffffff"/>
          </g>
          <circle id="Ellipse_74" data-name="Ellipse 74" cx="8.113" cy="8.113" r="8.113" transform="translate(2503.251 245.103)" fill="#00bcd4"/>
          <circle id="Ellipse_75" data-name="Ellipse 75" cx="8.113" cy="8.113" r="8.113" transform="translate(2408.274 245.103)" fill="#00bcd4"/>
          <g id="Group_60" data-name="Group 60">
            <circle id="Ellipse_76" data-name="Ellipse 76" cx="8.113" cy="8.113" r="8.113" transform="translate(2503.251 245.103)" fill="none" stroke="#4e342e" stroke-linecap="round" stroke-linejoin="round" stroke-width="4"/>
            <circle id="Ellipse_77" data-name="Ellipse 77" cx="8.113" cy="8.113" r="8.113" transform="translate(2408.274 245.103)" fill="none" stroke="#4e342e" stroke-linecap="round" stroke-linejoin="round" stroke-width="4"/>
            <path id="Path_331" data-name="Path 331" d="M2439.169,233.928a29.851,29.851,0,0,0-45.564,0" fill="none" stroke="#4e342e" stroke-linecap="round" stroke-linejoin="round" stroke-width="6"/>
            <path id="Path_332" data-name="Path 332" d="M2534.146,233.928a29.852,29.852,0,0,0-45.565,0" fill="none" stroke="#4e342e" stroke-linecap="round" stroke-linejoin="round" stroke-width="6"/>
          </g>
        </g>
        <g id="eyes-brown">
          <g id="Group_61" data-name="Group 61">
            <path id="Path_333" data-name="Path 333" d="M2495.656,253.216a15.708,15.708,0,0,0,31.415,0Z" fill="#ffffff"/>
            <path id="Path_334" data-name="Path 334" d="M2400.68,253.216a15.707,15.707,0,0,0,31.414,0Z" fill="#ffffff"/>
          </g>
          <circle id="Ellipse_78" data-name="Ellipse 78" cx="8.113" cy="8.113" r="8.113" transform="translate(2503.251 245.103)" fill="#795548"/>
          <circle id="Ellipse_79" data-name="Ellipse 79" cx="8.113" cy="8.113" r="8.113" transform="translate(2408.274 245.103)" fill="#795548"/>
          <g id="Group_62" data-name="Group 62">
            <circle id="Ellipse_80" data-name="Ellipse 80" cx="8.113" cy="8.113" r="8.113" transform="translate(2503.251 245.103)" fill="none" stroke="#4e342e" stroke-linecap="round" stroke-linejoin="round" stroke-width="4"/>
            <circle id="Ellipse_81" data-name="Ellipse 81" cx="8.113" cy="8.113" r="8.113" transform="translate(2408.274 245.103)" fill="none" stroke="#4e342e" stroke-linecap="round" stroke-linejoin="round" stroke-width="4"/>
            <path id="Path_335" data-name="Path 335" d="M2439.169,233.928a29.851,29.851,0,0,0-45.564,0" fill="none" stroke="#4e342e" stroke-linecap="round" stroke-linejoin="round" stroke-width="6"/>
            <path id="Path_336" data-name="Path 336" d="M2534.146,233.928a29.852,29.852,0,0,0-45.565,0" fill="none" stroke="#4e342e" stroke-linecap="round" stroke-linejoin="round" stroke-width="6"/>
          </g>
        </g>
        <g id="eyes-dark">
          <g id="Group_63" data-name="Group 63">
            <path id="Path_337" data-name="Path 337" d="M2495.656,253.216a15.708,15.708,0,0,0,31.415,0Z" fill="#ffffff"/>
            <path id="Path_338" data-name="Path 338" d="M2400.68,253.216a15.707,15.707,0,0,0,31.414,0Z" fill="#ffffff"/>
          </g>
          <circle id="Ellipse_82" data-name="Ellipse 82" cx="8.113" cy="8.113" r="8.113" transform="translate(2503.251 245.103)" fill="#5d4037"/>
          <circle id="Ellipse_83" data-name="Ellipse 83" cx="8.113" cy="8.113" r="8.113" transform="translate(2408.274 245.103)" fill="#5d4037"/>
          <g id="Group_64" data-name="Group 64">
            <circle id="Ellipse_84" data-name="Ellipse 84" cx="8.113" cy="8.113" r="8.113" transform="translate(2503.251 245.103)" fill="none" stroke="#4e342e" stroke-linecap="round" stroke-linejoin="round" stroke-width="4"/>
            <circle id="Ellipse_85" data-name="Ellipse 85" cx="8.113" cy="8.113" r="8.113" transform="translate(2408.274 245.103)" fill="none" stroke="#4e342e" stroke-linecap="round" stroke-linejoin="round" stroke-width="4"/>
            <path id="Path_339" data-name="Path 339" d="M2439.169,233.928a29.851,29.851,0,0,0-45.564,0" fill="none" stroke="#4e342e" stroke-linecap="round" stroke-linejoin="round" stroke-width="6"/>
            <path id="Path_340" data-name="Path 340" d="M2534.146,233.928a29.852,29.852,0,0,0-45.565,0" fill="none" stroke="#4e342e" stroke-linecap="round" stroke-linejoin="round" stroke-width="6"/>
          </g>
        </g>
        <g id="hair-black">
          <path id="Path_341" data-name="Path 341" d="M2353.559,249.112a12.021,12.021,0,0,0,12.021,12.022l-.05-46.538c18.78-14.394,18.355-22.011,18.355-49.136,0-10.669-3.35-32.978-15.76-23.877-5.625,4.125-14.567,16.125-14.567,32.125C2353.558,198.934,2353.559,249.112,2353.559,249.112Z" fill="#5d4037"/>
          <path id="Path_342" data-name="Path 342" d="M2574.412,249.112a12.021,12.021,0,0,1-12.021,12.022l.05-46.538c-18.781-14.394-18.356-22.011-18.356-49.136,0-10.669,3.351-32.978,15.761-23.877,5.625,4.125,14.566,16.125,14.566,32.125Z" fill="#5d4037"/>
        </g>
        <g id="hair-brown">
          <path id="Path_343" data-name="Path 343" d="M2353.559,249.112a12.021,12.021,0,0,0,12.021,12.022l-.05-46.538c18.78-14.394,18.355-22.011,18.355-49.136,0-10.669-3.35-32.978-15.76-23.877-5.625,4.125-14.567,16.125-14.567,32.125C2353.558,198.934,2353.559,249.112,2353.559,249.112Z" fill="#795548"/>
          <path id="Path_344" data-name="Path 344" d="M2574.412,249.112a12.021,12.021,0,0,1-12.021,12.022l.05-46.538c-18.781-14.394-18.356-22.011-18.356-49.136,0-10.669,3.351-32.978,15.761-23.877,5.625,4.125,14.566,16.125,14.566,32.125Z" fill="#795548"/>
        </g>
        <g id="hair-blonde">
          <path id="Path_345" data-name="Path 345" d="M2353.559,249.112a12.021,12.021,0,0,0,12.021,12.022l-.05-46.538c18.78-14.394,18.355-22.011,18.355-49.136,0-10.669-3.35-32.978-15.76-23.877-5.625,4.125-14.567,16.125-14.567,32.125C2353.558,198.934,2353.559,249.112,2353.559,249.112Z" fill="#ffd600"/>
          <path id="Path_346" data-name="Path 346" d="M2574.412,249.112a12.021,12.021,0,0,1-12.021,12.022l.05-46.538c-18.781-14.394-18.356-22.011-18.356-49.136,0-10.669,3.351-32.978,15.761-23.877,5.625,4.125,14.566,16.125,14.566,32.125Z" fill="#ffd600"/>
        </g>
        <g id="hair-grey">
          <g id="Group_65" data-name="Group 65">
            <path id="Path_347" data-name="Path 347" d="M2353.559,249.112a12.021,12.021,0,0,0,12.021,12.022l-.05-46.538c18.78-14.394,18.355-22.011,18.355-49.136,0-10.669-3.35-32.978-15.76-23.877-5.625,4.125-14.567,16.125-14.567,32.125C2353.558,198.934,2353.559,249.112,2353.559,249.112Z" fill="#b79e72"/>
            <path id="Path_348" data-name="Path 348" d="M2574.412,249.112a12.021,12.021,0,0,1-12.021,12.022l.05-46.538c-18.781-14.394-18.356-22.011-18.356-49.136,0-10.669,3.351-32.978,15.761-23.877,5.625,4.125,14.566,16.125,14.566,32.125Z" fill="#b79e72"/>
          </g>
          <g id="Group_66" data-name="Group 66">
            <path id="Path_349" data-name="Path 349" d="M2353.559,249.112a12.021,12.021,0,0,0,12.021,12.022l-.05-46.538c18.78-14.394,18.355-22.011,18.355-49.136,0-10.669-3.35-32.978-15.76-23.877-5.625,4.125-14.567,16.125-14.567,32.125C2353.558,198.934,2353.559,249.112,2353.559,249.112Z" fill="#bdbdbd"/>
            <path id="Path_350" data-name="Path 350" d="M2574.412,249.112a12.021,12.021,0,0,1-12.021,12.022l.05-46.538c-18.781-14.394-18.356-22.011-18.356-49.136,0-10.669,3.351-32.978,15.761-23.877,5.625,4.125,14.566,16.125,14.566,32.125Z" fill="#bdbdbd"/>
          </g>
        </g>
        <g id="lines">
          <g id="Path_351" data-name="Path 351" fill="none" stroke-miterlimit="10">
            <path d="M2574.412,244.95V173.708c0-16-8.941-28-14.566-32.125-4.075-2.989-7.168-2.578-9.492-.317.047-.045.09-.1.137-.146h0a98.591,98.591,0,0,0-63.9-48.861h0q-2.707-.636-5.472-1.124h0a99.3,99.3,0,0,0-34.287,0h0q-2.763.486-5.471,1.124h0a98.575,98.575,0,0,0-63.894,48.851h0c.051.047.095.107.145.155-2.323-2.26-5.416-2.67-9.49.318-5.625,4.125-14.567,16.125-14.567,32.125,0,20.836,0,58.693,0,71.238h0A29.37,29.37,0,0,0,2365.6,301.1v18.05a103.256,103.256,0,0,0,43.044,83.4V440.86a55.181,55.181,0,0,0,55.181,55.181h0A55.18,55.18,0,0,0,2519,440.86V402.8a103.259,103.259,0,0,0,43.4-83.653V301.1a29.359,29.359,0,0,0,12.012-56.15Z" stroke="none"/>
            <path d="M 2463.97998046875 89.64398193359375 C 2458.132080078125 89.64398193359375 2452.404052734375 90.156982421875 2446.8369140625 91.13497924804688 L 2446.8359375 91.13497924804688 C 2444.993896484375 91.45895385742188 2443.169921875 91.8349609375 2441.364990234375 92.25897216796875 C 2413.77587890625 98.74795532226562 2390.6650390625 116.8399658203125 2377.470947265625 141.1099548339844 L 2377.469970703125 141.1099548339844 C 2377.51953125 141.1555786132812 2377.562255859375 141.2134094238281 2377.610595703125 141.2607116699219 C 2377.612060546875 141.2620849609375 2377.613525390625 141.263671875 2377.614990234375 141.2650451660156 C 2377.613525390625 141.2636108398438 2377.612060546875 141.2621765136719 2377.610595703125 141.2607116699219 C 2375.287841796875 139.0041198730469 2372.196044921875 138.5970458984375 2368.125 141.5829772949219 C 2362.5 145.7079772949219 2353.55810546875 157.7079772949219 2353.55810546875 173.7079772949219 C 2353.55810546875 194.5439758300781 2353.55908203125 232.4009704589844 2353.55908203125 244.9459533691406 L 2353.556884765625 244.9459533691406 C 2343.344970703125 249.5440368652344 2336.236083984375 259.8099670410156 2336.236083984375 271.7349548339844 C 2336.236083984375 287.9529724121094 2349.382080078125 301.1000366210938 2365.60009765625 301.1000366210938 L 2365.60009765625 319.1499633789062 C 2365.60009765625 352.967041015625 2382.660888671875 383.9590454101562 2408.64404296875 402.5490417480469 L 2408.64404296875 440.8599853515625 C 2408.64404296875 471.3359680175781 2433.34912109375 496.0409545898438 2463.824951171875 496.0409545898438 C 2494.300048828125 496.0409545898438 2519.0048828125 471.3359680175781 2519.0048828125 440.8599853515625 L 2519.0048828125 402.8030395507812 C 2545.18603515625 384.2419738769531 2562.39990234375 353.1199645996094 2562.39990234375 319.1499633789062 L 2562.39990234375 301.1000366210938 C 2578.617919921875 301.1000366210938 2591.763916015625 287.9529724121094 2591.763916015625 271.7349548339844 C 2591.763916015625 259.8009643554688 2584.635986328125 249.54296875 2574.412109375 244.9500427246094 C 2574.412109375 232.4089660644531 2574.412109375 194.5460510253906 2574.412109375 173.7079772949219 C 2574.412109375 157.7079772949219 2565.470947265625 145.7079772949219 2559.845947265625 141.5829772949219 C 2555.7734375 138.5957336425781 2552.68212890625 139.0043334960938 2550.3583984375 141.2616577148438 C 2550.35693359375 141.2631225585938 2550.35546875 141.2645568847656 2550.35400390625 141.2659606933594 C 2550.35546875 141.2645874023438 2550.35693359375 141.2630310058594 2550.3583984375 141.2616577148438 C 2550.403564453125 141.2173767089844 2550.445556640625 141.1625671386719 2550.490966796875 141.1199645996094 L 2550.491943359375 141.1199645996094 C 2537.297119140625 116.8479614257812 2514.18505859375 98.74896240234375 2486.595947265625 92.25897216796875 C 2484.791015625 91.8349609375 2482.966064453125 91.45895385742188 2481.1240234375 91.13497924804688 C 2475.555908203125 90.156982421875 2469.827880859375 89.64398193359375 2463.97998046875 89.64398193359375 M 2463.97998046875 81.64398193359375 C 2470.185791015625 81.64398193359375 2476.419677734375 82.18618774414062 2482.508056640625 83.255615234375 C 2484.501220703125 83.60617065429688 2486.47412109375 84.01260375976562 2488.425537109375 84.47097778320312 C 2515.654296875 90.87615966796875 2539.251708984375 107.8433837890625 2554.1025390625 131.4608459472656 C 2557.586669921875 131.3637084960938 2561.125732421875 132.6003112792969 2564.57763671875 135.1322631835938 C 2573.166748046875 141.4310302734375 2582.412109375 156.1897583007812 2582.412109375 173.7079772949219 L 2582.412109375 240.1955871582031 C 2593.097900390625 246.9845275878906 2599.763916015625 258.859130859375 2599.763916015625 271.7349548339844 C 2599.763916015625 289.5929565429688 2587.17138671875 304.5651550292969 2570.39990234375 308.2379150390625 L 2570.39990234375 319.1499633789062 C 2570.39990234375 353.4634399414062 2554.254638671875 385.9345703125 2527.0048828125 406.8409729003906 L 2527.0048828125 440.8599853515625 C 2527.0048828125 475.6981201171875 2498.662353515625 504.0409545898438 2463.824951171875 504.0409545898438 C 2428.98681640625 504.0409545898438 2400.64404296875 475.6981201171875 2400.64404296875 440.8599853515625 L 2400.64404296875 406.565673828125 C 2373.615478515625 385.6484375 2357.60009765625 353.2784423828125 2357.60009765625 319.1499633789062 L 2357.60009765625 308.2379150390625 C 2340.82861328125 304.5651550292969 2328.236083984375 289.5929565429688 2328.236083984375 271.7349548339844 C 2328.236083984375 258.8616943359375 2334.88916015625 246.988037109375 2345.556884765625 240.1965637207031 L 2345.55810546875 173.7079772949219 C 2345.55810546875 156.190185546875 2354.8037109375 141.4313354492188 2363.39404296875 135.1317443847656 C 2366.841064453125 132.6034545898438 2370.381103515625 131.367919921875 2373.853515625 131.4607238769531 C 2388.702880859375 107.8434143066406 2412.30224609375 90.87625122070312 2439.533447265625 84.47146606445312 C 2441.48681640625 84.01260375976562 2443.458740234375 83.60617065429688 2445.449951171875 83.25588989257812 C 2451.54052734375 82.18618774414062 2457.774169921875 81.64398193359375 2463.97998046875 81.64398193359375 Z" stroke="none" fill="#4e342e"/>
          </g>
          <path id="Path_352" data-name="Path 352" d="M2490.914,303.538a5.849,5.849,0,1,1-11.7,0,15.216,15.216,0,0,1-30.432,0,5.849,5.849,0,1,1-11.7,0" fill="none" stroke="#4e342e" stroke-linecap="round" stroke-miterlimit="10" stroke-width="6"/>
          <line id="Line_10" data-name="Line 10" x2="65.185" transform="translate(2431.407 349.792)" fill="none" stroke="#4e342e" stroke-linecap="round" stroke-miterlimit="10" stroke-width="6"/>
          <path id="Path_353" data-name="Path 353" d="M2353.557,244.946A29.37,29.37,0,0,0,2365.6,301.1" fill="none" stroke="#4e342e" stroke-linecap="round" stroke-miterlimit="10" stroke-width="6"/>
          <path id="Path_354" data-name="Path 354" d="M2573.83,244.679A29.369,29.369,0,0,1,2562.4,301.1" fill="none" stroke="#4e342e" stroke-linecap="round" stroke-miterlimit="10" stroke-width="6"/>
          <path id="Path_355" data-name="Path 355" d="M2519,404.958v35.9a55.18,55.18,0,0,1-55.18,55.181h0a55.181,55.181,0,0,1-55.181-55.181v-35.9" fill="none" stroke="#4e342e" stroke-linecap="round" stroke-miterlimit="10" stroke-width="6"/>
          <path id="Path_356" data-name="Path 356" d="M2562.4,261.134V319.15c0,54.345-44.055,101.4-98.4,101.4s-98.4-47.055-98.4-101.4V261.134" fill="none" stroke="#4e342e" stroke-linecap="round" stroke-miterlimit="10" stroke-width="6"/>
          <path id="Path_357" data-name="Path 357" d="M2441.555,395.949h0a25.01,25.01,0,0,0,44.89,0h0" fill="none" stroke="#4e342e" stroke-linecap="round" stroke-miterlimit="10" stroke-width="6"/>
          <path id="Path_358" data-name="Path 358" d="M2377.471,141.116a98.583,98.583,0,0,1,63.894-48.857h0q2.707-.636,5.471-1.124h0a99.3,99.3,0,0,1,34.287,0h0q2.763.486,5.472,1.124h0a98.589,98.589,0,0,1,63.9,48.861" fill="none" stroke="#4e342e" stroke-linecap="round" stroke-miterlimit="10" stroke-width="6"/>
          <path id="Path_359" data-name="Path 359" d="M2353.559,249.112a12.021,12.021,0,0,0,12.021,12.022l-.05-46.538c18.78-14.394,18.355-22.011,18.355-49.136,0-7.241-1.543-19.844-6.415-24.35-2.306-2.133-5.358-2.451-9.345.473-5.625,4.125-14.567,16.125-14.567,32.125C2353.558,198.934,2353.559,249.112,2353.559,249.112Z" fill="none" stroke="#4e342e" stroke-linecap="round" stroke-miterlimit="10" stroke-width="6"/>
          <path id="Path_360" data-name="Path 360" d="M2574.412,249.112a12.021,12.021,0,0,1-12.021,12.022l.05-46.538c-18.781-14.394-18.356-22.011-18.356-49.136,0-7.237,1.542-19.828,6.406-24.341,2.307-2.141,5.362-2.464,9.355.464,5.625,4.125,14.566,16.125,14.566,32.125Z" fill="none" stroke="#4e342e" stroke-linecap="round" stroke-miterlimit="10" stroke-width="6"/>
        </g>
      </g>
    </g>
  </g>
</svg>