<?xml version="1.0" encoding="utf-8"?>
<!-- Uploaded to: SVG Repo, www.svgrepo.com, Generator: SVG Repo Mixer Tools -->
<svg width="800px" height="800px" viewBox="0 0 512 512" xmlns="http://www.w3.org/2000/svg" xmlns:xlink="http://www.w3.org/1999/xlink">
  <defs>
    <clipPath id="clip-Artboard_10">
      <rect width="512" height="512"/>
    </clipPath>
  </defs>
  <g id="Artboard_10" data-name="Artboard 10" clip-path="url(#clip-Artboard_10)">
    <g id="women" transform="translate(-4968)">
      <g id="Group_12" data-name="Group 12">
        <path id="skin-dark" d="M5317.912,254.211l-9.362-.008.043-16.644A84.634,84.634,0,0,1,5224,152.651a84.916,84.916,0,0,1-84.916,84.916v16.644h-9a29.422,29.422,0,0,0,9,57.433c.677,0,1.348-.026,2.014-.071l3.6,30.307c2.678,23.731,15.783,42.291,34.615,55.028l.006,54.6a44.537,44.537,0,0,0,44.537,44.537h0A44.537,44.537,0,0,0,5268.4,451.5l-.006-54.5c18.9-12.73,32.059-31.334,34.743-55.12,0,0,2.139-17.5,3.7-30.236h.3c.695.049,1.083,0,1.791,0a29.422,29.422,0,0,0,9-57.433Z" fill="#8d6e63"/>
        <path id="skin-tanned" d="M5317.912,254.211l-9.362-.008.043-16.644A84.634,84.634,0,0,1,5224,152.651a84.916,84.916,0,0,1-84.916,84.916v16.644h-9a29.422,29.422,0,0,0,9,57.433c.677,0,1.348-.026,2.014-.071l3.6,30.307c2.678,23.731,15.783,42.291,34.615,55.028l.006,54.6a44.537,44.537,0,0,0,44.537,44.537h0A44.537,44.537,0,0,0,5268.4,451.5l-.006-54.5c18.9-12.73,32.059-31.334,34.743-55.12,0,0,2.139-17.5,3.7-30.236h.3c.695.049,1.083,0,1.791,0a29.422,29.422,0,0,0,9-57.433Z" fill="#ffccbc"/>
        <path id="skin-light" d="M5317.912,254.211l-9.362-.008.043-16.644A84.634,84.634,0,0,1,5224,152.651a84.916,84.916,0,0,1-84.916,84.916v16.644h-9a29.422,29.422,0,0,0,9,57.433c.677,0,1.348-.026,2.014-.071l3.6,30.307c2.678,23.731,15.783,42.291,34.615,55.028l.006,54.6a44.537,44.537,0,0,0,44.537,44.537h0A44.537,44.537,0,0,0,5268.4,451.5l-.006-54.5c18.9-12.73,32.059-31.334,34.743-55.12,0,0,2.139-17.5,3.7-30.236h.3c.695.049,1.083,0,1.791,0a29.422,29.422,0,0,0,9-57.433Z" fill="#fbe9e7"/>
        <g id="shadows_highlights" data-name="shadows/highlights">
          <g id="Group_1" data-name="Group 1" style="mix-blend-mode: soft-light;isolation: isolate">
            <path id="Path_1" data-name="Path 1" d="M5268.572,402.088c-3.672,2.38-7.494,7.482-11.412,9.276l0,.011c-9.578,9.578-14.848,17.532-33.165,17.532s-23.587-7.954-33.165-17.532v-.02c-4.089-1.874-8.074-7.083-11.891-9.593" fill="none" stroke="#4e342e" stroke-miterlimit="10" stroke-width="14"/>
            <path id="Path_2" data-name="Path 2" d="M5327.488,244.53a85.254,85.254,0,0,1-18.572,2.037c-46.9,0-84.916-43.423-84.916-90.321,0,46.9-38.018,90.321-84.916,90.321a85.254,85.254,0,0,1-18.572-2.037" fill="none" stroke="#4e342e" stroke-miterlimit="10" stroke-width="16"/>
            <path id="Path_3" data-name="Path 3" d="M5306.224,335.88c-3.193,28.29-24.192,49.1-49.064,60.484l0,.011c-9.578,9.578-14.848,17.532-33.165,17.532s-23.587-7.954-33.165-17.532v-.02c-24.862-11.391-45.853-32.192-49.045-60.475" fill="none" stroke="#4e342e" stroke-miterlimit="10" stroke-width="8"/>
            <path id="Path_4" data-name="Path 4" d="M5231.831,319.605a9.64,9.64,0,0,1-15.662,0" fill="none" stroke="#4e342e" stroke-miterlimit="10" stroke-width="8"/>
            <path id="Path_5" data-name="Path 5" d="M5232.615,370.623a11.245,11.245,0,0,1-17.23,0" fill="none" stroke="#4e342e" stroke-miterlimit="10" stroke-width="8"/>
            <path id="Path_6" data-name="Path 6" d="M5317.9,266.533a18.089,18.089,0,0,1,0,31.387" fill="none" stroke="#4e342e" stroke-miterlimit="10" stroke-width="8"/>
            <path id="Path_7" data-name="Path 7" d="M5130.094,266.533a18.089,18.089,0,0,0,0,31.387" fill="none" stroke="#4e342e" stroke-miterlimit="10" stroke-width="8"/>
          </g>
          <ellipse id="Ellipse_1" data-name="Ellipse 1" cx="7.524" cy="4.314" rx="7.524" ry="4.314" transform="translate(5216.557 391.444)" fill="#ffffff" style="mix-blend-mode: soft-light;isolation: isolate"/>
          <circle id="Ellipse_2" data-name="Ellipse 2" cx="4" cy="4" r="4" transform="translate(5220 299.446)" fill="#ffffff" style="mix-blend-mode: soft-light;isolation: isolate"/>
        </g>
        <g id="Group_2" data-name="Group 2" style="mix-blend-mode: soft-light;isolation: isolate">
          <path id="Path_8" data-name="Path 8" d="M5251.781,262.923a15.708,15.708,0,0,1,31.415,0Z" fill="#5d4037"/>
          <path id="Path_9" data-name="Path 9" d="M5164.8,262.923a15.708,15.708,0,0,1,31.415,0Z" fill="#5d4037"/>
        </g>
        <g id="eyes-green_blue" data-name="eyes-green/blue">
          <g id="Group_3" data-name="Group 3">
            <path id="Path_10" data-name="Path 10" d="M5251.781,262.923a15.708,15.708,0,0,0,31.415,0Z" fill="#ffffff"/>
            <path id="Path_11" data-name="Path 11" d="M5164.8,262.923a15.708,15.708,0,0,0,31.415,0Z" fill="#ffffff"/>
          </g>
          <circle id="Ellipse_3" data-name="Ellipse 3" cx="8.113" cy="8.113" r="8.113" transform="translate(5259.375 254.81)" fill="#00bcd4"/>
          <circle id="Ellipse_4" data-name="Ellipse 4" cx="8.113" cy="8.113" r="8.113" transform="translate(5172.399 254.81)" fill="#00bcd4"/>
          <g id="Group_4" data-name="Group 4">
            <circle id="Ellipse_5" data-name="Ellipse 5" cx="8.113" cy="8.113" r="8.113" transform="translate(5259.375 254.81)" fill="none" stroke="#4e342e" stroke-linecap="round" stroke-linejoin="round" stroke-width="4"/>
            <circle id="Ellipse_6" data-name="Ellipse 6" cx="8.113" cy="8.113" r="8.113" transform="translate(5172.399 254.81)" fill="none" stroke="#4e342e" stroke-linecap="round" stroke-linejoin="round" stroke-width="4"/>
            <path id="Path_12" data-name="Path 12" d="M5203.294,243.635a29.852,29.852,0,0,0-45.565,0" fill="none" stroke="#4e342e" stroke-linecap="round" stroke-linejoin="round" stroke-width="6"/>
            <path id="Path_13" data-name="Path 13" d="M5290.271,243.635a29.852,29.852,0,0,0-45.565,0" fill="none" stroke="#4e342e" stroke-linecap="round" stroke-linejoin="round" stroke-width="6"/>
          </g>
        </g>
        <g id="eyes-brown">
          <g id="Group_5" data-name="Group 5">
            <path id="Path_14" data-name="Path 14" d="M5251.781,262.923a15.708,15.708,0,0,0,31.415,0Z" fill="#ffffff"/>
            <path id="Path_15" data-name="Path 15" d="M5164.8,262.923a15.708,15.708,0,0,0,31.415,0Z" fill="#ffffff"/>
          </g>
          <circle id="Ellipse_7" data-name="Ellipse 7" cx="8.113" cy="8.113" r="8.113" transform="translate(5259.375 254.81)" fill="#795548"/>
          <circle id="Ellipse_8" data-name="Ellipse 8" cx="8.113" cy="8.113" r="8.113" transform="translate(5172.399 254.81)" fill="#795548"/>
          <g id="Group_6" data-name="Group 6">
            <circle id="Ellipse_9" data-name="Ellipse 9" cx="8.113" cy="8.113" r="8.113" transform="translate(5259.375 254.81)" fill="none" stroke="#4e342e" stroke-linecap="round" stroke-linejoin="round" stroke-width="4"/>
            <circle id="Ellipse_10" data-name="Ellipse 10" cx="8.113" cy="8.113" r="8.113" transform="translate(5172.399 254.81)" fill="none" stroke="#4e342e" stroke-linecap="round" stroke-linejoin="round" stroke-width="4"/>
            <path id="Path_16" data-name="Path 16" d="M5203.294,243.635a29.852,29.852,0,0,0-45.565,0" fill="none" stroke="#4e342e" stroke-linecap="round" stroke-linejoin="round" stroke-width="6"/>
            <path id="Path_17" data-name="Path 17" d="M5290.271,243.635a29.852,29.852,0,0,0-45.565,0" fill="none" stroke="#4e342e" stroke-linecap="round" stroke-linejoin="round" stroke-width="6"/>
          </g>
        </g>
        <g id="eyes-dark">
          <g id="Group_7" data-name="Group 7">
            <path id="Path_18" data-name="Path 18" d="M5251.781,262.923a15.708,15.708,0,0,0,31.415,0Z" fill="#ffffff"/>
            <path id="Path_19" data-name="Path 19" d="M5164.8,262.923a15.708,15.708,0,0,0,31.415,0Z" fill="#ffffff"/>
          </g>
          <circle id="Ellipse_11" data-name="Ellipse 11" cx="8.113" cy="8.113" r="8.113" transform="translate(5259.375 254.81)" fill="#5d4037"/>
          <circle id="Ellipse_12" data-name="Ellipse 12" cx="8.113" cy="8.113" r="8.113" transform="translate(5172.399 254.81)" fill="#5d4037"/>
          <g id="Group_8" data-name="Group 8">
            <circle id="Ellipse_13" data-name="Ellipse 13" cx="8.113" cy="8.113" r="8.113" transform="translate(5259.375 254.81)" fill="none" stroke="#4e342e" stroke-linecap="round" stroke-linejoin="round" stroke-width="4"/>
            <circle id="Ellipse_14" data-name="Ellipse 14" cx="8.113" cy="8.113" r="8.113" transform="translate(5172.399 254.81)" fill="none" stroke="#4e342e" stroke-linecap="round" stroke-linejoin="round" stroke-width="4"/>
            <path id="Path_20" data-name="Path 20" d="M5203.294,243.635a29.852,29.852,0,0,0-45.565,0" fill="none" stroke="#4e342e" stroke-linecap="round" stroke-linejoin="round" stroke-width="6"/>
            <path id="Path_21" data-name="Path 21" d="M5290.271,243.635a29.852,29.852,0,0,0-45.565,0" fill="none" stroke="#4e342e" stroke-linecap="round" stroke-linejoin="round" stroke-width="6"/>
          </g>
        </g>
        <path id="hair-black" d="M5284.31,97h.869A61.188,61.188,0,0,0,5162.8,97h.886a123.423,123.423,0,0,0-47.775,167.1h.026a29.45,29.45,0,0,1,14.146-9.887l.007.035v39.087a13.271,13.271,0,0,0,8.1,12.226l.9-.156-.019-67.844c46.748-.176,84.916-38.119,84.916-84.908a84.912,84.912,0,0,0,84.593,84.908v68h1.209a13.271,13.271,0,0,0,8.1-12.226V254.24l.006-.029a29.455,29.455,0,0,1,14.148,9.889h.023A123.421,123.421,0,0,0,5284.31,97Z" fill="#5d4037"/>
        <path id="hair-brown" d="M5284.31,97h.869A61.188,61.188,0,0,0,5162.8,97h.886a123.423,123.423,0,0,0-47.775,167.1h.026a29.45,29.45,0,0,1,14.146-9.887l.007.035v39.087a13.271,13.271,0,0,0,8.1,12.226l.9-.156-.019-67.844c46.748-.176,84.916-38.119,84.916-84.908a84.912,84.912,0,0,0,84.593,84.908v68h1.209a13.271,13.271,0,0,0,8.1-12.226V254.24l.006-.029a29.455,29.455,0,0,1,14.148,9.889h.023A123.421,123.421,0,0,0,5284.31,97Z" fill="#795548"/>
        <path id="hair-blonde" d="M5284.31,97h.869A61.188,61.188,0,0,0,5162.8,97h.886a123.423,123.423,0,0,0-47.775,167.1h.026a29.45,29.45,0,0,1,14.146-9.887l.007.035v39.087a13.271,13.271,0,0,0,8.1,12.226l.9-.156-.019-67.844c46.748-.176,84.916-38.119,84.916-84.908a84.912,84.912,0,0,0,84.593,84.908v68h1.209a13.271,13.271,0,0,0,8.1-12.226V254.24l.006-.029a29.455,29.455,0,0,1,14.148,9.889h.023A123.421,123.421,0,0,0,5284.31,97Z" fill="#ffd600"/>
        <path id="hair-grey" d="M5284.31,97h.869A61.188,61.188,0,0,0,5162.8,97h.886a123.423,123.423,0,0,0-47.775,167.1h.026a29.45,29.45,0,0,1,14.146-9.887l.007.035v39.087a13.271,13.271,0,0,0,8.1,12.226l.9-.156-.019-67.844c46.748-.176,84.916-38.119,84.916-84.908a84.912,84.912,0,0,0,84.593,84.908v68h1.209a13.271,13.271,0,0,0,8.1-12.226V254.24l.006-.029a29.455,29.455,0,0,1,14.148,9.889h.023A123.421,123.421,0,0,0,5284.31,97Z" fill="#bdbdbd"/>
        <g id="Group_10" data-name="Group 10">
          <g id="Path_22" data-name="Path 22" fill="none" stroke-miterlimit="10">
            <path d="M5332.083,264.1A123.421,123.421,0,0,0,5284.31,97h.869A61.188,61.188,0,0,0,5162.8,97h.886a123.423,123.423,0,0,0-47.775,167.1h.026a29.394,29.394,0,0,0,23.142,47.546c.677,0,1.348-.026,2.014-.071l3.6,30.307c2.678,23.731,15.783,42.291,34.615,55.028l.006,54.6a44.537,44.537,0,0,0,44.537,44.537h0A44.537,44.537,0,0,0,5268.4,451.5l-.006-54.5c18.9-12.73,32.059-31.334,34.743-55.12,0,0,2.139-17.5,3.7-30.236h.3c.695.049,1.083,0,1.791,0A29.394,29.394,0,0,0,5332.06,264.1Z" stroke="none"/>
            <path d="M 5223.9912109375 35.81298828125 C 5190.1982421875 35.81298828125 5162.80419921875 63.20700073242188 5162.80419921875 97 L 5163.68994140625 97 C 5126.0732421875 118.1270141601562 5100.65087890625 158.3989868164062 5100.65087890625 204.614990234375 C 5100.65087890625 226.1830139160156 5106.18701171875 246.4590148925781 5115.9150390625 264.0979919433594 L 5115.94091796875 264.0979919433594 C 5112.02001953125 269.0960083007812 5109.666015625 275.3819885253906 5109.666015625 282.2269897460938 C 5109.666015625 298.4739990234375 5122.8359375 311.6439819335938 5139.0830078125 311.6439819335938 C 5139.759765625 311.6439819335938 5140.43115234375 311.6179809570312 5141.09716796875 311.572998046875 L 5144.7021484375 341.8800048828125 C 5147.3798828125 365.6110229492188 5160.48486328125 384.1710205078125 5179.31689453125 396.9080200195312 L 5179.3232421875 451.5039978027344 C 5179.3232421875 476.1010131835938 5199.26318359375 496.041015625 5223.85986328125 496.041015625 C 5248.45703125 496.041015625 5268.39697265625 476.1010131835938 5268.39697265625 451.5039978027344 L 5268.39111328125 397 C 5287.29296875 384.27001953125 5300.4501953125 365.666015625 5303.1337890625 341.8800048828125 C 5303.1337890625 341.8789978027344 5305.27294921875 324.3760070800781 5306.8291015625 311.6439819335938 L 5307.125 311.6439819335938 C 5307.8193359375 311.6930541992188 5308.2080078125 311.6439819335938 5308.916015625 311.6439819335938 C 5325.162109375 311.6439819335938 5338.3330078125 298.4739990234375 5338.3330078125 282.2269897460938 C 5338.3330078125 275.3829956054688 5335.97998046875 269.0979919433594 5332.06005859375 264.1000061035156 L 5332.0830078125 264.1000061035156 C 5341.81201171875 246.4599914550781 5347.34912109375 226.1839904785156 5347.34912109375 204.614990234375 C 5347.34912109375 158.3989868164062 5321.9267578125 118.1270141601562 5284.31005859375 97 L 5285.17919921875 97 C 5285.17919921875 63.20700073242188 5257.7841796875 35.81298828125 5223.9912109375 35.81298828125 M 5223.9912109375 27.81298828125 C 5260.75634765625 27.81298828125 5290.91552734375 56.63851928710938 5293.0576171875 92.87469482421875 C 5331.6201171875 116.7507019042969 5355.34912109375 159.0591735839844 5355.34912109375 204.614990234375 C 5355.34912109375 225.1255493164062 5350.53076171875 245.4208679199219 5341.37451171875 263.6251525878906 C 5344.6318359375 269.2648010253906 5346.3330078125 275.6045532226562 5346.3330078125 282.2269897460938 C 5346.3330078125 301.1512145996094 5332.2109375 316.8392639160156 5313.9521484375 319.3064270019531 L 5311.07568359375 342.8441772460938 C 5308.43017578125 366.2952270507812 5296.46435546875 386.3905334472656 5276.3916015625 401.150146484375 L 5276.39697265625 451.503173828125 C 5276.39697265625 480.4729919433594 5252.8291015625 504.041015625 5223.85986328125 504.041015625 C 5194.89111328125 504.041015625 5171.3232421875 480.4729919433594 5171.3232421875 451.5039978027344 L 5171.3173828125 401.0490112304688 C 5151.32080078125 386.2872314453125 5139.39794921875 366.2229614257812 5136.75244140625 342.7770080566406 L 5133.95947265625 319.2944946289062 C 5115.74267578125 316.7891235351562 5101.666015625 301.1209716796875 5101.666015625 282.2269897460938 C 5101.666015625 275.6045532226562 5103.3671875 269.2648010253906 5106.62451171875 263.625244140625 C 5097.4697265625 245.4223327636719 5092.65087890625 225.1256713867188 5092.65087890625 204.614990234375 C 5092.65087890625 159.0649719238281 5116.37158203125 116.7629699707031 5154.92529296875 92.88531494140625 C 5157.060546875 56.6427001953125 5187.22216796875 27.81298828125 5223.9912109375 27.81298828125 Z" stroke="none" fill="#4e342e"/>
          </g>
          <g id="Group_9" data-name="Group 9">
            <path id="Path_23" data-name="Path 23" d="M5268.543,398.542l0,52.962A44.537,44.537,0,0,1,5224,496.041h0a44.537,44.537,0,0,1-44.537-44.537l-.008-53.462" fill="none" stroke="#4e342e" stroke-linecap="round" stroke-miterlimit="10" stroke-width="6"/>
            <path id="Path_24" data-name="Path 24" d="M5139.084,237.567V298l5.707,43.88c3.192,28.283,21.183,49.084,46.045,60.475v.02c9.578,9.578,14.848,17.532,33.165,17.532s23.587-7.954,33.165-17.532l0-.011c24.872-11.388,42.871-32.194,46.064-60.484l5.369-43.233-.077-61.08" fill="none" stroke="#4e342e" stroke-linecap="round" stroke-miterlimit="10" stroke-width="6"/>
            <path id="Path_25" data-name="Path 25" d="M5163.391,322.307A24.307,24.307,0,0,1,5139.084,298" fill="none" stroke="#4e342e" stroke-linecap="round" stroke-miterlimit="10" stroke-width="6"/>
            <path id="Path_26" data-name="Path 26" d="M5284.11,322.307A24.457,24.457,0,0,0,5308.593,298" fill="none" stroke="#4e342e" stroke-linecap="round" stroke-miterlimit="10" stroke-width="6"/>
            <path id="Path_27" data-name="Path 27" d="M5233.7,367.554a13.716,13.716,0,0,1-19.4,0" fill="none" stroke="#4e342e" stroke-linecap="round" stroke-miterlimit="10" stroke-width="6"/>
            <path id="Path_28" data-name="Path 28" d="M5190.916,351.233c14.528,3.385,17.907-3.385,23.837-3.385,3.566,0,7.123,3.639,9.247,6.77,2.124-3.131,5.681-6.77,9.247-6.77,5.93,0,9.98,6.77,23.837,3.385" fill="none" stroke="#4e342e" stroke-linecap="round" stroke-miterlimit="10" stroke-width="6"/>
            <path id="Path_29" data-name="Path 29" d="M5317.912,254.212a29.421,29.421,0,0,1-9,57.432c-.708,0-1.1.049-1.791,0" fill="none" stroke="#4e342e" stroke-linecap="round" stroke-miterlimit="10" stroke-width="6"/>
            <path id="Path_30" data-name="Path 30" d="M5130.087,254.212a29.421,29.421,0,0,0,9,57.432q1.062,0,2.1-.074" fill="none" stroke="#4e342e" stroke-linecap="round" stroke-miterlimit="10" stroke-width="6"/>
            <path id="Path_31" data-name="Path 31" d="M5337.5,232.5c-6.625,2.75-13.5,5.067-28.584,5.067A84.916,84.916,0,0,1,5224,152.651a84.992,84.992,0,0,1-103.488,82.879" fill="none" stroke="#4e342e" stroke-linecap="round" stroke-miterlimit="10" stroke-width="6"/>
            <path id="Path_32" data-name="Path 32" d="M5322.576,224.358a70.488,70.488,0,0,1-84.068-53.154" fill="none" stroke="#4e342e" stroke-linecap="round" stroke-miterlimit="10" stroke-width="6"/>
            <path id="Path_33" data-name="Path 33" d="M5248,260.56a70.492,70.492,0,0,1-16.594-73.833" fill="none" stroke="#4e342e" stroke-linecap="round" stroke-miterlimit="10" stroke-width="6"/>
            <path id="Path_34" data-name="Path 34" d="M5125.424,223.674a70.49,70.49,0,0,0,83.911-52.471" fill="none" stroke="#4e342e" stroke-linecap="round" stroke-miterlimit="10" stroke-width="6"/>
            <line id="Line_1" data-name="Line 1" y1="51.317" transform="translate(5224 101.333)" fill="none" stroke="#4e342e" stroke-linecap="round" stroke-miterlimit="10" stroke-width="6"/>
            <path id="Path_35" data-name="Path 35" d="M5233.7,315.588a13.716,13.716,0,0,1-19.4,0" fill="none" stroke="#4e342e" stroke-linecap="round" stroke-miterlimit="10" stroke-width="6"/>
            <path id="Path_36" data-name="Path 36" d="M5130.094,237.125v56.208a13.271,13.271,0,0,0,8.1,12.226" fill="none" stroke="#4e342e" stroke-linecap="round" stroke-miterlimit="10" stroke-width="6"/>
            <path id="Path_37" data-name="Path 37" d="M5317.906,237.125v56.208a13.271,13.271,0,0,1-8.1,12.226" fill="none" stroke="#4e342e" stroke-linecap="round" stroke-miterlimit="10" stroke-width="6"/>
            <path id="Path_38" data-name="Path 38" d="M5127.92,351.365a13.268,13.268,0,0,1,0-26.537,13.268,13.268,0,0,0,13.268-13.268" fill="none" stroke="#4e342e" stroke-linecap="round" stroke-miterlimit="10" stroke-width="6"/>
            <path id="Path_39" data-name="Path 39" d="M5320.08,351.449a13.269,13.269,0,0,0,0-26.537,13,13,0,0,1-12.955-13.268" fill="none" stroke="#4e342e" stroke-linecap="round" stroke-miterlimit="10" stroke-width="6"/>
            <path id="Path_40" data-name="Path 40" d="M5332.083,264.1a123.349,123.349,0,1,0-216.168,0" fill="none" stroke="#4e342e" stroke-linecap="round" stroke-miterlimit="10" stroke-width="6"/>
            <path id="Path_41" data-name="Path 41" d="M5162.8,97a61.188,61.188,0,0,1,122.375,0" fill="none" stroke="#4e342e" stroke-linecap="round" stroke-miterlimit="10" stroke-width="6"/>
          </g>
          <path id="Path_42" data-name="Path 42" d="M5223.991,46.313a51.254,51.254,0,0,1,47.971,33.954" fill="none" stroke="#ffffff" stroke-linecap="round" stroke-miterlimit="10" stroke-width="6"/>
        </g>
        <g id="Group_11" data-name="Group 11" style="mix-blend-mode: overlay;isolation: isolate">
          <line id="Line_2" data-name="Line 2" y1="53.273" transform="translate(5216.045 101.134)" fill="none" stroke="#ffffff" stroke-linecap="round" stroke-miterlimit="10" stroke-width="6" opacity="0.8"/>
          <path id="Path_43" data-name="Path 43" d="M5228.755,94.773a7.947,7.947,0,0,0-12.71,6.361" fill="none" stroke="#ffffff" stroke-linecap="round" stroke-miterlimit="10" stroke-width="6" opacity="0.8"/>
        </g>
      </g>
    </g>
  </g>
</svg>