<?xml version="1.0" encoding="utf-8"?>
<!-- Uploaded to: SVG Repo, www.svgrepo.com, Generator: SVG Repo Mixer Tools -->
<svg width="800px" height="800px" viewBox="0 0 512 512" xmlns="http://www.w3.org/2000/svg" xmlns:xlink="http://www.w3.org/1999/xlink">
  <defs>
    <clipPath id="clip-Artboard_9">
      <rect width="512" height="512"/>
    </clipPath>
  </defs>
  <g id="Artboard_9" data-name="Artboard 9" clip-path="url(#clip-Artboard_9)">
    <g id="women" transform="translate(-4416)">
      <g id="Group_21" data-name="Group 21">
        <path id="skin-dark" d="M4765.912,254.211l-9.362-.008.043-16.644h-2.721c-2.34-27.9-5.439-45.559-5.439-45.559l-7.535,30.744c0,2.019-9.084,3.83-23.465,5.068L4714.017,192l-4.174,36.381c-8.524.551-18.377.919-28.979,1.057l-9.1-51.771-9.1,51.771c-10.6-.138-20.455-.506-28.979-1.057L4629.5,192l-3.417,35.812c-14.381-1.238-23.465-3.049-23.465-5.068L4595.084,192s-3.1,17.659-5.44,45.567h-2.56v16.644h-9a29.422,29.422,0,0,0,9,57.433c.384,0,.762-.025,1.142-.04,1.345,10.978,3.5,23.963,4.272,28.553l.205,1.723c2.679,23.731,15.783,42.291,34.616,55.028l.005,54.6a44.537,44.537,0,0,0,44.537,44.537h0A44.537,44.537,0,0,0,4716.4,451.5l0-54.5c18.9-12.73,32.058-31.334,34.743-55.12,0,0,.481-3.936,1.152-9.429.949-5.938,2.138-13.778,3-20.8.592.031.982-.007,1.63-.007a29.422,29.422,0,0,0,9-57.433Z" fill="#8d6e63"/>
        <path id="skin-tanned" d="M4765.912,254.211l-9.362-.008.043-16.644h-2.721c-2.34-27.9-5.439-45.559-5.439-45.559l-7.535,30.744c0,2.019-9.084,3.83-23.465,5.068L4714.017,192l-4.174,36.381c-8.524.551-18.377.919-28.979,1.057l-9.1-51.771-9.1,51.771c-10.6-.138-20.455-.506-28.979-1.057L4629.5,192l-3.417,35.812c-14.381-1.238-23.465-3.049-23.465-5.068L4595.084,192s-3.1,17.659-5.44,45.567h-2.56v16.644h-9a29.422,29.422,0,0,0,9,57.433c.384,0,.762-.025,1.142-.04,1.345,10.978,3.5,23.963,4.272,28.553l.205,1.723c2.679,23.731,15.783,42.291,34.616,55.028l.005,54.6a44.537,44.537,0,0,0,44.537,44.537h0A44.537,44.537,0,0,0,4716.4,451.5l0-54.5c18.9-12.73,32.058-31.334,34.743-55.12,0,0,.481-3.936,1.152-9.429.949-5.938,2.138-13.778,3-20.8.592.031.982-.007,1.63-.007a29.422,29.422,0,0,0,9-57.433Z" fill="#ffccbc"/>
        <path id="skin-light" d="M4765.912,254.211l-9.362-.008.043-16.644h-2.721c-2.34-27.9-5.439-45.559-5.439-45.559l-7.535,30.744c0,2.019-9.084,3.83-23.465,5.068L4714.017,192l-4.174,36.381c-8.524.551-18.377.919-28.979,1.057l-9.1-51.771-9.1,51.771c-10.6-.138-20.455-.506-28.979-1.057L4629.5,192l-3.417,35.812c-14.381-1.238-23.465-3.049-23.465-5.068L4595.084,192s-3.1,17.659-5.44,45.567h-2.56v16.644h-9a29.422,29.422,0,0,0,9,57.433c.384,0,.762-.025,1.142-.04,1.345,10.978,3.5,23.963,4.272,28.553l.205,1.723c2.679,23.731,15.783,42.291,34.616,55.028l.005,54.6a44.537,44.537,0,0,0,44.537,44.537h0A44.537,44.537,0,0,0,4716.4,451.5l0-54.5c18.9-12.73,32.058-31.334,34.743-55.12,0,0,.481-3.936,1.152-9.429.949-5.938,2.138-13.778,3-20.8.592.031.982-.007,1.63-.007a29.422,29.422,0,0,0,9-57.433Z" fill="#fbe9e7"/>
        <g id="shadows_highlights" data-name="shadows/highlights">
          <g id="Group_13" data-name="Group 13" style="mix-blend-mode: soft-light;isolation: isolate">
            <path id="Path_44" data-name="Path 44" d="M4590.792,335.88c3.192,28.283,23.183,49.084,48.044,60.475l17.51,9.288h0a31.556,31.556,0,0,0,14.767,3.395h1.3a31.561,31.561,0,0,0,14.768-3.395h0l17.51-9.288c24.862-11.391,44.852-32.192,48.045-60.475" fill="none" stroke="#4e342e" stroke-miterlimit="10" stroke-width="8"/>
            <path id="Path_45" data-name="Path 45" d="M4627.461,404.171a93.277,93.277,0,0,0,11.375,6.184l17.51,9.288h0a31.556,31.556,0,0,0,14.767,3.395h1.3a31.561,31.561,0,0,0,14.768-3.395h0l17.51-9.288a92.994,92.994,0,0,0,11.866-6.5" fill="none" stroke="#4e342e" stroke-miterlimit="10" stroke-width="14"/>
            <path id="Path_46" data-name="Path 46" d="M4679.832,319.605a9.64,9.64,0,0,1-15.662,0" fill="none" stroke="#4e342e" stroke-miterlimit="10" stroke-width="8"/>
            <path id="Path_47" data-name="Path 47" d="M4680.616,370.623a11.245,11.245,0,0,1-17.23,0" fill="none" stroke="#4e342e" stroke-miterlimit="10" stroke-width="8"/>
            <path id="Path_48" data-name="Path 48" d="M4765.906,266.533a18.176,18.176,0,0,1,6.584,6.5,18.1,18.1,0,0,1,0,18.39" fill="none" stroke="#4e342e" stroke-linecap="round" stroke-miterlimit="10" stroke-width="8"/>
            <path id="Path_49" data-name="Path 49" d="M4578.1,266.533a18.1,18.1,0,0,0-6.586,24.889" fill="none" stroke="#4e342e" stroke-linecap="round" stroke-miterlimit="10" stroke-width="8"/>
            <path id="Path_50" data-name="Path 50" d="M4748.433,198l-7.535,30.744c0,2.019-9.084,3.83-23.465,5.068L4714.017,198l-4.174,36.381c-8.524.551-18.377.919-28.979,1.057l-9.1-51.771-9.1,51.771c-10.6-.138-20.455-.506-28.979-1.057L4629.5,198l-3.417,35.812c-14.381-1.238-23.465-3.049-23.465-5.068L4595.084,198" fill="none" stroke="#4e342e" stroke-miterlimit="10" stroke-width="8"/>
          </g>
          <circle id="Ellipse_15" data-name="Ellipse 15" cx="4" cy="4" r="4" transform="translate(4668 299.446)" fill="#ffffff" style="mix-blend-mode: soft-light;isolation: isolate"/>
          <ellipse id="Ellipse_16" data-name="Ellipse 16" cx="7.524" cy="4.314" rx="7.524" ry="4.314" transform="translate(4664.557 391.444)" fill="#ffffff" style="mix-blend-mode: soft-light;isolation: isolate"/>
        </g>
        <g id="Group_14" data-name="Group 14" style="mix-blend-mode: soft-light;isolation: isolate">
          <path id="Path_51" data-name="Path 51" d="M4699.782,263.9a15.707,15.707,0,1,1,31.414,0Z" fill="#5d4037"/>
          <path id="Path_52" data-name="Path 52" d="M4612.805,263.9a15.707,15.707,0,0,1,31.414,0Z" fill="#5d4037"/>
        </g>
        <g id="eyes-green_blue" data-name="eyes-green/blue">
          <g id="Group_15" data-name="Group 15">
            <path id="Path_53" data-name="Path 53" d="M4699.782,263.9a15.707,15.707,0,1,0,31.414,0Z" fill="#ffffff"/>
            <path id="Path_54" data-name="Path 54" d="M4612.805,263.9a15.707,15.707,0,1,0,31.414,0Z" fill="#ffffff"/>
          </g>
          <circle id="Ellipse_17" data-name="Ellipse 17" cx="8.113" cy="8.113" r="8.113" transform="translate(4707.376 255.792)" fill="#00bcd4"/>
          <circle id="Ellipse_18" data-name="Ellipse 18" cx="8.113" cy="8.113" r="8.113" transform="translate(4620.399 255.792)" fill="#00bcd4"/>
          <g id="Group_16" data-name="Group 16">
            <circle id="Ellipse_19" data-name="Ellipse 19" cx="8.113" cy="8.113" r="8.113" transform="translate(4707.376 255.792)" fill="none" stroke="#4e342e" stroke-linecap="round" stroke-linejoin="round" stroke-width="4"/>
            <circle id="Ellipse_20" data-name="Ellipse 20" cx="8.113" cy="8.113" r="8.113" transform="translate(4620.399 255.792)" fill="none" stroke="#4e342e" stroke-linecap="round" stroke-linejoin="round" stroke-width="4"/>
            <path id="Path_55" data-name="Path 55" d="M4651.295,244.616a29.852,29.852,0,0,0-45.565,0" fill="none" stroke="#4e342e" stroke-linecap="round" stroke-linejoin="round" stroke-width="6"/>
            <path id="Path_56" data-name="Path 56" d="M4738.271,244.616a29.852,29.852,0,0,0-45.565,0" fill="none" stroke="#4e342e" stroke-linecap="round" stroke-linejoin="round" stroke-width="6"/>
          </g>
        </g>
        <g id="eyes-brown">
          <g id="Group_17" data-name="Group 17">
            <path id="Path_57" data-name="Path 57" d="M4699.782,263.9a15.707,15.707,0,1,0,31.414,0Z" fill="#ffffff"/>
            <path id="Path_58" data-name="Path 58" d="M4612.805,263.9a15.707,15.707,0,1,0,31.414,0Z" fill="#ffffff"/>
          </g>
          <circle id="Ellipse_21" data-name="Ellipse 21" cx="8.113" cy="8.113" r="8.113" transform="translate(4707.376 255.792)" fill="#795548"/>
          <circle id="Ellipse_22" data-name="Ellipse 22" cx="8.113" cy="8.113" r="8.113" transform="translate(4620.399 255.792)" fill="#795548"/>
          <g id="Group_18" data-name="Group 18">
            <circle id="Ellipse_23" data-name="Ellipse 23" cx="8.113" cy="8.113" r="8.113" transform="translate(4707.376 255.792)" fill="none" stroke="#4e342e" stroke-linecap="round" stroke-linejoin="round" stroke-width="4"/>
            <circle id="Ellipse_24" data-name="Ellipse 24" cx="8.113" cy="8.113" r="8.113" transform="translate(4620.399 255.792)" fill="none" stroke="#4e342e" stroke-linecap="round" stroke-linejoin="round" stroke-width="4"/>
            <path id="Path_59" data-name="Path 59" d="M4651.295,244.616a29.852,29.852,0,0,0-45.565,0" fill="none" stroke="#4e342e" stroke-linecap="round" stroke-linejoin="round" stroke-width="6"/>
            <path id="Path_60" data-name="Path 60" d="M4738.271,244.616a29.852,29.852,0,0,0-45.565,0" fill="none" stroke="#4e342e" stroke-linecap="round" stroke-linejoin="round" stroke-width="6"/>
          </g>
        </g>
        <g id="eyes-dark">
          <g id="Group_19" data-name="Group 19">
            <path id="Path_61" data-name="Path 61" d="M4699.782,263.9a15.707,15.707,0,1,0,31.414,0Z" fill="#ffffff"/>
            <path id="Path_62" data-name="Path 62" d="M4612.805,263.9a15.707,15.707,0,1,0,31.414,0Z" fill="#ffffff"/>
          </g>
          <circle id="Ellipse_25" data-name="Ellipse 25" cx="8.113" cy="8.113" r="8.113" transform="translate(4707.376 255.792)" fill="#5d4037"/>
          <circle id="Ellipse_26" data-name="Ellipse 26" cx="8.113" cy="8.113" r="8.113" transform="translate(4620.399 255.792)" fill="#5d4037"/>
          <g id="Group_20" data-name="Group 20">
            <circle id="Ellipse_27" data-name="Ellipse 27" cx="8.113" cy="8.113" r="8.113" transform="translate(4707.376 255.792)" fill="none" stroke="#4e342e" stroke-linecap="round" stroke-linejoin="round" stroke-width="4"/>
            <circle id="Ellipse_28" data-name="Ellipse 28" cx="8.113" cy="8.113" r="8.113" transform="translate(4620.399 255.792)" fill="none" stroke="#4e342e" stroke-linecap="round" stroke-linejoin="round" stroke-width="4"/>
            <path id="Path_63" data-name="Path 63" d="M4651.295,244.616a29.852,29.852,0,0,0-45.565,0" fill="none" stroke="#4e342e" stroke-linecap="round" stroke-linejoin="round" stroke-width="6"/>
            <path id="Path_64" data-name="Path 64" d="M4738.271,244.616a29.852,29.852,0,0,0-45.565,0" fill="none" stroke="#4e342e" stroke-linecap="round" stroke-linejoin="round" stroke-width="6"/>
          </g>
        </g>
        <path id="hair-black" d="M4722.713,103.066h.021c-6.391-21.027-26.69-36.394-50.742-36.394s-44.363,15.376-50.748,36.41h.012A110.6,110.6,0,0,0,4575.148,254.6l2.946-.352c0,4.173,0,21.868,0,21.868a13.27,13.27,0,0,0,8.1,12.225l.906-.155c0-19.606.842-36.594,1.977-50.625,2.363-29.222,6-45.559,6-45.559l7.535,30.744c0,2.019,9.084,3.83,23.465,5.068L4629.5,192l4.174,36.381c8.524.551,18.376.919,28.979,1.057l9.1-51.771,8.528,51.781c14.237-.17,19.343-.185,29.556-1.067L4714.017,192l3.416,35.812c10.923-1.194,23.568-3.341,23.568-5.068L4748.516,192s3.7,16.172,6.091,45.559c1.141,14.024,1.986,31.045,1.986,50.781h1.21a13.274,13.274,0,0,0,8.1-12.226V254.24l0-.029,2.94.389a110.6,110.6,0,0,0-46.139-151.534Z" fill="#5d4037"/>
        <path id="hair-brown" d="M4722.713,103.066h.021c-6.391-21.027-26.69-36.394-50.742-36.394s-44.363,15.376-50.748,36.41h.012A110.6,110.6,0,0,0,4575.148,254.6l2.946-.352c0,4.173,0,21.868,0,21.868a13.27,13.27,0,0,0,8.1,12.225l.906-.155c0-19.606.842-36.594,1.977-50.625,2.363-29.222,6-45.559,6-45.559l7.535,30.744c0,2.019,9.084,3.83,23.465,5.068L4629.5,192l4.174,36.381c8.524.551,18.376.919,28.979,1.057l9.1-51.771,8.528,51.781c14.237-.17,19.343-.185,29.556-1.067L4714.017,192l3.416,35.812c10.923-1.194,23.568-3.341,23.568-5.068L4748.516,192s3.7,16.172,6.091,45.559c1.141,14.024,1.986,31.045,1.986,50.781h1.21a13.274,13.274,0,0,0,8.1-12.226V254.24l0-.029,2.94.389a110.6,110.6,0,0,0-46.139-151.534Z" fill="#795548"/>
        <path id="hair-blonde" d="M4722.713,103.066h.021c-6.391-21.027-26.69-36.394-50.742-36.394s-44.363,15.376-50.748,36.41h.012A110.6,110.6,0,0,0,4575.148,254.6l2.946-.352c0,4.173,0,21.868,0,21.868a13.27,13.27,0,0,0,8.1,12.225l.906-.155c0-19.606.842-36.594,1.977-50.625,2.363-29.222,6-45.559,6-45.559l7.535,30.744c0,2.019,9.084,3.83,23.465,5.068L4629.5,192l4.174,36.381c8.524.551,18.376.919,28.979,1.057l9.1-51.771,8.528,51.781c14.237-.17,19.343-.185,29.556-1.067L4714.017,192l3.416,35.812c10.923-1.194,23.568-3.341,23.568-5.068L4748.516,192s3.7,16.172,6.091,45.559c1.141,14.024,1.986,31.045,1.986,50.781h1.21a13.274,13.274,0,0,0,8.1-12.226V254.24l0-.029,2.94.389a110.6,110.6,0,0,0-46.139-151.534Z" fill="#ffd600"/>
        <path id="hair-grey" d="M4722.713,103.066h.021c-6.391-21.027-26.69-36.394-50.742-36.394s-44.363,15.376-50.748,36.41h.012A110.6,110.6,0,0,0,4575.148,254.6l-1.054-.352c0,4.173,0,21.868,0,21.868a13.27,13.27,0,0,0,8.1,12.225l4.906-.155c0-19.606.842-36.594,1.977-50.625,2.363-29.222,6-45.559,6-45.559l7.535,30.744c0,2.019,9.084,3.83,23.465,5.068L4629.5,192l4.174,36.381c8.524.551,18.376.919,28.979,1.057l9.1-51.771,8.528,51.781c14.237-.17,19.343-.185,29.556-1.067L4714.017,192l3.416,35.812c10.923-1.194,23.568-3.341,23.568-5.068L4748.516,192s3.7,16.172,6.091,45.559c1.141,14.024,1.986,31.045,1.986,50.781h5.21a13.274,13.274,0,0,0,8.1-12.226V254.24l-4-.029,2.94.389a110.6,110.6,0,0,0-46.139-151.534Z" fill="#bdbdbd"/>
        <path id="Path_65" data-name="Path 65" d="M4671.992,75.612c11.385,0,23.1,5.933,31.391,13.493" fill="none" stroke="#ffffff" stroke-linecap="round" stroke-miterlimit="10" stroke-width="6" opacity="0.8" style="mix-blend-mode: overlay;isolation: isolate"/>
        <g id="lines">
          <g id="Path_66" data-name="Path 66" fill="none" stroke-miterlimit="10">
            <path d="M4778.763,262.551l2.46-.529a1.575,1.575,0,0,0-.159-3.143h-6.285a29.313,29.313,0,0,0-8.867-4.668l2.94.389a110.6,110.6,0,0,0-46.139-151.534h.021c-6.391-21.027-26.69-36.394-50.742-36.394s-44.363,15.376-50.748,36.41h.012A110.6,110.6,0,0,0,4575.148,254.6l2.8-.335a29.311,29.311,0,0,0-8.725,4.616h-5.961a1.575,1.575,0,0,0-.159,3.143l2.191.471a29.4,29.4,0,0,0,21.791,49.151c.384,0,.762-.025,1.142-.04,1.345,10.978,3.5,23.963,4.272,28.553l.205,1.723c2.679,23.731,15.783,42.291,34.616,55.028l.005,54.6a44.537,44.537,0,0,0,44.537,44.537h0A44.537,44.537,0,0,0,4716.4,451.5l0-54.5c18.9-12.73,32.058-31.334,34.743-55.12,0,0,.481-3.936,1.152-9.429.949-5.938,2.138-13.778,3-20.8.592.031.982-.007,1.63-.007a29.4,29.4,0,0,0,21.846-49.093Z" stroke="none"/>
            <path d="M 4671.9921875 66.67196655273438 C 4647.93310546875 66.67196655273438 4627.62890625 82.0479736328125 4621.244140625 103.0819702148438 L 4621.255859375 103.0819702148438 C 4585.7431640625 121.4689636230469 4561.47021484375 158.5460510253906 4561.47021484375 201.2960510253906 C 4561.47021484375 220.6229553222656 4566.43115234375 238.7919616699219 4575.14794921875 254.5980529785156 L 4577.94580078125 254.2629699707031 C 4574.759765625 255.3040466308594 4571.82421875 256.8839721679688 4569.22119140625 258.8789672851562 L 4563.259765625 258.8789672851562 C 4562.38916015625 258.8789672851562 4561.68408203125 259.5840454101562 4561.68408203125 260.4549560546875 C 4561.68408203125 261.2629699707031 4562.2958984375 261.9410400390625 4563.10107421875 262.02197265625 L 4565.2919921875 262.4930419921875 C 4560.56103515625 267.7130432128906 4557.6669921875 274.6279602050781 4557.6669921875 282.2269592285156 C 4557.6669921875 298.4739685058594 4570.8369140625 311.64404296875 4587.0830078125 311.64404296875 C 4587.466796875 311.64404296875 4587.84521484375 311.6189575195312 4588.22509765625 311.6039733886719 C 4589.56982421875 322.5819702148438 4591.72021484375 335.5669555664062 4592.4970703125 340.1570434570312 L 4592.7021484375 341.8799743652344 C 4595.380859375 365.6109619140625 4608.48486328125 384.1709594726562 4627.31787109375 396.907958984375 L 4627.3232421875 451.5039672851562 C 4627.3232421875 476.1009521484375 4647.26318359375 496.0409545898438 4671.85986328125 496.0409545898438 C 4696.45703125 496.0409545898438 4716.39697265625 476.1009521484375 4716.39697265625 451.5039672851562 L 4716.39208984375 396.9999694824219 C 4735.2939453125 384.2699584960938 4748.4501953125 365.6659545898438 4751.134765625 341.8799743652344 C 4751.134765625 341.8799743652344 4751.6162109375 337.9439697265625 4752.287109375 332.4509887695312 C 4753.23583984375 326.5129699707031 4754.4248046875 318.6729736328125 4755.287109375 311.6509704589844 C 4755.8798828125 311.6819458007812 4756.26904296875 311.64404296875 4756.9169921875 311.64404296875 C 4773.1630859375 311.64404296875 4786.3330078125 298.4739685058594 4786.3330078125 282.2269592285156 C 4786.3330078125 274.6559753417969 4783.4609375 267.7640380859375 4778.76318359375 262.5509643554688 L 4781.22314453125 262.02197265625 C 4782.02783203125 261.9410400390625 4782.64013671875 261.2629699707031 4782.64013671875 260.4549560546875 C 4782.64013671875 259.5840454101562 4781.93505859375 258.8789672851562 4781.06396484375 258.8789672851562 L 4774.77880859375 258.8789672851562 C 4772.13623046875 256.8539733886719 4769.15283203125 255.2509765625 4765.912109375 254.2109680175781 L 4768.85205078125 254.5999755859375 C 4777.56982421875 238.7939758300781 4782.53076171875 220.6239624023438 4782.53076171875 201.2960510253906 C 4782.53076171875 158.5330505371094 4758.244140625 121.4459533691406 4722.712890625 103.0659790039062 L 4722.73388671875 103.0659790039062 C 4716.3427734375 82.03897094726562 4696.0439453125 66.67196655273438 4671.9921875 66.67196655273438 M 4671.9921875 58.67196655273438 C 4697.66650390625 58.67196655273438 4720.74365234375 74.48318481445312 4729.30078125 97.51763916015625 C 4767.15478515625 118.4289855957031 4790.53076171875 157.8918762207031 4790.53076171875 201.2960510253906 C 4790.53076171875 218.438720703125 4786.80029296875 235.4160461425781 4779.6865234375 250.8789672851562 L 4781.06396484375 250.8789672851562 C 4786.34423828125 250.8789672851562 4790.64013671875 255.1747436523438 4790.64013671875 260.4549560546875 C 4790.64013671875 261.8568115234375 4790.34130859375 263.1908569335938 4789.80126953125 264.3938293457031 C 4792.7568359375 269.8291015625 4794.3330078125 275.9441223144531 4794.3330078125 282.2269592285156 C 4794.3330078125 301.011474609375 4780.419921875 316.6072692871094 4762.35791015625 319.24951171875 C 4761.6455078125 324.3849792480469 4760.857421875 329.5175476074219 4760.18701171875 333.7131958007812 L 4759.07568359375 342.8512573242188 C 4756.4296875 366.2962951660156 4744.46435546875 386.3911743164062 4724.392578125 401.150146484375 L 4724.39697265625 451.5032653808594 C 4724.39697265625 480.4729614257812 4700.8291015625 504.0409545898438 4671.85986328125 504.0409545898438 C 4642.89111328125 504.0409545898438 4619.3232421875 480.4729614257812 4619.3232421875 451.5039672851562 L 4619.318359375 401.049072265625 C 4599.322265625 386.2881164550781 4587.3994140625 366.22412109375 4584.75244140625 342.7772827148438 L 4584.55322265625 341.1026000976562 C 4583.9130859375 337.3671875 4582.412109375 328.2957763671875 4581.14892578125 319.1739807128906 C 4563.3271484375 316.3225708007812 4549.6669921875 300.8402099609375 4549.6669921875 282.2269592285156 C 4549.6669921875 275.8194580078125 4551.30517578125 269.5903625488281 4554.373046875 264.0775756835938 C 4553.93359375 262.9604797363281 4553.68408203125 261.7360534667969 4553.68408203125 260.4549560546875 C 4553.68408203125 255.1747436523438 4557.9794921875 250.8789672851562 4563.259765625 250.8789672851562 L 4564.314453125 250.8789672851562 C 4557.2001953125 235.4149780273438 4553.47021484375 218.4380798339844 4553.47021484375 201.2960510253906 C 4553.47021484375 157.9012756347656 4576.84423828125 118.4374084472656 4614.68994140625 97.52267456054688 C 4623.23583984375 74.48538208007812 4646.3076171875 58.67196655273438 4671.9921875 58.67196655273438 Z" stroke="none" fill="#4e342e"/>
          </g>
          <path id="Path_67" data-name="Path 67" d="M4716.543,398.542l0,52.962A44.537,44.537,0,0,1,4672,496.041h0a44.537,44.537,0,0,1-44.537-44.537l-.007-53.462" fill="none" stroke="#4e342e" stroke-linecap="round" stroke-miterlimit="10" stroke-width="6"/>
          <path id="Path_68" data-name="Path 68" d="M4672.407,415.038a31.561,31.561,0,0,0,14.768-3.395h0l17.51-9.288c24.862-11.391,42.852-32.192,46.045-60.475,0,0,5.707-32.818,5.707-43.88,0-60.433-8-106-8-106l-7.535,30.744c0,2.019-9.084,3.83-23.465,5.068L4714.017,192l-4.174,36.381c-8.524.551-18.377.919-28.979,1.057l-9.1-51.771-9.1,51.771c-10.6-.138-20.455-.506-28.979-1.057L4629.5,192l-3.417,35.812c-14.381-1.238-23.465-3.049-23.465-5.068L4595.084,192s-8,45.567-8,106c0,11.062,5.708,43.88,5.708,43.88,3.192,28.283,21.183,49.084,46.044,60.475l17.51,9.288h0a31.556,31.556,0,0,0,14.767,3.395Z" fill="none" stroke="#4e342e" stroke-linecap="round" stroke-miterlimit="10" stroke-width="6"/>
          <path id="Path_69" data-name="Path 69" d="M4681.7,367.554a13.717,13.717,0,0,1-19.4,0" fill="none" stroke="#4e342e" stroke-linecap="round" stroke-miterlimit="10" stroke-width="6"/>
          <path id="Path_70" data-name="Path 70" d="M4638.916,355.233c14.528,3.385,17.907-7.385,23.837-7.385,3.566,0,7.124,3.639,9.248,6.77,2.123-3.131,5.681-6.77,9.247-6.77,5.93,0,9.98,10.77,23.837,7.385" fill="none" stroke="#4e342e" stroke-linecap="round" stroke-miterlimit="10" stroke-width="6"/>
          <path id="Path_71" data-name="Path 71" d="M4776.839,260.584a29.417,29.417,0,0,1-19.922,51.06c-.708,0-1.1.049-1.791,0" fill="none" stroke="#4e342e" stroke-linecap="round" stroke-miterlimit="10" stroke-width="6"/>
          <path id="Path_72" data-name="Path 72" d="M4571.991,256.972a29.42,29.42,0,0,0,15.092,54.672" fill="none" stroke="#4e342e" stroke-linecap="round" stroke-miterlimit="10" stroke-width="6"/>
          <path id="Path_73" data-name="Path 73" d="M4681.7,315.588a13.717,13.717,0,0,1-19.4,0" fill="none" stroke="#4e342e" stroke-linecap="round" stroke-miterlimit="10" stroke-width="6"/>
          <path id="Path_74" data-name="Path 74" d="M4574.1,260.583v15.531c0,5.5,7.341,10.211,12.1,12.226" fill="none" stroke="#4e342e" stroke-linecap="round" stroke-miterlimit="10" stroke-width="6"/>
          <path id="Path_75" data-name="Path 75" d="M4769.907,258.879v17.235c0,5.5-7.342,10.211-12.1,12.226" fill="none" stroke="#4e342e" stroke-linecap="round" stroke-miterlimit="10" stroke-width="6"/>
          <path id="Path_76" data-name="Path 76" d="M4768.852,254.6a110.53,110.53,0,1,0-193.7,0" fill="none" stroke="#4e342e" stroke-linecap="round" stroke-miterlimit="10" stroke-width="6"/>
          <path id="Path_77" data-name="Path 77" d="M4621.244,103.082c6.385-21.034,26.689-36.41,50.748-36.41s44.351,15.367,50.742,36.394" fill="none" stroke="#4e342e" stroke-linecap="round" stroke-miterlimit="10" stroke-width="6"/>
        </g>
        <g id="glasses">
          <path id="Path_78" data-name="Path 78" d="M4657.875,280.518c-7.084,23.773-21.75,31.576-41.517,31.576-23.929,0-31.9-15.485-31.9-40.034,0-17.946,13.166-23.118,38.065-23.118C4653.191,248.942,4665.222,255.863,4657.875,280.518Z" fill="none" stroke="#4e342e" stroke-linecap="round" stroke-linejoin="round" stroke-width="8"/>
          <path id="Path_79" data-name="Path 79" d="M4686.34,280.518c7.084,23.773,21.75,31.576,41.518,31.576,23.928,0,31.9-15.485,31.9-40.034,0-17.946-13.167-23.118-38.066-23.118C4691.024,248.942,4678.993,255.863,4686.34,280.518Z" fill="none" stroke="#4e342e" stroke-linecap="round" stroke-linejoin="round" stroke-width="8"/>
          <path id="Path_80" data-name="Path 80" d="M4684.3,269.178a12.206,12.206,0,0,0-12.206-12.206h.035a12.206,12.206,0,0,0-12.206,12.206" fill="none" stroke="#4e342e" stroke-linecap="round" stroke-linejoin="round" stroke-width="8"/>
          <path id="Path_81" data-name="Path 81" d="M4684.617,264.2c0-3.989-5.336-7.223-12.492-7.223h-.035c-7.155,0-12.491,3.234-12.491,7.223" fill="none" stroke="#4e342e" stroke-linecap="round" stroke-linejoin="round" stroke-width="8"/>
          <path id="Path_82" data-name="Path 82" d="M4584.532,266.624l-21.431-4.6a1.575,1.575,0,0,1-1.417-1.567h0a1.575,1.575,0,0,1,1.576-1.576h24.92" fill="none" stroke="#4e342e" stroke-linecap="round" stroke-linejoin="round" stroke-width="8"/>
          <path id="Path_83" data-name="Path 83" d="M4759.792,266.624l21.431-4.6a1.575,1.575,0,0,0,1.417-1.567h0a1.576,1.576,0,0,0-1.576-1.576h-24.92" fill="none" stroke="#4e342e" stroke-linecap="round" stroke-linejoin="round" stroke-width="8"/>
        </g>
      </g>
    </g>
  </g>
</svg>