<?xml version="1.0" encoding="utf-8"?>
<!-- Uploaded to: SVG Repo, www.svgrepo.com, Generator: SVG Repo Mixer Tools -->
<svg width="800px" height="800px" viewBox="0 0 512 512" xmlns="http://www.w3.org/2000/svg" xmlns:xlink="http://www.w3.org/1999/xlink">
  <defs>
    <clipPath id="clip-Artboard_6">
      <rect width="512" height="512"/>
    </clipPath>
  </defs>
  <g id="Artboard_6" data-name="Artboard 6" clip-path="url(#clip-Artboard_6)">
    <g id="women" transform="translate(-2760)">
      <g id="Group_56" data-name="Group 56">
        <path id="skin-dark" d="M3067.6,248c0-56-51.6-62.758-51.6-88.333,0,25.575-51.6,32.333-51.6,88.333,0,40.834-15.826,66.9-27.75,92.449l.132,1.332.116.1c3.209,33.013,21.125,44.64,34.526,57.033l0,0,0,52.589h-.1c0,.739.02,1.474.056,2.2a44.536,44.536,0,0,0,88.4,5.2,44.955,44.955,0,0,0,.559-5.072q.06-1.158.061-2.332l0-52.326c.06-.056.121-.111.182-.167v-.1l0,0c13.4-12.393,31.317-24.02,34.526-57.033l.116-.1.132-1.332C3083.427,314.9,3067.6,288.834,3067.6,248Z" fill="#8d6e63"/>
        <path id="skin-tanned" d="M3067.6,248c0-56-51.6-62.758-51.6-88.333,0,25.575-51.6,32.333-51.6,88.333,0,40.834-15.826,66.9-27.75,92.449l.132,1.332.116.1c3.209,33.013,21.125,44.64,34.526,57.033l0,0,0,52.589h-.1c0,.739.02,1.474.056,2.2a44.536,44.536,0,0,0,88.4,5.2,44.955,44.955,0,0,0,.559-5.072q.06-1.158.061-2.332l0-52.326c.06-.056.121-.111.182-.167v-.1l0,0c13.4-12.393,31.317-24.02,34.526-57.033l.116-.1.132-1.332C3083.427,314.9,3067.6,288.834,3067.6,248Z" fill="#ffccbc"/>
        <path id="skin-light" d="M3067.6,248c0-56-51.6-62.758-51.6-88.333,0,25.575-51.6,32.333-51.6,88.333,0,40.834-15.826,66.9-27.75,92.449l.132,1.332.116.1c3.209,33.013,21.125,44.64,34.526,57.033l0,0,0,52.589h-.1c0,.739.02,1.474.056,2.2a44.536,44.536,0,0,0,88.4,5.2,44.955,44.955,0,0,0,.559-5.072q.06-1.158.061-2.332l0-52.326c.06-.056.121-.111.182-.167v-.1l0,0c13.4-12.393,31.317-24.02,34.526-57.033l.116-.1.132-1.332C3083.427,314.9,3067.6,288.834,3067.6,248Z" fill="#fbe9e7"/>
        <g id="shadows_highlights" data-name="shadows/highlights">
          <g id="Group_47" data-name="Group 47" style="mix-blend-mode: soft-light;isolation: isolate">
            <path id="Path_285" data-name="Path 285" d="M3060.572,402.088c-3.672,2.38-7.494,7.482-11.412,9.276l.005.011c-9.578,9.578-14.848,17.532-33.165,17.532s-23.587-7.954-33.165-17.532v-.02c-4.089-1.874-8.074-7.083-11.891-9.593" fill="none" stroke="#4e342e" stroke-miterlimit="10" stroke-width="14"/>
            <path id="Path_286" data-name="Path 286" d="M3103.447,251.667c0-39.356-30.349-68.01-66.831-77.254A27.3,27.3,0,0,1,3016,147.853a27.3,27.3,0,0,1-20.616,26.56c-36.482,9.244-66.831,37.9-66.831,77.254" fill="none" stroke="#4e342e" stroke-linecap="round" stroke-miterlimit="10" stroke-width="21"/>
            <path id="Path_287" data-name="Path 287" d="M3098.224,335.88c-3.193,28.29-24.192,51.1-49.064,62.484l.005.011c-9.578,9.578-14.848,17.532-33.165,17.532s-23.587-7.954-33.165-17.532v-.02c-24.862-11.391-45.853-34.192-49.045-62.475" fill="none" stroke="#4e342e" stroke-miterlimit="10" stroke-width="8"/>
            <path id="Path_288" data-name="Path 288" d="M3099.637,269.838c9.606,0,17.394,7.06,17.394,15.768s-7.788,15.769-17.394,15.769" fill="none" stroke="#4e342e" stroke-linecap="round" stroke-miterlimit="10" stroke-width="8"/>
            <path id="Path_289" data-name="Path 289" d="M2931.784,269.838c-9.607,0-17.394,7.06-17.394,15.768s7.787,15.769,17.394,15.769" fill="none" stroke="#4e342e" stroke-linecap="round" stroke-miterlimit="10" stroke-width="8"/>
            <path id="Path_290" data-name="Path 290" d="M3023.831,319.605a9.64,9.64,0,0,1-15.662,0" fill="none" stroke="#4e342e" stroke-miterlimit="10" stroke-width="8"/>
            <path id="Path_291" data-name="Path 291" d="M3024.615,370.623a11.245,11.245,0,0,1-17.23,0" fill="none" stroke="#4e342e" stroke-miterlimit="10" stroke-width="8"/>
            <path id="Path_292" data-name="Path 292" d="M2936.242,331.32C2948.208,305.49,2964.4,289.3,2964.4,248c0-56,51.6-62.758,51.6-88.333,0,25.575,51.6,32.333,51.6,88.333,0,41.3,16.191,57.49,28.157,83.32" fill="none" stroke="#4e342e" stroke-linecap="round" stroke-miterlimit="10" stroke-width="23"/>
          </g>
          <ellipse id="Ellipse_58" data-name="Ellipse 58" cx="7.524" cy="4.314" rx="7.524" ry="4.314" transform="translate(3008.557 391.444)" fill="#ffffff" style="mix-blend-mode: soft-light;isolation: isolate"/>
          <circle id="Ellipse_59" data-name="Ellipse 59" cx="4" cy="4" r="4" transform="translate(3012 299.446)" fill="#ffffff" style="mix-blend-mode: soft-light;isolation: isolate"/>
        </g>
        <g id="Group_48" data-name="Group 48" style="mix-blend-mode: soft-light;isolation: isolate">
          <path id="Path_293" data-name="Path 293" d="M3043.781,262.923a15.708,15.708,0,0,1,31.415,0Z" fill="#5d4037"/>
          <path id="Path_294" data-name="Path 294" d="M2956.8,262.923a15.708,15.708,0,0,1,31.415,0Z" fill="#5d4037"/>
        </g>
        <g id="eyes-green_blue" data-name="eyes-green/blue">
          <g id="Group_49" data-name="Group 49">
            <path id="Path_295" data-name="Path 295" d="M3043.781,262.923a15.708,15.708,0,0,0,31.415,0Z" fill="#ffffff"/>
            <path id="Path_296" data-name="Path 296" d="M2956.8,262.923a15.708,15.708,0,0,0,31.415,0Z" fill="#ffffff"/>
          </g>
          <circle id="Ellipse_60" data-name="Ellipse 60" cx="8.113" cy="8.113" r="8.113" transform="translate(3051.376 254.81)" fill="#00bcd4"/>
          <circle id="Ellipse_61" data-name="Ellipse 61" cx="8.113" cy="8.113" r="8.113" transform="translate(2964.399 254.81)" fill="#00bcd4"/>
          <g id="Group_50" data-name="Group 50">
            <circle id="Ellipse_62" data-name="Ellipse 62" cx="8.113" cy="8.113" r="8.113" transform="translate(3051.376 254.81)" fill="none" stroke="#4e342e" stroke-linecap="round" stroke-linejoin="round" stroke-width="4"/>
            <circle id="Ellipse_63" data-name="Ellipse 63" cx="8.113" cy="8.113" r="8.113" transform="translate(2964.399 254.81)" fill="none" stroke="#4e342e" stroke-linecap="round" stroke-linejoin="round" stroke-width="4"/>
            <path id="Path_297" data-name="Path 297" d="M2995.294,243.635a29.852,29.852,0,0,0-45.565,0" fill="none" stroke="#4e342e" stroke-linecap="round" stroke-linejoin="round" stroke-width="6"/>
            <path id="Path_298" data-name="Path 298" d="M3082.271,243.635a29.852,29.852,0,0,0-45.565,0" fill="none" stroke="#4e342e" stroke-linecap="round" stroke-linejoin="round" stroke-width="6"/>
          </g>
        </g>
        <g id="eyes-brown">
          <g id="Group_51" data-name="Group 51">
            <path id="Path_299" data-name="Path 299" d="M3043.781,262.923a15.708,15.708,0,0,0,31.415,0Z" fill="#ffffff"/>
            <path id="Path_300" data-name="Path 300" d="M2956.8,262.923a15.708,15.708,0,0,0,31.415,0Z" fill="#ffffff"/>
          </g>
          <circle id="Ellipse_64" data-name="Ellipse 64" cx="8.113" cy="8.113" r="8.113" transform="translate(3051.376 254.81)" fill="#795548"/>
          <circle id="Ellipse_65" data-name="Ellipse 65" cx="8.113" cy="8.113" r="8.113" transform="translate(2964.399 254.81)" fill="#795548"/>
          <g id="Group_52" data-name="Group 52">
            <circle id="Ellipse_66" data-name="Ellipse 66" cx="8.113" cy="8.113" r="8.113" transform="translate(3051.376 254.81)" fill="none" stroke="#4e342e" stroke-linecap="round" stroke-linejoin="round" stroke-width="4"/>
            <circle id="Ellipse_67" data-name="Ellipse 67" cx="8.113" cy="8.113" r="8.113" transform="translate(2964.399 254.81)" fill="none" stroke="#4e342e" stroke-linecap="round" stroke-linejoin="round" stroke-width="4"/>
            <path id="Path_301" data-name="Path 301" d="M2995.294,243.635a29.852,29.852,0,0,0-45.565,0" fill="none" stroke="#4e342e" stroke-linecap="round" stroke-linejoin="round" stroke-width="6"/>
            <path id="Path_302" data-name="Path 302" d="M3082.271,243.635a29.852,29.852,0,0,0-45.565,0" fill="none" stroke="#4e342e" stroke-linecap="round" stroke-linejoin="round" stroke-width="6"/>
          </g>
        </g>
        <g id="eyes-dark">
          <g id="Group_53" data-name="Group 53">
            <path id="Path_303" data-name="Path 303" d="M3043.781,262.923a15.708,15.708,0,0,0,31.415,0Z" fill="#ffffff"/>
            <path id="Path_304" data-name="Path 304" d="M2956.8,262.923a15.708,15.708,0,0,0,31.415,0Z" fill="#ffffff"/>
          </g>
          <circle id="Ellipse_68" data-name="Ellipse 68" cx="8.113" cy="8.113" r="8.113" transform="translate(3051.376 254.81)" fill="#5d4037"/>
          <circle id="Ellipse_69" data-name="Ellipse 69" cx="8.113" cy="8.113" r="8.113" transform="translate(2964.399 254.81)" fill="#5d4037"/>
          <g id="Group_54" data-name="Group 54">
            <circle id="Ellipse_70" data-name="Ellipse 70" cx="8.113" cy="8.113" r="8.113" transform="translate(3051.376 254.81)" fill="none" stroke="#4e342e" stroke-linecap="round" stroke-linejoin="round" stroke-width="4"/>
            <circle id="Ellipse_71" data-name="Ellipse 71" cx="8.113" cy="8.113" r="8.113" transform="translate(2964.399 254.81)" fill="none" stroke="#4e342e" stroke-linecap="round" stroke-linejoin="round" stroke-width="4"/>
            <path id="Path_305" data-name="Path 305" d="M2995.294,243.635a29.852,29.852,0,0,0-45.565,0" fill="none" stroke="#4e342e" stroke-linecap="round" stroke-linejoin="round" stroke-width="6"/>
            <path id="Path_306" data-name="Path 306" d="M3082.271,243.635a29.852,29.852,0,0,0-45.565,0" fill="none" stroke="#4e342e" stroke-linecap="round" stroke-linejoin="round" stroke-width="6"/>
          </g>
        </g>
        <path id="hair-black" d="M3016,159.667c0,25.575,51.6,32.333,51.6,88.333,0,41.3,16.191,67.49,28.157,93.32l-.655.56c-3.209,33.013-21.125,44.64-34.526,57.033l0,0,0,52.589h4.683A113.366,113.366,0,0,1,3041,460.522c53,0,91.916-36.189,91.916-100.189V207.647a116.916,116.916,0,1,0-233.832,0V360.333c0,64,38.916,100.189,91.916,100.189a113.366,113.366,0,0,1-24.255-9.017h4.683l0-52.589,0,0c-13.4-12.393-31.317-24.02-34.526-57.033l-.655-.56C2948.208,315.49,2964.4,289.3,2964.4,248,2964.4,192,3016,185.242,3016,159.667Z" fill="#5d4037"/>
        <path id="hair-brown" d="M3016,159.667c0,25.575,51.6,32.333,51.6,88.333,0,41.3,16.191,67.49,28.157,93.32l-.655.56c-3.209,33.013-21.125,44.64-34.526,57.033l0,0,0,52.589h4.683A113.366,113.366,0,0,1,3041,460.522c53,0,91.916-36.189,91.916-100.189V207.647a116.916,116.916,0,1,0-233.832,0V360.333c0,64,38.916,100.189,91.916,100.189a113.366,113.366,0,0,1-24.255-9.017h4.683l0-52.589,0,0c-13.4-12.393-31.317-24.02-34.526-57.033l-.655-.56C2948.208,315.49,2964.4,289.3,2964.4,248,2964.4,192,3016,185.242,3016,159.667Z" fill="#795548"/>
        <path id="hair-blonde" d="M3016,159.667c0,25.575,51.6,32.333,51.6,88.333,0,41.3,16.191,67.49,28.157,93.32l-.655.56c-3.209,33.013-21.125,44.64-34.526,57.033l0,0,0,52.589h4.683A113.366,113.366,0,0,1,3041,460.522c53,0,91.916-36.189,91.916-100.189V207.647a116.916,116.916,0,1,0-233.832,0V360.333c0,64,38.916,100.189,91.916,100.189a113.366,113.366,0,0,1-24.255-9.017h4.683l0-52.589,0,0c-13.4-12.393-31.317-24.02-34.526-57.033l-.655-.56C2948.208,315.49,2964.4,289.3,2964.4,248,2964.4,192,3016,185.242,3016,159.667Z" fill="#ffd600"/>
        <path id="hair-grey" d="M3016,159.667c0,25.575,51.6,32.333,51.6,88.333,0,41.3,16.191,67.49,28.157,93.32l-.655.56c-3.209,33.013-21.125,44.64-34.526,57.033l0,0,0,52.589h4.683A113.366,113.366,0,0,1,3041,460.522c53,0,91.916-36.189,91.916-100.189V207.647a116.916,116.916,0,1,0-233.832,0V360.333c0,64,38.916,100.189,91.916,100.189a113.366,113.366,0,0,1-24.255-9.017h4.683l0-52.589,0,0c-13.4-12.393-31.317-24.02-34.526-57.033l-.655-.56C2948.208,315.49,2964.4,289.3,2964.4,248,2964.4,192,3016,185.242,3016,159.667Z" fill="#bdbdbd"/>
        <g id="Group_55" data-name="Group 55">
          <path id="Path_307" data-name="Path 307" d="M2999.55,111.389a14.13,14.13,0,0,1,5.274,11.039v37.239" fill="none" stroke="#ffffff" stroke-linecap="round" stroke-linejoin="round" stroke-width="6" style="mix-blend-mode: overlay;isolation: isolate"/>
          <path id="Path_308" data-name="Path 308" d="M3095.411,340.569c7.176,15.393,12.923,30.607,12.923,48.76,0,36.37-27.738,55.381-47.608,64.334l-.149-.33v-54.42c13.4-12.393,31.317-24.02,34.526-57.033Z" fill="#5d4037"/>
          <path id="Path_309" data-name="Path 309" d="M2937.089,341.88c3.209,33.013,21.125,44.64,34.526,57.033v54.42l-.149.33c-19.869-8.953-47.608-27.964-47.608-64.334,0-18.153,5.747-33.367,12.923-48.76Z" fill="#5d4037"/>
        </g>
        <g id="lines">
          <g id="Path_310" data-name="Path 310" fill="none" stroke-linecap="round" stroke-linejoin="round">
            <path d="M3016,90.73a116.917,116.917,0,0,0-116.916,116.917V360.333c0,56.047,29.846,90.765,72.859,98.528h0a44.532,44.532,0,0,0,87.834.047c43.163-7.663,73.139-42.406,73.139-98.575V207.647A116.917,116.917,0,0,0,3016,90.73Z" stroke="none"/>
            <path d="M 3016 90.73004150390625 C 2951.428955078125 90.73004150390625 2899.083984375 143.0759582519531 2899.083984375 207.6470336914062 L 2899.083984375 360.3330078125 C 2899.083984375 416.3800048828125 2928.929931640625 451.0979614257812 2971.943115234375 458.8609619140625 C 2975.47412109375 479.9549560546875 2993.909912109375 496.0409545898438 3016 496.0409545898438 C 3038.072998046875 496.0409545898438 3056.27197265625 479.9789733886719 3059.777099609375 458.907958984375 C 3102.93994140625 451.2449645996094 3132.916015625 416.5020141601562 3132.916015625 360.3330078125 L 3132.916015625 207.6470336914062 C 3132.916015625 143.0759582519531 3080.571044921875 90.73004150390625 3016 90.73004150390625 M 3016 82.73004150390625 C 3084.87890625 82.73004150390625 3140.916015625 138.7675476074219 3140.916015625 207.6470336914062 L 3140.916015625 360.3330078125 C 3140.916015625 415.1951293945312 3112.53759765625 455.0691528320312 3066.457275390625 465.7079467773438 C 3060.224853515625 488.2230529785156 3039.822265625 504.0409545898438 3016 504.0409545898438 C 2992.04541015625 504.0409545898438 2971.5263671875 488.1980590820312 2965.2646484375 465.6463317871094 C 2919.353759765625 454.91259765625 2891.083984375 415.0612182617188 2891.083984375 360.3330078125 L 2891.083984375 207.6470336914062 C 2891.083984375 138.7675476074219 2947.12109375 82.73004150390625 3016 82.73004150390625 Z" stroke="none" fill="#4e342e"/>
          </g>
          <path id="Path_311" data-name="Path 311" d="M3060.391,399.4l.006,52.108a44.537,44.537,0,1,1-89.074,0l-.006-52.2" fill="none" stroke="#4e342e" stroke-linecap="round" stroke-miterlimit="10" stroke-width="6"/>
          <path id="Path_312" data-name="Path 312" d="M2971.425,398.915c9.945,9.2,26.258,20.992,44.575,20.992s34.632-11.8,44.577-20.994" fill="none" stroke="#4e342e" stroke-linecap="round" stroke-linejoin="round" stroke-width="6"/>
          <path id="Path_313" data-name="Path 313" d="M3007.8,103.333A21.977,21.977,0,0,1,3016,120.5v39.165" fill="none" stroke="#4e342e" stroke-linecap="round" stroke-linejoin="round" stroke-width="6"/>
          <path id="Path_314" data-name="Path 314" d="M3026.216,367.554a13.716,13.716,0,0,1-19.4,0" fill="none" stroke="#4e342e" stroke-linecap="round" stroke-miterlimit="10" stroke-width="6"/>
          <path id="Path_315" data-name="Path 315" d="M2982.916,351.233c14.528,3.385,17.907-3.385,23.837-3.385,3.566,0,7.123,3.639,9.247,6.77,2.124-3.131,5.681-6.77,9.247-6.77,5.93,0,9.98,6.77,23.837,3.385" fill="none" stroke="#4e342e" stroke-linecap="round" stroke-miterlimit="10" stroke-width="6"/>
          <path id="Path_316" data-name="Path 316" d="M3025.7,315.588a13.715,13.715,0,0,1-19.4,0" fill="none" stroke="#4e342e" stroke-linecap="round" stroke-miterlimit="10" stroke-width="6"/>
          <path id="Path_317" data-name="Path 317" d="M3095.411,340.569c7.176,15.393,12.923,30.607,12.923,48.76,0,56.666-67.334,71.193-67.334,71.193h0" fill="none" stroke="#4e342e" stroke-linecap="round" stroke-linejoin="round" stroke-width="6"/>
          <path id="Path_318" data-name="Path 318" d="M3016,159.667c0,25.575,51.6,32.333,51.6,88.333,0,41.3,16.191,67.49,28.157,93.32l-.655.56c-3.209,33.013-21.125,44.64-34.526,57.033l0,0,0,52.589h4.683A113.366,113.366,0,0,1,3041,460.522c53,0,91.916-36.189,91.916-100.189V207.647a116.916,116.916,0,1,0-233.832,0V360.333c0,64,38.916,100.189,91.916,100.189a113.366,113.366,0,0,1-24.255-9.017h4.683l0-52.589,0,0c-13.4-12.393-31.317-24.02-34.526-57.033l-.655-.56C2948.208,315.49,2964.4,289.3,2964.4,248,2964.4,192,3016,185.242,3016,159.667Z" fill="none" stroke="#4e342e" stroke-linecap="round" stroke-linejoin="round" stroke-width="6"/>
          <path id="Path_319" data-name="Path 319" d="M2991,460.522h0s-67.334-14.527-67.334-71.193c0-18.153,5.747-33.367,12.923-48.76" fill="none" stroke="#4e342e" stroke-linecap="round" stroke-linejoin="round" stroke-width="6"/>
          <path id="Path_320" data-name="Path 320" d="M3024.2,103.333A21.977,21.977,0,0,0,3016,120.5" fill="none" stroke="#4e342e" stroke-linecap="round" stroke-linejoin="round" stroke-width="6"/>
        </g>
      </g>
    </g>
  </g>
</svg>