<?xml version="1.0" encoding="utf-8"?>
<!-- Uploaded to: SVG Repo, www.svgrepo.com, Generator: SVG Repo Mixer Tools -->
<svg width="800px" height="800px" viewBox="0 0 512 512" xmlns="http://www.w3.org/2000/svg" xmlns:xlink="http://www.w3.org/1999/xlink">
  <defs>
    <clipPath id="clip-Artboard_3">
      <rect width="512" height="512"/>
    </clipPath>
  </defs>
  <g id="Artboard_3" data-name="Artboard 3" clip-path="url(#clip-Artboard_3)">
    <g id="men" transform="translate(-1104)">
      <g id="Group_86" data-name="Group 86">
        <path id="skin-dark" d="M1451.734,160.645c-44.766,29.687-89.234,21.563-119.323,4.123s-46.227-54.183-46.227-54.183l-7.769,6.78,18.407,28.329.186.222a110.694,110.694,0,0,1-35.42,24.964l.007,50.99-.015,57.164a12.021,12.021,0,0,1-12.021-12.022V244.955l0-.009A29.37,29.37,0,0,0,1261.6,301.1v18.05a98.31,98.31,0,0,0,44.6,82.393h-1.552V440.86a55.18,55.18,0,0,0,55.181,55.181h0a55.18,55.18,0,0,0,55.18-55.181V401.543h-1.2a98.31,98.31,0,0,0,44.6-82.393V301.1a29.358,29.358,0,0,0,12.041-56.136l-.019,22.048a12.022,12.022,0,0,1-12.022,12.022V155.7S1455.923,157.6,1451.734,160.645Z" fill="#8d6e63"/>
        <path id="skin-tanned" d="M1451.734,160.645c-44.766,29.687-89.234,21.563-119.323,4.123s-46.227-54.183-46.227-54.183l-7.769,6.78,18.407,28.329.186.222a110.694,110.694,0,0,1-35.42,24.964l.007,50.99-.015,57.164a12.021,12.021,0,0,1-12.021-12.022V244.955l0-.009A29.37,29.37,0,0,0,1261.6,301.1v18.05a98.31,98.31,0,0,0,44.6,82.393h-1.552V440.86a55.18,55.18,0,0,0,55.181,55.181h0a55.18,55.18,0,0,0,55.18-55.181V401.543h-1.2a98.31,98.31,0,0,0,44.6-82.393V301.1a29.358,29.358,0,0,0,12.041-56.136l-.019,22.048a12.022,12.022,0,0,1-12.022,12.022V155.7S1455.923,157.6,1451.734,160.645Z" fill="#ffccbc"/>
        <path id="skin-light" d="M1451.734,160.645c-44.766,29.687-89.234,21.563-119.323,4.123s-46.227-54.183-46.227-54.183l-7.769,6.78,18.407,28.329.186.222a110.694,110.694,0,0,1-35.42,24.964l.007,50.99-.015,57.164a12.021,12.021,0,0,1-12.021-12.022V244.955l0-.009A29.37,29.37,0,0,0,1261.6,301.1v18.05a98.31,98.31,0,0,0,44.6,82.393h-1.552V440.86a55.18,55.18,0,0,0,55.181,55.181h0a55.18,55.18,0,0,0,55.18-55.181V401.543h-1.2a98.31,98.31,0,0,0,44.6-82.393V301.1a29.358,29.358,0,0,0,12.041-56.136l-.019,22.048a12.022,12.022,0,0,1-12.022,12.022V155.7S1455.923,157.6,1451.734,160.645Z" fill="#fbe9e7"/>
        <g id="shadows_highlights" data-name="shadows/highlights">
          <g id="Group_77" data-name="Group 77" style="mix-blend-mode: soft-light;isolation: isolate">
            <path id="Path_390" data-name="Path 390" d="M1411.437,455.458a98.48,98.48,0,0,1-104.991-1.335" fill="none" stroke="#4e342e" stroke-linecap="round" stroke-linejoin="round" stroke-width="14"/>
            <path id="Path_391" data-name="Path 391" d="M1460.4,313.15c0,54.345-44.95,98.4-100.4,98.4s-100.4-44.055-100.4-98.4" fill="none" stroke="#4e342e" stroke-linecap="round" stroke-linejoin="round" stroke-width="8"/>
            <path id="Path_392" data-name="Path 392" d="M1470.448,258.793a18.016,18.016,0,0,1,2.639,23.817" fill="none" stroke="#4e342e" stroke-linecap="round" stroke-linejoin="round" stroke-width="8"/>
            <path id="Path_393" data-name="Path 393" d="M1249.559,258.793a18.012,18.012,0,0,0-2.639,23.817" fill="none" stroke="#4e342e" stroke-linecap="round" stroke-linejoin="round" stroke-width="8"/>
            <path id="Path_394" data-name="Path 394" d="M1292.215,110.664c16.242,40.783,50.084,75.607,96.657,75.607,26.35,0,50.545-15.173,69.531-30.572" fill="none" stroke="#4e342e" stroke-linecap="round" stroke-linejoin="round" stroke-width="8"/>
            <path id="Path_395" data-name="Path 395" d="M1291.008,145.916c-4.793,10.792-16,21.854-29.42,27.792" fill="none" stroke="#4e342e" stroke-linecap="round" stroke-linejoin="round" stroke-width="8"/>
            <path id="Path_396" data-name="Path 396" d="M1360,327.833c0,26.019-16.988,36.526-47.381,34.517" fill="none" stroke="#4e342e" stroke-linecap="round" stroke-linejoin="round" stroke-width="8"/>
            <path id="Path_397" data-name="Path 397" d="M1360,327.215c0,26.019,16.988,37.144,47.381,35.135" fill="none" stroke="#4e342e" stroke-linecap="round" stroke-linejoin="round" stroke-width="8"/>
            <path id="Path_398" data-name="Path 398" d="M1382.772,306.818c0,10.006-10.195,18.015-22.772,18.015s-22.772-8.009-22.772-18.015" fill="none" stroke="#4e342e" stroke-linecap="round" stroke-linejoin="round" stroke-width="8"/>
          </g>
          <ellipse id="Ellipse_99" data-name="Ellipse 99" cx="6.121" cy="6.25" rx="6.121" ry="6.25" transform="translate(1353.879 292.458)" fill="#ffffff" style="mix-blend-mode: soft-light;isolation: isolate"/>
        </g>
        <g id="Group_78" data-name="Group 78" style="mix-blend-mode: soft-light;isolation: isolate">
          <path id="Path_399" data-name="Path 399" d="M1391.656,249.216a15.708,15.708,0,0,1,31.415,0Z" fill="#5d4037"/>
          <path id="Path_400" data-name="Path 400" d="M1296.68,249.216a15.707,15.707,0,1,1,31.414,0Z" fill="#5d4037"/>
        </g>
        <g id="eyes-green_blue" data-name="eyes-green/blue">
          <g id="Group_79" data-name="Group 79">
            <path id="Path_401" data-name="Path 401" d="M1391.656,249.216a15.708,15.708,0,0,0,31.415,0Z" fill="#ffffff"/>
            <path id="Path_402" data-name="Path 402" d="M1296.68,249.216a15.707,15.707,0,1,0,31.414,0Z" fill="#ffffff"/>
          </g>
          <circle id="Ellipse_100" data-name="Ellipse 100" cx="8.113" cy="8.113" r="8.113" transform="translate(1399.251 241.103)" fill="#00bcd4"/>
          <circle id="Ellipse_101" data-name="Ellipse 101" cx="8.113" cy="8.113" r="8.113" transform="translate(1304.274 241.103)" fill="#00bcd4"/>
          <g id="Group_80" data-name="Group 80">
            <circle id="Ellipse_102" data-name="Ellipse 102" cx="8.113" cy="8.113" r="8.113" transform="translate(1399.251 241.103)" fill="none" stroke="#4e342e" stroke-linecap="round" stroke-linejoin="round" stroke-width="4"/>
            <circle id="Ellipse_103" data-name="Ellipse 103" cx="8.113" cy="8.113" r="8.113" transform="translate(1304.274 241.103)" fill="none" stroke="#4e342e" stroke-linecap="round" stroke-linejoin="round" stroke-width="4"/>
            <path id="Path_403" data-name="Path 403" d="M1335.169,229.928a29.851,29.851,0,0,0-45.564,0" fill="none" stroke="#4e342e" stroke-linecap="round" stroke-linejoin="round" stroke-width="6"/>
            <path id="Path_404" data-name="Path 404" d="M1430.146,229.928a29.852,29.852,0,0,0-45.565,0" fill="none" stroke="#4e342e" stroke-linecap="round" stroke-linejoin="round" stroke-width="6"/>
          </g>
        </g>
        <g id="eyes-brown">
          <g id="Group_81" data-name="Group 81">
            <path id="Path_405" data-name="Path 405" d="M1391.656,249.216a15.708,15.708,0,0,0,31.415,0Z" fill="#ffffff"/>
            <path id="Path_406" data-name="Path 406" d="M1296.68,249.216a15.707,15.707,0,1,0,31.414,0Z" fill="#ffffff"/>
          </g>
          <circle id="Ellipse_104" data-name="Ellipse 104" cx="8.113" cy="8.113" r="8.113" transform="translate(1399.251 241.103)" fill="#795548"/>
          <circle id="Ellipse_105" data-name="Ellipse 105" cx="8.113" cy="8.113" r="8.113" transform="translate(1304.274 241.103)" fill="#795548"/>
          <g id="Group_82" data-name="Group 82">
            <circle id="Ellipse_106" data-name="Ellipse 106" cx="8.113" cy="8.113" r="8.113" transform="translate(1399.251 241.103)" fill="none" stroke="#4e342e" stroke-linecap="round" stroke-linejoin="round" stroke-width="4"/>
            <circle id="Ellipse_107" data-name="Ellipse 107" cx="8.113" cy="8.113" r="8.113" transform="translate(1304.274 241.103)" fill="none" stroke="#4e342e" stroke-linecap="round" stroke-linejoin="round" stroke-width="4"/>
            <path id="Path_407" data-name="Path 407" d="M1335.169,229.928a29.851,29.851,0,0,0-45.564,0" fill="none" stroke="#4e342e" stroke-linecap="round" stroke-linejoin="round" stroke-width="6"/>
            <path id="Path_408" data-name="Path 408" d="M1430.146,229.928a29.852,29.852,0,0,0-45.565,0" fill="none" stroke="#4e342e" stroke-linecap="round" stroke-linejoin="round" stroke-width="6"/>
          </g>
        </g>
        <g id="eyes-dark">
          <g id="Group_83" data-name="Group 83">
            <path id="Path_409" data-name="Path 409" d="M1391.656,249.216a15.708,15.708,0,0,0,31.415,0Z" fill="#ffffff"/>
            <path id="Path_410" data-name="Path 410" d="M1296.68,249.216a15.707,15.707,0,1,0,31.414,0Z" fill="#ffffff"/>
          </g>
          <circle id="Ellipse_108" data-name="Ellipse 108" cx="8.113" cy="8.113" r="8.113" transform="translate(1399.251 241.103)" fill="#5d4037"/>
          <circle id="Ellipse_109" data-name="Ellipse 109" cx="8.113" cy="8.113" r="8.113" transform="translate(1304.274 241.103)" fill="#5d4037"/>
          <g id="Group_84" data-name="Group 84">
            <circle id="Ellipse_110" data-name="Ellipse 110" cx="8.113" cy="8.113" r="8.113" transform="translate(1399.251 241.103)" fill="none" stroke="#4e342e" stroke-linecap="round" stroke-linejoin="round" stroke-width="4"/>
            <circle id="Ellipse_111" data-name="Ellipse 111" cx="8.113" cy="8.113" r="8.113" transform="translate(1304.274 241.103)" fill="none" stroke="#4e342e" stroke-linecap="round" stroke-linejoin="round" stroke-width="4"/>
            <path id="Path_411" data-name="Path 411" d="M1335.169,229.928a29.851,29.851,0,0,0-45.564,0" fill="none" stroke="#4e342e" stroke-linecap="round" stroke-linejoin="round" stroke-width="6"/>
            <path id="Path_412" data-name="Path 412" d="M1430.146,229.928a29.852,29.852,0,0,0-45.565,0" fill="none" stroke="#4e342e" stroke-linecap="round" stroke-linejoin="round" stroke-width="6"/>
          </g>
        </g>
        <path id="hair-black" d="M1470.424,258.532l.017-74.8A110.442,110.442,0,0,0,1286.5,101.3v0c-3,2.732-.312,9.276-.312,9.276l.031.079A110.494,110.494,0,0,0,1458.4,155.646l0,95.042h0v22.335a48.558,48.558,0,0,1-56.034,48,55.229,55.229,0,0,0-16.872-13.675,5.835,5.835,0,0,1-8.858,0h-1.922a15.2,15.2,0,0,1-29.428,0h-1.922a5.836,5.836,0,0,1-8.858,0,55.234,55.234,0,0,0-16.871,13.674,48.559,48.559,0,0,1-56.035-47.985l.008-102.161a110.692,110.692,0,0,0,35.42-24.964l-.186-.222a119.274,119.274,0,0,1-17.274-28.071l-.276-.258a4.911,4.911,0,0,0-3.772-1.829c-1.5-.078-3.5,1.445-4.327,2.561l-.005.008.072-.1a109.95,109.95,0,0,0-21.682,65.731v66.958h-.019l-.007,102.157a110.448,110.448,0,0,0,220.9,0ZM1326.76,378.569a33.333,33.333,0,0,1-14.82-18.008v-.221a61.936,61.936,0,0,0,28.379-9.14C1337.431,362.927,1332.673,375.152,1326.76,378.569Zm66.48,0c-5.945-3.436-10.723-15.775-13.606-27.561a61.9,61.9,0,0,0,27.878,9.279l.548.274A33.333,33.333,0,0,1,1393.24,378.569Z" fill="#5d4037"/>
        <path id="hair-brown" d="M1470.424,258.532l.017-74.8A110.442,110.442,0,0,0,1286.5,101.3v0c-3,2.732-.312,9.276-.312,9.276l.031.079A110.494,110.494,0,0,0,1458.4,155.646l0,95.042h0v22.335a48.558,48.558,0,0,1-56.034,48,55.229,55.229,0,0,0-16.872-13.675,5.835,5.835,0,0,1-8.858,0h-1.922a15.2,15.2,0,0,1-29.428,0h-1.922a5.836,5.836,0,0,1-8.858,0,55.234,55.234,0,0,0-16.871,13.674,48.559,48.559,0,0,1-56.035-47.985l.008-102.161a110.692,110.692,0,0,0,35.42-24.964l-.186-.222a119.274,119.274,0,0,1-17.274-28.071l-.276-.258a4.911,4.911,0,0,0-3.772-1.829c-1.5-.078-3.5,1.445-4.327,2.561l-.005.008.072-.1a109.95,109.95,0,0,0-21.682,65.731v66.958h-.019l-.007,102.157a110.448,110.448,0,0,0,220.9,0ZM1326.76,378.569a33.333,33.333,0,0,1-14.82-18.008v-.221a61.936,61.936,0,0,0,28.379-9.14C1337.431,362.927,1332.673,375.152,1326.76,378.569Zm66.48,0c-5.945-3.436-10.723-15.775-13.606-27.561a61.9,61.9,0,0,0,27.878,9.279l.548.274A33.333,33.333,0,0,1,1393.24,378.569Z" fill="#795548"/>
        <path id="hair-blonde" d="M1470.424,258.532l.017-74.8A110.442,110.442,0,0,0,1286.5,101.3v0c-3,2.732-.312,9.276-.312,9.276l.031.079A110.494,110.494,0,0,0,1458.4,155.646l0,95.042h0v22.335a48.558,48.558,0,0,1-56.034,48,55.229,55.229,0,0,0-16.872-13.675,5.835,5.835,0,0,1-8.858,0h-1.922a15.2,15.2,0,0,1-29.428,0h-1.922a5.836,5.836,0,0,1-8.858,0,55.234,55.234,0,0,0-16.871,13.674,48.559,48.559,0,0,1-56.035-47.985l.008-102.161a110.692,110.692,0,0,0,35.42-24.964l-.186-.222a119.274,119.274,0,0,1-17.274-28.071l-.276-.258a4.911,4.911,0,0,0-3.772-1.829c-1.5-.078-3.5,1.445-4.327,2.561l-.005.008.072-.1a109.95,109.95,0,0,0-21.682,65.731v66.958h-.019l-.007,102.157a110.448,110.448,0,0,0,220.9,0ZM1326.76,378.569a33.333,33.333,0,0,1-14.82-18.008v-.221a61.936,61.936,0,0,0,28.379-9.14C1337.431,362.927,1332.673,375.152,1326.76,378.569Zm66.48,0c-5.945-3.436-10.723-15.775-13.606-27.561a61.9,61.9,0,0,0,27.878,9.279l.548.274A33.333,33.333,0,0,1,1393.24,378.569Z" fill="#ffd600"/>
        <path id="hair-grey" d="M1470.424,258.532l.017-74.8A110.442,110.442,0,0,0,1286.5,101.3v0c-3,2.732-.312,9.276-.312,9.276l.031.079A110.494,110.494,0,0,0,1458.4,155.646l0,95.042h0v22.335a48.558,48.558,0,0,1-56.034,48,55.229,55.229,0,0,0-16.872-13.675,5.835,5.835,0,0,1-8.858,0h-1.922a15.2,15.2,0,0,1-29.428,0h-1.922a5.836,5.836,0,0,1-8.858,0,55.234,55.234,0,0,0-16.871,13.674,48.559,48.559,0,0,1-56.035-47.985l.008-102.161a110.692,110.692,0,0,0,35.42-24.964l-.186-.222a119.274,119.274,0,0,1-17.274-28.071l-.276-.258a4.911,4.911,0,0,0-3.772-1.829c-1.5-.078-3.5,1.445-4.327,2.561l-.005.008.072-.1a109.95,109.95,0,0,0-21.682,65.731v66.958h-.019l-.007,102.157a110.448,110.448,0,0,0,220.9,0ZM1326.76,378.569a33.333,33.333,0,0,1-14.82-18.008v-.221a61.936,61.936,0,0,0,28.379-9.14C1337.431,362.927,1332.673,375.152,1326.76,378.569Zm66.48,0c-5.945-3.436-10.723-15.775-13.606-27.561a61.9,61.9,0,0,0,27.878,9.279l.548.274A33.333,33.333,0,0,1,1393.24,378.569Z" fill="#bdbdbd"/>
        <g id="Group_85" data-name="Group 85" style="mix-blend-mode: overlay;isolation: isolate">
          <path id="Path_413" data-name="Path 413" d="M1388.872,172.271a102.125,102.125,0,0,0,71.889-29.454" fill="none" stroke="#ffffff" stroke-linecap="round" stroke-miterlimit="10" stroke-width="6"/>
          <path id="Path_414" data-name="Path 414" d="M1397.74,156.093a86.517,86.517,0,0,0,55.152-27.771" fill="none" stroke="#ffffff" stroke-linecap="round" stroke-miterlimit="10" stroke-width="6"/>
          <path id="Path_415" data-name="Path 415" d="M1407.688,138.037a70.746,70.746,0,0,0,33.716-20.828" fill="none" stroke="#ffffff" stroke-linecap="round" stroke-miterlimit="10" stroke-width="6"/>
          <path id="Path_416" data-name="Path 416" d="M1415.207,117.992a55.13,55.13,0,0,0,15.788-12.973" fill="none" stroke="#ffffff" stroke-linecap="round" stroke-miterlimit="10" stroke-width="6"/>
        </g>
        <g id="lines">
          <g id="Path_417" data-name="Path 417" fill="none" stroke-linecap="round" stroke-linejoin="round">
            <path d="M1487.764,271.735a29.355,29.355,0,0,0-17.323-26.771l-.016,18.416v-4.848l.017-74.8A110.442,110.442,0,0,0,1286.5,101.3v0c-3,2.732-.312,9.276-.312,9.276l-7.276,6.35a5.129,5.129,0,0,0-3.388-1.4c-1.5-.078-3.5,1.445-4.327,2.561l-.005.008.072-.1a109.95,109.95,0,0,0-21.682,65.731v66.958h-.019v-5.737l0-.009a29.369,29.369,0,0,0,0,53.568l0,54.335a110.407,110.407,0,0,0,55.665,95.923,55.186,55.186,0,0,0,54.608,47.269h0a55.188,55.188,0,0,0,54.58-47.058,110.408,110.408,0,0,0,56.043-96.134l-.014-54.33A29.364,29.364,0,0,0,1487.764,271.735ZM1332.411,164.768c-1.991-1.154-3.916-2.4-5.783-3.7q2.928,2,5.989,3.819C1332.549,164.845,1332.478,164.807,1332.411,164.768Zm119.179-4.031c.286-.2.564-.4.848-.6l-.7.513C1451.686,160.677,1451.638,160.705,1451.59,160.737Zm6.811,89.951h0V155.7s-.766.588-2.164,1.631c.725-.558,1.457-1.108,2.167-1.684Zm-41.428-74.033a106.1,106.1,0,0,1-49.106,1.617,111.152,111.152,0,0,0,49.106-1.617Zm2.18-.61c-.423.124-.846.249-1.269.368C1418.31,176.3,1418.729,176.165,1419.153,176.045ZM1296.735,145.56a119.393,119.393,0,0,1-14.534-22.368Z" stroke="none"/>
            <path d="M 1360 73.2919921875 C 1331.77294921875 73.2919921875 1306.02001953125 83.88201904296875 1286.495971679688 101.3040161132812 L 1286.495971679688 101.3089904785156 C 1283.5 104.041015625 1286.183959960938 110.5849914550781 1286.183959960938 110.5849914550781 L 1278.907958984375 116.9349975585938 C 1278.384033203125 116.4250183105469 1277.301025390625 115.6279907226562 1275.52001953125 115.5360107421875 C 1274.018310546875 115.4588012695312 1272.037963867188 116.9650268554688 1271.2060546875 118.0793762207031 L 1271.18798828125 118.1050109863281 L 1271.192993164062 118.0970153808594 C 1271.197265625 118.0911560058594 1271.20166015625 118.0852355957031 1271.2060546875 118.0793762207031 L 1271.260009765625 118.0029907226562 C 1257.636962890625 136.3690185546875 1249.578002929688 159.1100158691406 1249.578002929688 183.7340087890625 L 1249.578002929688 250.6920166015625 L 1249.558959960938 250.6920166015625 L 1249.557006835938 244.9460144042969 C 1239.344970703125 249.5440063476562 1232.235961914062 259.8099975585938 1232.235961914062 271.7350158691406 C 1232.235961914062 283.6589965820312 1239.347045898438 293.9150085449219 1249.556030273438 298.5140075683594 L 1249.552001953125 352.8489990234375 C 1249.552001953125 393.9119873046875 1271.962036132812 429.7380065917969 1305.217041015625 448.7720031738281 C 1309.056030273438 475.4979858398438 1332.036987304688 496.041015625 1359.824951171875 496.041015625 C 1387.5400390625 496.041015625 1410.47705078125 475.6060180664062 1414.405029296875 448.9830017089844 C 1447.866943359375 430.0039978027344 1470.447998046875 394.0660095214844 1470.447998046875 352.8489990234375 L 1470.433959960938 298.5190124511719 C 1480.64794921875 293.9219970703125 1487.764038085938 283.6629943847656 1487.764038085938 271.7350158691406 C 1487.764038085938 259.81201171875 1480.650024414062 249.5630187988281 1470.441040039062 244.9639892578125 L 1470.425048828125 263.3800048828125 L 1470.423950195312 258.5320129394531 L 1470.441040039062 183.7340087890625 C 1470.441040039062 122.739013671875 1420.994995117188 73.2919921875 1360 73.2919921875 M 1282.201049804688 123.1920166015625 L 1296.734985351562 145.5599975585938 C 1291.093994140625 138.7050170898438 1286.215942382812 131.2019958496094 1282.201049804688 123.1920166015625 M 1458.401000976562 250.6880187988281 L 1458.400024414062 250.6880187988281 L 1458.400024414062 155.6990051269531 C 1458.400024414062 155.6990051269531 1457.634033203125 156.2870178222656 1456.235961914062 157.3300170898438 C 1456.961059570312 156.7720031738281 1457.692993164062 156.2220153808594 1458.402954101562 155.64599609375 L 1458.401000976562 250.6880187988281 M 1451.589965820312 160.7369995117188 C 1451.8759765625 160.5390014648438 1452.154052734375 160.3320007324219 1452.43798828125 160.1320190429688 C 1452.208984375 160.2990112304688 1451.974975585938 160.4700012207031 1451.734008789062 160.6449890136719 C 1451.68603515625 160.677001953125 1451.637939453125 160.7050170898438 1451.589965820312 160.7369995117188 M 1326.628051757812 161.0650024414062 C 1328.579956054688 162.3999938964844 1330.577026367188 163.6740112304688 1332.616943359375 164.8840026855469 C 1332.548950195312 164.8450012207031 1332.47802734375 164.8070068359375 1332.411010742188 164.7680053710938 C 1330.420043945312 163.614013671875 1328.494995117188 162.3720092773438 1326.628051757812 161.0650024414062 M 1418.488525390625 176.2395935058594 C 1418.287719726562 176.2990112304688 1418.086669921875 176.3578186035156 1417.884033203125 176.4129943847656 C 1418.08544921875 176.3563232421875 1418.286987304688 176.2982482910156 1418.488525390625 176.2395935058594 C 1418.709838867188 176.1741333007812 1418.9306640625 176.10791015625 1419.152954101562 176.0450134277344 C 1418.931518554688 176.1099243164062 1418.7099609375 176.1751403808594 1418.488525390625 176.2395935058594 M 1389.092895507812 180.4012451171875 C 1381.767822265625 180.4012451171875 1374.667846679688 179.6396179199219 1367.866943359375 178.2720031738281 C 1374.66796875 179.5809936523438 1381.68896484375 180.27099609375 1388.871948242188 180.27099609375 C 1398.583984375 180.27099609375 1408 179.0090026855469 1416.973022460938 176.6549987792969 C 1407.44287109375 179.2490234375 1398.098510742188 180.4012451171875 1389.092895507812 180.4012451171875 M 1360 65.2919921875 C 1425.30859375 65.2919921875 1478.441040039062 118.4248657226562 1478.441040039062 183.7340087890625 L 1478.428100585938 240.206787109375 C 1489.104125976562 246.9974365234375 1495.764038085938 258.8690795898438 1495.764038085938 271.7350158691406 C 1495.764038085938 284.605712890625 1489.108032226562 296.4774780273438 1478.435180664062 303.2687377929688 L 1478.447998046875 352.846923828125 C 1478.447998046875 394.1463012695312 1456.769165039062 432.5626220703125 1421.623901367188 454.0158081054688 C 1415.500122070312 482.79443359375 1389.600830078125 504.041015625 1359.824951171875 504.041015625 C 1329.930053710938 504.041015625 1304.009155273438 482.692138671875 1297.978393554688 453.7762451171875 C 1263.077758789062 432.2817993164062 1241.552001953125 393.9580078125 1241.552001953125 352.8489990234375 L 1241.5556640625 303.2624816894531 C 1230.888916015625 296.4702758789062 1224.235961914062 284.6005554199219 1224.235961914062 271.7350158691406 C 1224.235961914062 258.8598327636719 1230.891357421875 246.9844055175781 1241.561889648438 240.1934814453125 L 1241.578002929688 183.7317504882812 C 1241.578002929688 158.1261291503906 1249.619995117188 133.7486877441406 1264.834716796875 113.2369995117188 C 1264.998901367188 113.0155639648438 1265.172607421875 112.8049621582031 1265.3544921875 112.60546875 C 1267.2373046875 110.4434509277344 1270.940551757812 107.5331420898438 1275.407592773438 107.5331420898438 C 1276.030395507812 107.5630798339844 1276.633056640625 107.6231079101562 1277.215087890625 107.7122192382812 C 1276.66748046875 103.2966918945312 1277.528076171875 98.6600341796875 1281.10546875 95.39776611328125 C 1302.877685546875 75.9635009765625 1330.873779296875 65.2919921875 1360 65.2919921875 Z" stroke="none" fill="#4e342e"/>
          </g>
          <path id="Path_418" data-name="Path 418" d="M1386.914,303.538a5.849,5.849,0,0,1-11.7,0,15.216,15.216,0,0,1-30.432,0,5.849,5.849,0,0,1-11.7,0" fill="none" stroke="#4e342e" stroke-linecap="round" stroke-linejoin="round" stroke-width="6"/>
          <path id="Path_419" data-name="Path 419" d="M1249.557,244.946a29.377,29.377,0,0,0,0,53.579" fill="none" stroke="#4e342e" stroke-linecap="round" stroke-linejoin="round" stroke-width="6"/>
          <path id="Path_420" data-name="Path 420" d="M1469.83,244.679a29.377,29.377,0,0,1,.605,53.849" fill="none" stroke="#4e342e" stroke-linecap="round" stroke-linejoin="round" stroke-width="6"/>
          <path id="Path_421" data-name="Path 421" d="M1286.215,110.664A110.494,110.494,0,0,0,1458.4,155.646" fill="none" stroke="#4e342e" stroke-linecap="round" stroke-linejoin="round" stroke-width="6"/>
          <path id="Path_422" data-name="Path 422" d="M1303.344,110.235a94.6,94.6,0,0,0,153.743,25.09" fill="none" stroke="#4e342e" stroke-linecap="round" stroke-linejoin="round" stroke-width="6"/>
          <path id="Path_423" data-name="Path 423" d="M1325.85,116.962a78.71,78.71,0,0,0,122.226,4.709" fill="none" stroke="#4e342e" stroke-linecap="round" stroke-linejoin="round" stroke-width="6"/>
          <path id="Path_424" data-name="Path 424" d="M1359.092,125.188a62.9,62.9,0,0,0,78.036-15.085" fill="none" stroke="#4e342e" stroke-linecap="round" stroke-linejoin="round" stroke-width="6"/>
          <path id="Path_425" data-name="Path 425" d="M1388.872,116.843a46.922,46.922,0,0,0,35.642-16.346" fill="none" stroke="#4e342e" stroke-linecap="round" stroke-linejoin="round" stroke-width="6"/>
          <path id="Path_426" data-name="Path 426" d="M1272.323,146.5a90.607,90.607,0,0,0,14.968-13.466" fill="none" stroke="#4e342e" stroke-linecap="round" stroke-linejoin="round" stroke-width="6"/>
          <path id="Path_427" data-name="Path 427" d="M1279.548,117.623a119.307,119.307,0,0,0,17.274,28.071l.186.222a110.694,110.694,0,0,1-35.42,24.964,109.625,109.625,0,0,1-10.6,4.048" fill="none" stroke="#4e342e" stroke-linecap="round" stroke-linejoin="round" stroke-width="6"/>
          <path id="Path_428" data-name="Path 428" d="M1249.559,267.012V183.734A109.943,109.943,0,0,1,1271.241,118l-.073.1.006-.008c.824-1.116,2.824-2.639,4.326-2.561a4.908,4.908,0,0,1,3.772,1.829s4.658-4.739,6.912-6.78c0,0-2.684-6.544.312-9.276v0a110.442,110.442,0,0,1,183.945,82.43l-.019,83.278.026,85.837a110.448,110.448,0,0,1-220.9,0Z" fill="none" stroke="#4e342e" stroke-linecap="round" stroke-linejoin="round" stroke-width="6"/>
          <path id="Path_429" data-name="Path 429" d="M1414.394,449.1a55.193,55.193,0,0,1-54.569,46.941h0a55.192,55.192,0,0,1-54.614-47.244" fill="none" stroke="#4e342e" stroke-linecap="round" stroke-linejoin="round" stroke-width="6"/>
          <path id="Path_430" data-name="Path 430" d="M1310.678,331.726a55.245,55.245,0,0,1,23.828-24.375" fill="none" stroke="#4e342e" stroke-linecap="round" stroke-linejoin="round" stroke-width="6"/>
          <path id="Path_431" data-name="Path 431" d="M1409.322,331.726a55.245,55.245,0,0,0-23.828-24.375" fill="none" stroke="#4e342e" stroke-linecap="round" stroke-linejoin="round" stroke-width="6"/>
          <path id="Path_432" data-name="Path 432" d="M1360,318.753c0,23.086-23.733,41.8-53.551,41.8" fill="none" stroke="#4e342e" stroke-linecap="round" stroke-linejoin="round" stroke-width="6"/>
          <path id="Path_433" data-name="Path 433" d="M1360,318.753c0,23.086,23.733,41.8,53.551,41.8" fill="none" stroke="#4e342e" stroke-linecap="round" stroke-linejoin="round" stroke-width="6"/>
          <path id="Path_434" data-name="Path 434" d="M1379.631,351.009c2.883,11.785,7.664,24.124,13.609,27.56a33.333,33.333,0,0,0,14.82-18.008" fill="none" stroke="#4e342e" stroke-linecap="round" stroke-linejoin="round" stroke-width="6"/>
          <path id="Path_435" data-name="Path 435" d="M1311.94,360.561a33.333,33.333,0,0,0,14.82,18.008c5.913-3.417,10.674-15.641,13.562-27.368" fill="none" stroke="#4e342e" stroke-linecap="round" stroke-linejoin="round" stroke-width="6"/>
          <path id="Path_436" data-name="Path 436" d="M1317.635,321.026a48.559,48.559,0,0,1-56.035-48V170.9" fill="none" stroke="#4e342e" stroke-linecap="round" stroke-linejoin="round" stroke-width="6"/>
          <path id="Path_437" data-name="Path 437" d="M1458.4,155.7V273.023a48.557,48.557,0,0,1-56.033,48" fill="none" stroke="#4e342e" stroke-linecap="round" stroke-linejoin="round" stroke-width="6"/>
        </g>
      </g>
    </g>
  </g>
</svg>