<?xml version="1.0" encoding="utf-8"?>
<!-- Uploaded to: SVG Repo, www.svgrepo.com, Generator: SVG Repo Mixer Tools -->
<svg width="800px" height="800px" viewBox="0 0 512 512" xmlns="http://www.w3.org/2000/svg" xmlns:xlink="http://www.w3.org/1999/xlink">
  <defs>
    <clipPath id="clip-Artboard_8">
      <rect width="512" height="512"/>
    </clipPath>
  </defs>
  <g id="Artboard_8" data-name="Artboard 8" clip-path="url(#clip-Artboard_8)">
    <g id="women" transform="translate(-3864)">
      <g id="Group_34" data-name="Group 34">
        <g id="skin-dark">
          <path id="Path_84" data-name="Path 84" d="M4164.47,396.179c17.685-11.91,30.2-28.243,33.944-49.777.035-.205.068-.411.1-.617.083-.5.164-1.005.237-1.512.113-.794.22-1.591.31-2.393,0,0,2.183-19.28,3.983-32.6.747-6.116,1.3-10.636,1.3-10.636l.259-31.7-.06-29.376h-.009l-.648-3.957a54.781,54.781,0,0,1-44.479-50.6,110.573,110.573,0,0,1-68.153,101.7l.249,1.449a111.044,111.044,0,0,1,6.042,67.1,114.108,114.108,0,0,1,2.638,23.489,109.993,109.993,0,0,1-24.934,69.9V451.5a44.536,44.536,0,0,0,44.536,44.537h0a44.658,44.658,0,0,0,44.678-44.537v-5.539h0Z" fill="#8d6e63"/>
          <path id="Path_85" data-name="Path 85" d="M4219.073,307.266V257.079l.849.631a29.362,29.362,0,0,1-.848,49.556Z" fill="#8d6e63"/>
        </g>
        <g id="skin-tanned">
          <path id="Path_86" data-name="Path 86" d="M4164.47,396.179c17.685-11.91,30.2-28.243,33.944-49.777.035-.205.068-.411.1-.617.083-.5.164-1.005.237-1.512.113-.794.22-1.591.31-2.393,0,0,2.183-19.28,3.983-32.6.747-6.116,1.3-10.636,1.3-10.636l.259-31.7-.06-29.376h-.009l-.648-3.957a54.781,54.781,0,0,1-44.479-50.6,110.573,110.573,0,0,1-68.153,101.7l.249,1.449a111.044,111.044,0,0,1,6.042,67.1,114.108,114.108,0,0,1,2.638,23.489,109.993,109.993,0,0,1-24.934,69.9V451.5a44.536,44.536,0,0,0,44.536,44.537h0a44.658,44.658,0,0,0,44.678-44.537v-5.539h0Z" fill="#ffccbc"/>
          <path id="Path_87" data-name="Path 87" d="M4219.073,307.266V257.079l.849.631a29.362,29.362,0,0,1-.848,49.556Z" fill="#ffccbc"/>
        </g>
        <g id="skin-light">
          <g id="Group_22" data-name="Group 22">
            <path id="Path_88" data-name="Path 88" d="M4164.47,396.179c17.685-11.91,30.2-28.243,33.944-49.777.035-.205.068-.411.1-.617.083-.5.164-1.005.237-1.512.113-.794.22-1.591.31-2.393,0,0,2.183-19.28,3.983-32.6.747-6.116,1.3-10.636,1.3-10.636l.259-31.7-.06-29.376h-.009l-.648-3.957a54.781,54.781,0,0,1-44.479-50.6,110.573,110.573,0,0,1-68.153,101.7l.249,1.449a111.044,111.044,0,0,1,6.042,67.1,114.108,114.108,0,0,1,2.638,23.489,109.993,109.993,0,0,1-24.934,69.9V451.5a44.536,44.536,0,0,0,44.536,44.537h0a44.658,44.658,0,0,0,44.678-44.537v-5.539h0Z" fill="#f5e0cd"/>
            <path id="Path_89" data-name="Path 89" d="M4219.073,307.266V257.079l.849.631a29.362,29.362,0,0,1-.848,49.556Z" fill="#f5e0cd"/>
          </g>
          <g id="Group_23" data-name="Group 23">
            <path id="Path_90" data-name="Path 90" d="M4164.47,396.179c17.685-11.91,30.2-28.243,33.944-49.777.035-.205.068-.411.1-.617.083-.5.164-1.005.237-1.512.113-.794.22-1.591.31-2.393,0,0,2.183-19.28,3.983-32.6.747-6.116,1.3-10.636,1.3-10.636l.259-31.7-.06-29.376h-.009l-.648-3.957a54.781,54.781,0,0,1-44.479-50.6,110.573,110.573,0,0,1-68.153,101.7l.249,1.449a111.044,111.044,0,0,1,6.042,67.1,114.108,114.108,0,0,1,2.638,23.489,109.993,109.993,0,0,1-24.934,69.9V451.5a44.536,44.536,0,0,0,44.536,44.537h0a44.658,44.658,0,0,0,44.678-44.537v-5.539h0Z" fill="#fbe9e7"/>
            <path id="Path_91" data-name="Path 91" d="M4219.073,307.266V257.079l.849.631a29.362,29.362,0,0,1-.848,49.556Z" fill="#fbe9e7"/>
          </g>
        </g>
        <g id="shadows_highlights" data-name="shadows/highlights">
          <g id="Group_24" data-name="Group 24">
            <path id="Path_92" data-name="Path 92" d="M4091.255,284.709c40.673-20.533,68.158-59.566,68.158-90.068,0-.778-.014-1.553-.03-2.327l-.08-.52c0,27,19.531,37.431,45.233,41.945" fill="none" stroke="#4e342e" stroke-miterlimit="10" stroke-width="8" style="mix-blend-mode: soft-light;isolation: isolate"/>
            <path id="Path_93" data-name="Path 93" d="M4202.152,335.88c-3.193,28.29-24.192,49.1-49.064,60.484l0,.011c-9.578,9.578-14.848,17.532-33.165,17.532s-23.587-7.954-33.166-17.532l0-.02c-24.862-11.391-45.853-32.192-49.045-60.475" fill="none" stroke="#4e342e" stroke-miterlimit="10" stroke-width="8" style="mix-blend-mode: soft-light;isolation: isolate"/>
            <path id="Path_94" data-name="Path 94" d="M4164.5,402.088c-3.671,2.38-7.493,7.482-11.411,9.276l0,.011c-9.578,9.578-14.848,17.532-33.165,17.532s-23.587-7.954-33.166-17.532l0-.02c-4.09-1.874-8.074-7.083-11.892-9.593" fill="none" stroke="#4e342e" stroke-miterlimit="10" stroke-width="14" style="mix-blend-mode: soft-light;isolation: isolate"/>
            <path id="Path_95" data-name="Path 95" d="M4127.759,323.605a9.64,9.64,0,0,1-15.662,0" fill="none" stroke="#4e342e" stroke-miterlimit="10" stroke-width="8" style="mix-blend-mode: soft-light;isolation: isolate"/>
            <path id="Path_96" data-name="Path 96" d="M4128.543,374.623a11.245,11.245,0,0,1-17.23,0" fill="none" stroke="#4e342e" stroke-miterlimit="10" stroke-width="8" style="mix-blend-mode: soft-light;isolation: isolate"/>
            <path id="Path_97" data-name="Path 97" d="M4219.3,271.5a18.017,18.017,0,0,1,.557,21.6" fill="none" stroke="#4e342e" stroke-miterlimit="10" stroke-width="8" style="mix-blend-mode: soft-light;isolation: isolate"/>
          </g>
          <circle id="Ellipse_29" data-name="Ellipse 29" cx="4" cy="4" r="4" transform="translate(4115.928 303.446)" fill="#ffffff" style="mix-blend-mode: soft-light;isolation: isolate"/>
          <ellipse id="Ellipse_30" data-name="Ellipse 30" cx="7.524" cy="4.314" rx="7.524" ry="4.314" transform="translate(4112.484 391.444)" fill="#ffffff" style="mix-blend-mode: soft-light;isolation: isolate"/>
        </g>
        <g id="Group_25" data-name="Group 25" style="mix-blend-mode: soft-light;isolation: isolate">
          <path id="Path_98" data-name="Path 98" d="M4147.709,269.9a15.707,15.707,0,0,1,31.414,0Z" fill="#5d4037"/>
          <path id="Path_99" data-name="Path 99" d="M4060.732,269.9a15.708,15.708,0,0,1,31.415,0Z" fill="#5d4037"/>
        </g>
        <g id="eyes-green_blue" data-name="eyes-green/blue">
          <g id="Group_26" data-name="Group 26">
            <path id="Path_100" data-name="Path 100" d="M4147.709,269.9a15.707,15.707,0,1,0,31.414,0Z" fill="#ffffff"/>
            <path id="Path_101" data-name="Path 101" d="M4060.732,269.9a15.708,15.708,0,1,0,31.415,0Z" fill="#ffffff"/>
          </g>
          <circle id="Ellipse_31" data-name="Ellipse 31" cx="8.113" cy="8.113" r="8.113" transform="translate(4155.303 261.792)" fill="#00bcd4"/>
          <circle id="Ellipse_32" data-name="Ellipse 32" cx="8.113" cy="8.113" r="8.113" transform="translate(4068.327 261.792)" fill="#00bcd4"/>
          <g id="Group_27" data-name="Group 27">
            <circle id="Ellipse_33" data-name="Ellipse 33" cx="8.113" cy="8.113" r="8.113" transform="translate(4155.303 261.792)" fill="none" stroke="#4e342e" stroke-linecap="round" stroke-linejoin="round" stroke-width="4"/>
            <circle id="Ellipse_34" data-name="Ellipse 34" cx="8.113" cy="8.113" r="8.113" transform="translate(4068.327 261.792)" fill="none" stroke="#4e342e" stroke-linecap="round" stroke-linejoin="round" stroke-width="4"/>
            <path id="Path_102" data-name="Path 102" d="M4099.222,250.616a29.852,29.852,0,0,0-45.565,0" fill="none" stroke="#4e342e" stroke-linecap="round" stroke-linejoin="round" stroke-width="6"/>
            <path id="Path_103" data-name="Path 103" d="M4186.2,250.616a29.852,29.852,0,0,0-45.564,0" fill="none" stroke="#4e342e" stroke-linecap="round" stroke-linejoin="round" stroke-width="6"/>
          </g>
        </g>
        <g id="eyes-brown">
          <g id="Group_28" data-name="Group 28">
            <path id="Path_104" data-name="Path 104" d="M4147.709,269.9a15.707,15.707,0,1,0,31.414,0Z" fill="#ffffff"/>
            <path id="Path_105" data-name="Path 105" d="M4060.732,269.9a15.708,15.708,0,1,0,31.415,0Z" fill="#ffffff"/>
          </g>
          <circle id="Ellipse_35" data-name="Ellipse 35" cx="8.113" cy="8.113" r="8.113" transform="translate(4155.303 261.792)" fill="#795548"/>
          <circle id="Ellipse_36" data-name="Ellipse 36" cx="8.113" cy="8.113" r="8.113" transform="translate(4068.327 261.792)" fill="#795548"/>
          <g id="Group_29" data-name="Group 29">
            <circle id="Ellipse_37" data-name="Ellipse 37" cx="8.113" cy="8.113" r="8.113" transform="translate(4155.303 261.792)" fill="none" stroke="#4e342e" stroke-linecap="round" stroke-linejoin="round" stroke-width="4"/>
            <circle id="Ellipse_38" data-name="Ellipse 38" cx="8.113" cy="8.113" r="8.113" transform="translate(4068.327 261.792)" fill="none" stroke="#4e342e" stroke-linecap="round" stroke-linejoin="round" stroke-width="4"/>
            <path id="Path_106" data-name="Path 106" d="M4099.222,250.616a29.852,29.852,0,0,0-45.565,0" fill="none" stroke="#4e342e" stroke-linecap="round" stroke-linejoin="round" stroke-width="6"/>
            <path id="Path_107" data-name="Path 107" d="M4186.2,250.616a29.852,29.852,0,0,0-45.564,0" fill="none" stroke="#4e342e" stroke-linecap="round" stroke-linejoin="round" stroke-width="6"/>
          </g>
        </g>
        <g id="eyes-dark">
          <g id="Group_30" data-name="Group 30">
            <path id="Path_108" data-name="Path 108" d="M4147.709,269.9a15.707,15.707,0,1,0,31.414,0Z" fill="#ffffff"/>
            <path id="Path_109" data-name="Path 109" d="M4060.732,269.9a15.708,15.708,0,1,0,31.415,0Z" fill="#ffffff"/>
          </g>
          <circle id="Ellipse_39" data-name="Ellipse 39" cx="8.113" cy="8.113" r="8.113" transform="translate(4155.303 261.792)" fill="#5d4037"/>
          <circle id="Ellipse_40" data-name="Ellipse 40" cx="8.113" cy="8.113" r="8.113" transform="translate(4068.327 261.792)" fill="#5d4037"/>
          <g id="Group_31" data-name="Group 31">
            <circle id="Ellipse_41" data-name="Ellipse 41" cx="8.113" cy="8.113" r="8.113" transform="translate(4155.303 261.792)" fill="none" stroke="#4e342e" stroke-linecap="round" stroke-linejoin="round" stroke-width="4"/>
            <circle id="Ellipse_42" data-name="Ellipse 42" cx="8.113" cy="8.113" r="8.113" transform="translate(4068.327 261.792)" fill="none" stroke="#4e342e" stroke-linecap="round" stroke-linejoin="round" stroke-width="4"/>
            <path id="Path_110" data-name="Path 110" d="M4099.222,250.616a29.852,29.852,0,0,0-45.565,0" fill="none" stroke="#4e342e" stroke-linecap="round" stroke-linejoin="round" stroke-width="6"/>
            <path id="Path_111" data-name="Path 111" d="M4186.2,250.616a29.852,29.852,0,0,0-45.564,0" fill="none" stroke="#4e342e" stroke-linecap="round" stroke-linejoin="round" stroke-width="6"/>
          </g>
        </g>
        <path id="hair-black" d="M4219.921,257.71a29.362,29.362,0,0,1-.848,49.556V257.079Zm23.492,102.571V204.215A123.478,123.478,0,0,0,4120.065,80.881h-.13a123.478,123.478,0,0,0-123.348,123.334v156.05h-6.86a7.94,7.94,0,0,0,0,15.88v.036a7.941,7.941,0,0,0,0,15.881v.069a7.936,7.936,0,0,0-1.056,15.8,7.935,7.935,0,0,0,1,15.8,7.939,7.939,0,0,0-7.886,7.938h.028a7.94,7.94,0,0,0,7.94,7.94,7.935,7.935,0,0,0-.4,15.86,7.934,7.934,0,0,0,.347,15.858,7.939,7.939,0,0,0,.048,15.877,110.457,110.457,0,0,0,110.435-110.457,114.108,114.108,0,0,0-2.638-23.489,111.044,111.044,0,0,0-6.042-67.1l-.249-1.449a110.582,110.582,0,0,0,68.158-102.068c0-.778-.014-1.553-.03-2.327l-.08-.52a54.789,54.789,0,0,0,45.233,53.945l.133,64.908c-1.653,8.307-5.607,43.232-5.607,43.233a81.1,81.1,0,0,1-5.1,20.577c-6.022,14.951-16.306,24.842-29.492,33.722l0,49.786a79.242,79.242,0,0,0,7.7,8.888,110.111,110.111,0,0,0,78.083,32.352,7.939,7.939,0,0,0,.048-15.877,7.934,7.934,0,0,0,.347-15.858,7.935,7.935,0,0,0-.4-15.86,7.94,7.94,0,0,0,7.94-7.94h.028a7.939,7.939,0,0,0-7.886-7.938h-6.9Z" fill="#5d4037"/>
        <path id="hair-brown" d="M4219.921,257.71a29.362,29.362,0,0,1-.848,49.556V257.079Zm23.492,102.571V204.215A123.478,123.478,0,0,0,4120.065,80.881h-.13a123.478,123.478,0,0,0-123.348,123.334v156.05h-6.86a7.94,7.94,0,0,0,0,15.88v.036a7.941,7.941,0,0,0,0,15.881v.069a7.936,7.936,0,0,0-1.056,15.8,7.935,7.935,0,0,0,1,15.8,7.939,7.939,0,0,0-7.886,7.938h.028a7.94,7.94,0,0,0,7.94,7.94,7.935,7.935,0,0,0-.4,15.86,7.934,7.934,0,0,0,.347,15.858,7.939,7.939,0,0,0,.048,15.877,110.457,110.457,0,0,0,110.435-110.457,114.108,114.108,0,0,0-2.638-23.489,111.044,111.044,0,0,0-6.042-67.1l-.249-1.449a110.582,110.582,0,0,0,68.158-102.068c0-.778-.014-1.553-.03-2.327l-.08-.52a54.789,54.789,0,0,0,45.233,53.945l.133,64.908c-1.653,8.307-5.607,43.232-5.607,43.233a81.1,81.1,0,0,1-5.1,20.577c-6.022,14.951-16.306,24.842-29.492,33.722l0,49.786a79.242,79.242,0,0,0,7.7,8.888,110.111,110.111,0,0,0,78.083,32.352,7.939,7.939,0,0,0,.048-15.877,7.934,7.934,0,0,0,.347-15.858,7.935,7.935,0,0,0-.4-15.86,7.94,7.94,0,0,0,7.94-7.94h.028a7.939,7.939,0,0,0-7.886-7.938h-6.9Z" fill="#795548"/>
        <path id="hair-blonde" d="M4219.921,257.71a29.362,29.362,0,0,1-.848,49.556V257.079Zm23.492,102.571V204.215A123.478,123.478,0,0,0,4120.065,80.881h-.13a123.478,123.478,0,0,0-123.348,123.334v156.05h-6.86a7.94,7.94,0,0,0,0,15.88v.036a7.941,7.941,0,0,0,0,15.881v.069a7.936,7.936,0,0,0-1.056,15.8,7.935,7.935,0,0,0,1,15.8,7.939,7.939,0,0,0-7.886,7.938h.028a7.94,7.94,0,0,0,7.94,7.94,7.935,7.935,0,0,0-.4,15.86,7.934,7.934,0,0,0,.347,15.858,7.939,7.939,0,0,0,.048,15.877,110.457,110.457,0,0,0,110.435-110.457,114.108,114.108,0,0,0-2.638-23.489,111.044,111.044,0,0,0-6.042-67.1l-.249-1.449a110.582,110.582,0,0,0,68.158-102.068c0-.778-.014-1.553-.03-2.327l-.08-.52a54.789,54.789,0,0,0,45.233,53.945l.133,64.908c-1.653,8.307-5.607,43.232-5.607,43.233a81.1,81.1,0,0,1-5.1,20.577c-6.022,14.951-16.306,24.842-29.492,33.722l0,49.786a79.242,79.242,0,0,0,7.7,8.888,110.111,110.111,0,0,0,78.083,32.352,7.939,7.939,0,0,0,.048-15.877,7.934,7.934,0,0,0,.347-15.858,7.935,7.935,0,0,0-.4-15.86,7.94,7.94,0,0,0,7.94-7.94h.028a7.939,7.939,0,0,0-7.886-7.938h-6.9Z" fill="#ffd600"/>
        <path id="hair-grey" d="M4219.921,257.71a29.362,29.362,0,0,1-.848,49.556V257.079Zm23.492,102.571V204.215A123.478,123.478,0,0,0,4120.065,80.881h-.13a123.478,123.478,0,0,0-123.348,123.334v156.05h-6.86a7.94,7.94,0,0,0,0,15.88v.036a7.941,7.941,0,0,0,0,15.881v.069a7.936,7.936,0,0,0-1.056,15.8,7.935,7.935,0,0,0,1,15.8,7.939,7.939,0,0,0-7.886,7.938h.028a7.94,7.94,0,0,0,7.94,7.94,7.935,7.935,0,0,0-.4,15.86,7.934,7.934,0,0,0,.347,15.858,7.939,7.939,0,0,0,.048,15.877,110.457,110.457,0,0,0,110.435-110.457,114.108,114.108,0,0,0-2.638-23.489,111.044,111.044,0,0,0-6.042-67.1l-.249-1.449a110.582,110.582,0,0,0,68.158-102.068c0-.778-.014-1.553-.03-2.327l-.08-.52a54.789,54.789,0,0,0,45.233,53.945l.133,64.908c-1.653,8.307-5.607,43.232-5.607,43.233a81.1,81.1,0,0,1-5.1,20.577c-6.022,14.951-16.306,24.842-29.492,33.722l0,49.786a79.242,79.242,0,0,0,7.7,8.888,110.111,110.111,0,0,0,78.083,32.352,7.939,7.939,0,0,0,.048-15.877,7.934,7.934,0,0,0,.347-15.858,7.935,7.935,0,0,0-.4-15.86,7.94,7.94,0,0,0,7.94-7.94h.028a7.939,7.939,0,0,0-7.886-7.938h-6.9Z" fill="#bdbdbd"/>
        <g id="Group_32" data-name="Group 32" opacity="0.8" style="mix-blend-mode: overlay;isolation: isolate">
          <path id="Path_112" data-name="Path 112" d="M4074.686,386.438A102.746,102.746,0,0,0,4090.1,308.5" fill="none" stroke="#ffffff" stroke-linecap="round" stroke-miterlimit="10" stroke-width="6"/>
          <path id="Path_113" data-name="Path 113" d="M4051.052,390.478a86.85,86.85,0,0,0,18.586-27.567,86.068,86.068,0,0,0,5.054-16.28,87.127,87.127,0,0,0,1.762-17.478" fill="none" stroke="#ffffff" stroke-linecap="round" stroke-miterlimit="10" stroke-width="6"/>
          <path id="Path_114" data-name="Path 114" d="M4029.285,387.821a70.969,70.969,0,0,0,25.634-31.128,70.189,70.189,0,0,0,4.122-13.281" fill="none" stroke="#ffffff" stroke-linecap="round" stroke-miterlimit="10" stroke-width="6"/>
          <path id="Path_115" data-name="Path 115" d="M4011.095,379.735a55.064,55.064,0,0,0,29.214-29.214" fill="none" stroke="#ffffff" stroke-linecap="round" stroke-miterlimit="10" stroke-width="6"/>
          <path id="Path_116" data-name="Path 116" d="M3997.578,367.317a38.762,38.762,0,0,0,13.929-5.861,39.235,39.235,0,0,0,5.766-4.757" fill="none" stroke="#ffffff" stroke-linecap="round" stroke-miterlimit="10" stroke-width="6"/>
        </g>
        <g id="Group_33" data-name="Group 33" opacity="0.8" style="mix-blend-mode: overlay;isolation: isolate">
          <path id="Path_117" data-name="Path 117" d="M4143.361,222.522a101.705,101.705,0,0,0,5.97-19.232,103.432,103.432,0,0,0,0-41.3,101.914,101.914,0,0,0-15.416-36.637,103.031,103.031,0,0,0-12.511-15.163" fill="none" stroke="#ffffff" stroke-linecap="round" stroke-miterlimit="10" stroke-width="6"/>
          <path id="Path_118" data-name="Path 118" d="M4133.92,200.12a87.562,87.562,0,0,0,0-34.957,86.236,86.236,0,0,0-13.049-31.012" fill="none" stroke="#ffffff" stroke-linecap="round" stroke-miterlimit="10" stroke-width="6"/>
          <path id="Path_119" data-name="Path 119" d="M4119.707,182.641a71.117,71.117,0,0,0-1.437-14.259,70.285,70.285,0,0,0-4.123-13.281" fill="none" stroke="#ffffff" stroke-linecap="round" stroke-miterlimit="10" stroke-width="6"/>
        </g>
        <path id="Path_120" data-name="Path 120" d="M4258.185,447.55a7.94,7.94,0,0,0-7.94-7.94h.022a62.861,62.861,0,0,1-62.83-62.861v-2.124c-5.921,8.608-13.728,15.333-22.967,21.555l0,49.786a79.242,79.242,0,0,0,7.7,8.888,110.111,110.111,0,0,0,78.083,32.352,7.939,7.939,0,0,0,.048-15.877,7.934,7.934,0,0,0,.347-15.858A7.933,7.933,0,0,0,4258.185,447.55Z" fill="#5d4037"/>
        <g id="lines">
          <g id="Path_121" data-name="Path 121" fill="none" stroke-miterlimit="10">
            <path d="M4250.327,423.732h-6.9l-.015-63.451V204.215A123.478,123.478,0,0,0,4120.065,80.881h-.13a123.478,123.478,0,0,0-123.348,123.334v156.05h-6.914a7.935,7.935,0,0,0-.4,15.86l.483.017a7.935,7.935,0,0,0-.4,15.861,7.933,7.933,0,0,0,.347,15.857,7.939,7.939,0,0,0,.048,15.878l-.076-.006a7.935,7.935,0,0,0-.4,15.861l.483.017a7.935,7.935,0,0,0-.4,15.86,7.934,7.934,0,0,0,.347,15.858,7.939,7.939,0,0,0,.048,15.877,110.112,110.112,0,0,0,78.083-32.352q3.91-3.91,7.418-8.2V451.5a44.536,44.536,0,0,0,44.536,44.537h0a44.658,44.658,0,0,0,44.678-44.537v-5.539a79.134,79.134,0,0,0,7.7,8.888,110.111,110.111,0,0,0,78.083,32.352,7.939,7.939,0,0,0,.048-15.877,7.934,7.934,0,0,0,.347-15.858,7.935,7.935,0,0,0-.4-15.86l.483-.017a7.935,7.935,0,0,0-.4-15.861Z" stroke="none"/>
            <path d="M 4119.7880859375 496.0409545898438 C 4144.384765625 496.0409545898438 4164.4658203125 476.1010437011719 4164.4658203125 451.5040283203125 L 4164.466796875 445.9650268554688 C 4167.31787109375 449.6400451660156 4168.8837890625 451.5690307617188 4172.16796875 454.85302734375 C 4192.15185546875 474.8370361328125 4219.7578125 487.1990356445312 4250.2509765625 487.2049560546875 C 4254.6328125 487.2020263671875 4258.18505859375 483.6489562988281 4258.18505859375 479.2650451660156 C 4258.18505859375 474.8980407714844 4254.6591796875 471.3569641113281 4250.298828125 471.3280334472656 C 4254.6591796875 471.2980346679688 4258.18505859375 467.7569580078125 4258.18505859375 463.3900451660156 C 4258.18505859375 459.1400451660156 4254.84423828125 455.6799621582031 4250.64599609375 455.4700317382812 C 4254.84423828125 455.2600402832031 4258.18505859375 451.7999572753906 4258.18505859375 447.5499572753906 C 4258.18505859375 443.1650390625 4254.6298828125 439.6099548339844 4250.2451171875 439.6099548339844 L 4250.72802734375 439.5929565429688 C 4254.9248046875 439.3819580078125 4258.26708984375 435.9219665527344 4258.26708984375 431.6730346679688 C 4258.26708984375 427.2869567871094 4254.7119140625 423.7319641113281 4250.3271484375 423.7319641113281 L 4243.42822265625 423.7319641113281 L 4243.4130859375 301.0299682617188 L 4243.4130859375 204.2149658203125 C 4243.3349609375 136.1290435791016 4188.15283203125 80.95096588134766 4120.06494140625 80.88104248046875 L 4119.93505859375 80.88104248046875 C 4051.846923828125 80.95096588134766 3996.6650390625 136.1290435791016 3996.5869140625 204.2149658203125 L 3996.5869140625 360.2650451660156 L 3989.673095703125 360.2650451660156 C 3985.2880859375 360.2650451660156 3981.73291015625 363.8200378417969 3981.73291015625 368.2049560546875 C 3981.73291015625 372.4549560546875 3985.074951171875 375.9150390625 3989.27197265625 376.1250305175781 L 3989.7548828125 376.1419677734375 C 3985.3701171875 376.1419677734375 3981.81494140625 379.6969604492188 3981.81494140625 384.0830383300781 C 3981.81494140625 388.3330383300781 3985.156005859375 391.7930297851562 3989.35400390625 392.0029602050781 C 3985.156005859375 392.2130432128906 3981.81494140625 395.6730346679688 3981.81494140625 399.9230346679688 C 3981.81494140625 404.2900390625 3985.341064453125 407.8309631347656 3989.700927734375 407.8599548339844 C 3985.341064453125 407.8890380859375 3981.81494140625 411.4299621582031 3981.81494140625 415.7980346679688 C 3981.81494140625 420.0967712402344 3985.2314453125 423.5971069335938 3989.4970703125 423.73388671875 C 3989.5556640625 423.7326049804688 3989.6142578125 423.7319641113281 3989.673095703125 423.7319641113281 L 3989.7490234375 423.738037109375 C 3989.664794921875 423.7379760742188 3989.58056640625 423.736572265625 3989.4970703125 423.73388671875 C 3985.193359375 423.8275756835938 3981.73291015625 427.3458557128906 3981.73291015625 431.6730346679688 C 3981.73291015625 435.9219665527344 3985.074951171875 439.3819580078125 3989.27197265625 439.5929565429688 L 3989.7548828125 439.6099548339844 C 3985.3701171875 439.6099548339844 3981.81494140625 443.1650390625 3981.81494140625 447.5499572753906 C 3981.81494140625 451.7999572753906 3985.156005859375 455.2600402832031 3989.35400390625 455.4700317382812 C 3985.156005859375 455.6799621582031 3981.81494140625 459.1400451660156 3981.81494140625 463.3900451660156 C 3981.81494140625 467.7569580078125 3985.341064453125 471.2980346679688 3989.700927734375 471.3280334472656 C 3985.341064453125 471.3569641113281 3981.81494140625 474.8980407714844 3981.81494140625 479.2650451660156 C 3981.81494140625 483.6489562988281 3985.366943359375 487.2020263671875 3989.7490234375 487.2049560546875 C 4020.241943359375 487.1990356445312 4047.847900390625 474.8370361328125 4067.83203125 454.85302734375 C 4070.43896484375 452.2460327148438 4072.9130859375 449.5060424804688 4075.25 446.6499633789062 L 4075.2509765625 451.5040283203125 C 4075.2509765625 476.1010437011719 4095.18994140625 496.0409545898438 4119.787109375 496.0409545898438 L 4119.7880859375 496.0409545898438 M 4119.7880859375 504.0409545898438 C 4095.416259765625 504.0409545898438 4074.86669921875 487.357666015625 4068.95849609375 464.8128967285156 C 4047.181884765625 484.4521484375 4019.291748046875 495.19921875 3989.75048828125 495.2049560546875 C 3980.96044921875 495.1990966796875 3973.81494140625 488.0484619140625 3973.81494140625 479.2650451660156 C 3973.81494140625 476.38037109375 3974.590576171875 473.6679992675781 3975.9443359375 471.3273010253906 C 3974.59033203125 468.9864501953125 3973.81494140625 466.2747192382812 3973.81494140625 463.3900451660156 C 3973.81494140625 460.5111999511719 3974.578125 457.8058776855469 3975.917724609375 455.469970703125 C 3974.578125 453.1340942382812 3973.81494140625 450.4287414550781 3973.81494140625 447.5499572753906 C 3973.81494140625 444.6847229003906 3974.574462890625 441.994140625 3975.9033203125 439.6681518554688 C 3974.5126953125 437.3144836425781 3973.73291015625 434.5821838378906 3973.73291015625 431.6730346679688 C 3973.73291015625 428.7884826660156 3974.51953125 426.0674743652344 3975.889404296875 423.7173156738281 C 3974.56884765625 421.3877563476562 3973.81494140625 418.6848754882812 3973.81494140625 415.7980346679688 C 3973.81494140625 412.9132690429688 3974.59033203125 410.2010803222656 3975.944091796875 407.8602905273438 C 3974.59033203125 405.5196228027344 3973.81494140625 402.8076477050781 3973.81494140625 399.9230346679688 C 3973.81494140625 397.0443115234375 3974.578125 394.3389282226562 3975.917724609375 392.0030517578125 C 3974.578125 389.6671752929688 3973.81494140625 386.9618530273438 3973.81494140625 384.0830383300781 C 3973.81494140625 381.2181701660156 3974.574951171875 378.5267639160156 3975.9033203125 376.200927734375 C 3974.512939453125 373.8472900390625 3973.73291015625 371.1143188476562 3973.73291015625 368.2049560546875 C 3973.73291015625 359.7804870605469 3980.3017578125 352.8614807128906 3988.5869140625 352.3016357421875 L 3988.5869140625 204.2149658203125 C 3988.669921875 131.8674011230469 4047.5888671875 72.955322265625 4119.9267578125 72.88104248046875 C 4192.4111328125 72.955322265625 4251.330078125 131.8674011230469 4251.4130859375 204.2058258056641 L 4251.4130859375 360.2810363769531 L 4251.42626953125 415.7694702148438 C 4259.70458984375 416.3362731933594 4266.26708984375 423.2527465820312 4266.26708984375 431.6730346679688 C 4266.26708984375 434.5910034179688 4265.482421875 437.3311157226562 4264.1083984375 439.688720703125 C 4265.4296875 442.0099487304688 4266.18505859375 444.6933288574219 4266.18505859375 447.5499572753906 C 4266.18505859375 450.4287414550781 4265.421875 453.1340942382812 4264.08251953125 455.469970703125 C 4265.421875 457.8058776855469 4266.18505859375 460.5111999511719 4266.18505859375 463.3900451660156 C 4266.18505859375 466.2747192382812 4265.40966796875 468.9864196777344 4264.0556640625 471.3273010253906 C 4265.4091796875 473.6679992675781 4266.18505859375 476.38037109375 4266.18505859375 479.2650451660156 C 4266.18505859375 488.0484619140625 4259.03955078125 495.1990966796875 4250.25634765625 495.2049560546875 C 4220.6025390625 495.19921875 4192.61962890625 484.3764953613281 4170.80908203125 464.6025390625 C 4164.95849609375 487.25341796875 4144.30126953125 504.0409545898438 4119.7880859375 504.0409545898438 Z" stroke="none" fill="#4e342e"/>
          </g>
          <path id="Path_122" data-name="Path 122" d="M4075.247,447.116l0,4.388a44.537,44.537,0,0,0,44.537,44.537h.142a44.536,44.536,0,0,0,44.536-44.537l0-55.325" fill="none" stroke="#4e342e" stroke-linecap="round" stroke-miterlimit="10" stroke-width="6"/>
          <path id="Path_123" data-name="Path 123" d="M4204.536,234.567l-.191,64.08-5.193,43.233c-3.193,28.29-21.192,49.1-46.064,60.484l0,.011c-9.578,9.578-14.848,17.532-33.165,17.532-11.247,0-17.575-3-23-7.531" fill="none" stroke="#4e342e" stroke-linecap="round" stroke-miterlimit="10" stroke-width="6"/>
          <path id="Path_124" data-name="Path 124" d="M4130.144,371.554a13.716,13.716,0,0,1-19.4,0" fill="none" stroke="#4e342e" stroke-linecap="round" stroke-miterlimit="10" stroke-width="6"/>
          <path id="Path_125" data-name="Path 125" d="M4097.835,355.914c5.967-.943,8.818-4.066,12.846-4.066,3.566,0,7.123,3.639,9.247,6.77,2.124-3.131,5.681-6.77,9.247-6.77,5.93,0,9.98,6.77,23.837,3.385" fill="none" stroke="#4e342e" stroke-linecap="round" stroke-miterlimit="10" stroke-width="6"/>
          <path id="Path_126" data-name="Path 126" d="M4219.073,308.065a29.373,29.373,0,0,0,2.213-50.355l-2.214-1.646Z" fill="none" stroke="#4e342e" stroke-linecap="round" stroke-miterlimit="10" stroke-width="6"/>
          <path id="Path_127" data-name="Path 127" d="M4129.626,319.588a13.716,13.716,0,0,1-19.4,0" fill="none" stroke="#4e342e" stroke-linecap="round" stroke-miterlimit="10" stroke-width="6"/>
          <path id="Path_128" data-name="Path 128" d="M4172.791,390.478A78.726,78.726,0,0,0,4250.3,455.45" fill="none" stroke="#4e342e" stroke-linecap="round" stroke-miterlimit="10" stroke-width="6"/>
          <path id="Path_129" data-name="Path 129" d="M4250.3,439.61a62.862,62.862,0,0,1-62.862-62.862v-2.482" fill="none" stroke="#4e342e" stroke-linecap="round" stroke-miterlimit="10" stroke-width="6"/>
          <path id="Path_130" data-name="Path 130" d="M4164.466,445.965a79.242,79.242,0,0,0,7.7,8.888,110.111,110.111,0,0,0,78.083,32.352,7.939,7.939,0,0,0,.048-15.877,7.934,7.934,0,0,0,.347-15.858,7.935,7.935,0,0,0-.4-15.86,7.94,7.94,0,0,0,7.94-7.94h.028a7.939,7.939,0,0,0-7.886-7.938l-.028.044a47.028,47.028,0,0,1-47.028-47.028v-69.3" fill="none" stroke="#4e342e" stroke-linecap="round" stroke-miterlimit="10" stroke-width="6"/>
          <path id="Path_131" data-name="Path 131" d="M4164.466,416.52a94.689,94.689,0,0,0,85.833,54.805" fill="none" stroke="#4e342e" stroke-linecap="round" stroke-miterlimit="10" stroke-width="6"/>
          <path id="Path_132" data-name="Path 132" d="M4159.413,182.641a110.113,110.113,0,0,0-32.353-78.105" fill="none" stroke="#4e342e" stroke-linecap="round" stroke-miterlimit="10" stroke-width="6"/>
          <path id="Path_133" data-name="Path 133" d="M4048.955,293.1a110.458,110.458,0,0,0,110.458-110.457" fill="none" stroke="#4e342e" stroke-linecap="round" stroke-miterlimit="10" stroke-width="6"/>
          <path id="Path_134" data-name="Path 134" d="M4143.532,182.641a94.963,94.963,0,0,0-1.921-19.06,94.046,94.046,0,0,0-14.231-33.818" fill="none" stroke="#4e342e" stroke-linecap="round" stroke-miterlimit="10" stroke-width="6"/>
          <path id="Path_135" data-name="Path 135" d="M4068.016,275.3a94.031,94.031,0,0,0,33.818-14.23,94.86,94.86,0,0,0,34.266-41.611,93.87,93.87,0,0,0,5.511-17.753,94.98,94.98,0,0,0,1.921-19.061" fill="none" stroke="#4e342e" stroke-linecap="round" stroke-miterlimit="10" stroke-width="6"/>
          <path id="Path_136" data-name="Path 136" d="M4127.657,182.641a79.021,79.021,0,0,0-1.6-15.861,78.079,78.079,0,0,0-4.586-14.773" fill="none" stroke="#4e342e" stroke-linecap="round" stroke-miterlimit="10" stroke-width="6"/>
          <path id="Path_137" data-name="Path 137" d="M4079.59,255.158a78.606,78.606,0,0,0,48.067-72.517" fill="none" stroke="#4e342e" stroke-linecap="round" stroke-miterlimit="10" stroke-width="6"/>
          <path id="Path_138" data-name="Path 138" d="M4111.817,182.641a63.191,63.191,0,0,0-1.277-12.669" fill="none" stroke="#4e342e" stroke-linecap="round" stroke-miterlimit="10" stroke-width="6"/>
          <path id="Path_139" data-name="Path 139" d="M4084.1,234.767a63.046,63.046,0,0,0,22.775-27.657,62.349,62.349,0,0,0,3.663-11.8,63.176,63.176,0,0,0,1.277-12.669" fill="none" stroke="#4e342e" stroke-linecap="round" stroke-miterlimit="10" stroke-width="6"/>
          <path id="Path_140" data-name="Path 140" d="M4033.06,347.459a46.986,46.986,0,0,1-43.333,28.722,7.941,7.941,0,0,0,0,15.881" fill="none" stroke="#4e342e" stroke-linecap="round" stroke-miterlimit="10" stroke-width="6"/>
          <path id="Path_141" data-name="Path 141" d="M4011.726,351.152a31.015,31.015,0,0,1-22,9.113,7.94,7.94,0,0,0,0,15.88" fill="none" stroke="#4e342e" stroke-linecap="round" stroke-miterlimit="10" stroke-width="6"/>
          <path id="Path_142" data-name="Path 142" d="M4075.759,289.814q.575,1.254,1.112,2.526a93.861,93.861,0,0,1,5.511,17.753,95.474,95.474,0,0,1,0,38.12,94.067,94.067,0,0,1-14.231,33.819A94.847,94.847,0,0,1,4026.54,416.3a93.847,93.847,0,0,1-17.753,5.511l-1.579.309a95.077,95.077,0,0,1-17.481,1.613,7.94,7.94,0,0,0,0,15.88A110.518,110.518,0,0,0,4091.5,286.158" fill="none" stroke="#4e342e" stroke-linecap="round" stroke-miterlimit="10" stroke-width="6"/>
          <path id="Path_143" data-name="Path 143" d="M3989.727,423.735a7.94,7.94,0,0,1,0-15.88,78.425,78.425,0,0,0,31.9-6.731l-1.261.546a78.747,78.747,0,0,0,41.883-103.151" fill="none" stroke="#4e342e" stroke-linecap="round" stroke-miterlimit="10" stroke-width="6"/>
          <path id="Path_144" data-name="Path 144" d="M3989.727,408.011a7.94,7.94,0,0,1,0-15.88v-.116a62.918,62.918,0,0,0,61.585-75.531" fill="none" stroke="#4e342e" stroke-linecap="round" stroke-miterlimit="10" stroke-width="6"/>
          <path id="Path_145" data-name="Path 145" d="M4083.658,387.859a94.6,94.6,0,0,1-93.931,83.466h.028a7.94,7.94,0,0,0,0,15.88h-.028a110.555,110.555,0,0,0,107.887-134.256" fill="none" stroke="#4e342e" stroke-linecap="round" stroke-miterlimit="10" stroke-width="6"/>
          <path id="Path_146" data-name="Path 146" d="M3989.755,471.33a7.94,7.94,0,0,1,0-15.88h-.028a78.8,78.8,0,0,0,68.2-39.4" fill="none" stroke="#4e342e" stroke-linecap="round" stroke-miterlimit="10" stroke-width="6"/>
          <path id="Path_147" data-name="Path 147" d="M3989.755,455.491a7.941,7.941,0,0,1,0-15.881h-.028" fill="none" stroke="#4e342e" stroke-linecap="round" stroke-miterlimit="10" stroke-width="6"/>
          <line id="Line_3" data-name="Line 3" y2="160.643" transform="translate(4219.073 251.258)" fill="none" stroke="#4e342e" stroke-linecap="round" stroke-miterlimit="10" stroke-width="6"/>
          <path id="Path_148" data-name="Path 148" d="M4159.413,182.641a51.925,51.925,0,0,0,51.925,51.926h15.438" fill="none" stroke="#4e342e" stroke-linecap="round" stroke-miterlimit="10" stroke-width="6"/>
          <path id="Path_149" data-name="Path 149" d="M4172.491,182.641a38.847,38.847,0,0,0,38.847,38.847" fill="none" stroke="#4e342e" stroke-linecap="round" stroke-miterlimit="10" stroke-width="6"/>
          <path id="Path_150" data-name="Path 150" d="M4243.428,423.732l-.015-219.517A123.478,123.478,0,0,0,4120.065,80.881h-.13a123.478,123.478,0,0,0-123.348,123.334V358.75" fill="none" stroke="#4e342e" stroke-linecap="round" stroke-miterlimit="10" stroke-width="6"/>
        </g>
      </g>
    </g>
  </g>
</svg>