<?xml version="1.0" encoding="utf-8"?>
<!-- Uploaded to: SVG Repo, www.svgrepo.com, Generator: SVG Repo Mixer Tools -->
<svg width="800px" height="800px" viewBox="0 0 512 512" xmlns="http://www.w3.org/2000/svg" xmlns:xlink="http://www.w3.org/1999/xlink">
  <defs>
    <clipPath id="clip-Artboard_4">
      <rect width="512" height="512"/>
    </clipPath>
  </defs>
  <g id="Artboard_4" data-name="Artboard 4" clip-path="url(#clip-Artboard_4)">
    <g id="men" transform="translate(-1656)">
      <g id="Group_76" data-name="Group 76">
        <path id="skin-dark" d="M2022.441,244.964l-.019,22.048a12.021,12.021,0,0,1-12.022,12.022v-56.72s0-79-43.044-79H1856.644c-41.168,0-42.962,72.251-43.04,78.55l-.009,0-.015,57.164a12.021,12.021,0,0,1-12.021-12.022V244.955l0-.009A29.37,29.37,0,0,0,1813.6,301.1v18.05a98.31,98.31,0,0,0,44.6,82.393h-1.552V440.86a55.18,55.18,0,0,0,55.181,55.181h0a55.18,55.18,0,0,0,55.18-55.181V401.543h-1.2a98.31,98.31,0,0,0,44.6-82.393V301.1a29.358,29.358,0,0,0,12.041-56.136Z" fill="#8d6e63"/>
        <path id="skin-tanned" d="M2022.441,244.964l-.019,22.048a12.021,12.021,0,0,1-12.022,12.022v-56.72s0-79-43.044-79H1856.644c-41.168,0-42.962,72.251-43.04,78.55l-.009,0-.015,57.164a12.021,12.021,0,0,1-12.021-12.022V244.955l0-.009A29.37,29.37,0,0,0,1813.6,301.1v18.05a98.31,98.31,0,0,0,44.6,82.393h-1.552V440.86a55.18,55.18,0,0,0,55.181,55.181h0a55.18,55.18,0,0,0,55.18-55.181V401.543h-1.2a98.31,98.31,0,0,0,44.6-82.393V301.1a29.358,29.358,0,0,0,12.041-56.136Z" fill="#ffccbc"/>
        <path id="skin-light" d="M2022.441,244.964l-.019,22.048a12.021,12.021,0,0,1-12.022,12.022v-56.72s0-79-43.044-79H1856.644c-41.168,0-42.962,72.251-43.04,78.55l-.009,0-.015,57.164a12.021,12.021,0,0,1-12.021-12.022V244.955l0-.009A29.37,29.37,0,0,0,1813.6,301.1v18.05a98.31,98.31,0,0,0,44.6,82.393h-1.552V440.86a55.18,55.18,0,0,0,55.181,55.181h0a55.18,55.18,0,0,0,55.18-55.181V401.543h-1.2a98.31,98.31,0,0,0,44.6-82.393V301.1a29.358,29.358,0,0,0,12.041-56.136Z" fill="#fbe9e7"/>
        <g id="shadows_highlights" data-name="shadows/highlights">
          <g id="Group_68" data-name="Group 68" style="mix-blend-mode: soft-light;isolation: isolate">
            <path id="Path_361" data-name="Path 361" d="M1854.758,408.189a98.221,98.221,0,0,0,22.495,12.043c6.628,6.487,2.914,15.318,34.747,15.318s28.119-8.831,34.747-15.318a98.176,98.176,0,0,0,22.7-12.194" fill="none" stroke="#4e342e" stroke-miterlimit="10" stroke-width="14"/>
            <path id="Path_362" data-name="Path 362" d="M1811,313.15c0,42.111,29.057,78.038,66.253,92.082,6.628,6.487,2.914,15.318,34.747,15.318s28.119-8.831,34.747-15.318c37.2-14.044,66.253-49.971,66.253-92.082" fill="none" stroke="#4e342e" stroke-miterlimit="10" stroke-width="8"/>
            <path id="Path_363" data-name="Path 363" d="M1931.914,306.818a19.914,19.914,0,1,1-39.828,0" fill="none" stroke="#4e342e" stroke-miterlimit="10" stroke-width="8"/>
            <path id="Path_364" data-name="Path 364" d="M2022.448,258.793a18.016,18.016,0,0,1,2.639,23.817" fill="none" stroke="#4e342e" stroke-linecap="round" stroke-miterlimit="10" stroke-width="8"/>
            <path id="Path_365" data-name="Path 365" d="M1801.559,258.793a18.012,18.012,0,0,0-2.639,23.817" fill="none" stroke="#4e342e" stroke-linecap="round" stroke-miterlimit="10" stroke-width="8"/>
          </g>
          <circle id="Ellipse_86" data-name="Ellipse 86" cx="6.25" cy="6.25" r="6.25" transform="translate(1905.75 292.458)" fill="#ffffff" style="mix-blend-mode: soft-light;isolation: isolate"/>
        </g>
        <g id="Group_69" data-name="Group 69" style="mix-blend-mode: soft-light;isolation: isolate">
          <path id="Path_366" data-name="Path 366" d="M1943.656,247.216a15.708,15.708,0,0,1,31.415,0Z" fill="#5d4037"/>
          <path id="Path_367" data-name="Path 367" d="M1848.68,247.216a15.707,15.707,0,1,1,31.414,0Z" fill="#5d4037"/>
        </g>
        <g id="eyes-green_blue" data-name="eyes-green/blue">
          <g id="Group_70" data-name="Group 70">
            <path id="Path_368" data-name="Path 368" d="M1943.656,247.216a15.708,15.708,0,0,0,31.415,0Z" fill="#ffffff"/>
            <path id="Path_369" data-name="Path 369" d="M1848.68,247.216a15.707,15.707,0,1,0,31.414,0Z" fill="#ffffff"/>
          </g>
          <circle id="Ellipse_87" data-name="Ellipse 87" cx="8.113" cy="8.113" r="8.113" transform="translate(1951.251 239.103)" fill="#00bcd4"/>
          <circle id="Ellipse_88" data-name="Ellipse 88" cx="8.113" cy="8.113" r="8.113" transform="translate(1856.274 239.103)" fill="#00bcd4"/>
          <g id="Group_71" data-name="Group 71">
            <circle id="Ellipse_89" data-name="Ellipse 89" cx="8.113" cy="8.113" r="8.113" transform="translate(1951.251 239.103)" fill="none" stroke="#4e342e" stroke-linecap="round" stroke-linejoin="round" stroke-width="4"/>
            <circle id="Ellipse_90" data-name="Ellipse 90" cx="8.113" cy="8.113" r="8.113" transform="translate(1856.274 239.103)" fill="none" stroke="#4e342e" stroke-linecap="round" stroke-linejoin="round" stroke-width="4"/>
            <path id="Path_370" data-name="Path 370" d="M1887.169,227.928a29.851,29.851,0,0,0-45.564,0" fill="none" stroke="#4e342e" stroke-linecap="round" stroke-linejoin="round" stroke-width="6"/>
            <path id="Path_371" data-name="Path 371" d="M1982.146,227.928a29.852,29.852,0,0,0-45.565,0" fill="none" stroke="#4e342e" stroke-linecap="round" stroke-linejoin="round" stroke-width="6"/>
          </g>
        </g>
        <g id="eyes-brown">
          <g id="Group_72" data-name="Group 72">
            <path id="Path_372" data-name="Path 372" d="M1943.656,247.216a15.708,15.708,0,0,0,31.415,0Z" fill="#ffffff"/>
            <path id="Path_373" data-name="Path 373" d="M1848.68,247.216a15.707,15.707,0,1,0,31.414,0Z" fill="#ffffff"/>
          </g>
          <circle id="Ellipse_91" data-name="Ellipse 91" cx="8.113" cy="8.113" r="8.113" transform="translate(1951.251 239.103)" fill="#795548"/>
          <circle id="Ellipse_92" data-name="Ellipse 92" cx="8.113" cy="8.113" r="8.113" transform="translate(1856.274 239.103)" fill="#795548"/>
          <g id="Group_73" data-name="Group 73">
            <circle id="Ellipse_93" data-name="Ellipse 93" cx="8.113" cy="8.113" r="8.113" transform="translate(1951.251 239.103)" fill="none" stroke="#4e342e" stroke-linecap="round" stroke-linejoin="round" stroke-width="4"/>
            <circle id="Ellipse_94" data-name="Ellipse 94" cx="8.113" cy="8.113" r="8.113" transform="translate(1856.274 239.103)" fill="none" stroke="#4e342e" stroke-linecap="round" stroke-linejoin="round" stroke-width="4"/>
            <path id="Path_374" data-name="Path 374" d="M1887.169,227.928a29.851,29.851,0,0,0-45.564,0" fill="none" stroke="#4e342e" stroke-linecap="round" stroke-linejoin="round" stroke-width="6"/>
            <path id="Path_375" data-name="Path 375" d="M1982.146,227.928a29.852,29.852,0,0,0-45.565,0" fill="none" stroke="#4e342e" stroke-linecap="round" stroke-linejoin="round" stroke-width="6"/>
          </g>
        </g>
        <g id="eyes-dark">
          <g id="Group_74" data-name="Group 74">
            <path id="Path_376" data-name="Path 376" d="M1943.656,247.216a15.708,15.708,0,0,0,31.415,0Z" fill="#ffffff"/>
            <path id="Path_377" data-name="Path 377" d="M1848.68,247.216a15.707,15.707,0,1,0,31.414,0Z" fill="#ffffff"/>
          </g>
          <circle id="Ellipse_95" data-name="Ellipse 95" cx="8.113" cy="8.113" r="8.113" transform="translate(1951.251 239.103)" fill="#5d4037"/>
          <circle id="Ellipse_96" data-name="Ellipse 96" cx="8.113" cy="8.113" r="8.113" transform="translate(1856.274 239.103)" fill="#5d4037"/>
          <g id="Group_75" data-name="Group 75">
            <circle id="Ellipse_97" data-name="Ellipse 97" cx="8.113" cy="8.113" r="8.113" transform="translate(1951.251 239.103)" fill="none" stroke="#4e342e" stroke-linecap="round" stroke-linejoin="round" stroke-width="4"/>
            <circle id="Ellipse_98" data-name="Ellipse 98" cx="8.113" cy="8.113" r="8.113" transform="translate(1856.274 239.103)" fill="none" stroke="#4e342e" stroke-linecap="round" stroke-linejoin="round" stroke-width="4"/>
            <path id="Path_378" data-name="Path 378" d="M1887.169,227.928a29.851,29.851,0,0,0-45.564,0" fill="none" stroke="#4e342e" stroke-linecap="round" stroke-linejoin="round" stroke-width="6"/>
            <path id="Path_379" data-name="Path 379" d="M1982.146,227.928a29.852,29.852,0,0,0-45.565,0" fill="none" stroke="#4e342e" stroke-linecap="round" stroke-linejoin="round" stroke-width="6"/>
          </g>
        </g>
        <path id="hair-black" d="M1946.661,78.848c3.277-10.462,8.624-21.482,17.125-29.982-30.649,0-52.256,10.274-67.45,25.537l-.23.032c3.185-14.485,9.689-31.689,22.144-44.144-104.65,0-116.691,105.249-116.691,153.443v83.278a12.021,12.021,0,0,0,12.021,12.022l.015-57.164s.005-78.552,43.049-78.552h110.712c43.044,0,43.044,79,43.044,79v56.72a12.022,12.022,0,0,0,12.022-12.022l.019-83.278A110.485,110.485,0,0,0,1946.661,78.848Z" fill="#5d4037"/>
        <path id="hair-brown" d="M1946.661,78.848c3.277-10.462,8.624-21.482,17.125-29.982-30.649,0-52.256,10.274-67.45,25.537l-.23.032c3.185-14.485,9.689-31.689,22.144-44.144-104.65,0-116.691,105.249-116.691,153.443v83.278a12.021,12.021,0,0,0,12.021,12.022l.015-57.164s.005-78.552,43.049-78.552h110.712c43.044,0,43.044,79,43.044,79v56.72a12.022,12.022,0,0,0,12.022-12.022l.019-83.278A110.485,110.485,0,0,0,1946.661,78.848Z" fill="#795548"/>
        <path id="hair-blonde" d="M1946.661,78.848c3.277-10.462,8.624-21.482,17.125-29.982-30.649,0-52.256,10.274-67.45,25.537l-.23.032c3.185-14.485,9.689-31.689,22.144-44.144-104.65,0-116.691,105.249-116.691,153.443v83.278a12.021,12.021,0,0,0,12.021,12.022l.015-57.164s.005-78.552,43.049-78.552h110.712c43.044,0,43.044,79,43.044,79v56.72a12.022,12.022,0,0,0,12.022-12.022l.019-83.278A110.485,110.485,0,0,0,1946.661,78.848Z" fill="#ffd600"/>
        <path id="hair-grey" d="M1946.661,78.848c3.277-10.462,8.624-21.482,17.125-29.982-30.649,0-52.256,10.274-67.45,25.537l-.23.032c3.185-14.485,9.689-31.689,22.144-44.144-104.65,0-116.691,105.249-116.691,153.443v83.278a12.021,12.021,0,0,0,12.021,12.022l.015-57.164s.005-78.552,43.049-78.552h110.712c43.044,0,43.044,79,43.044,79v56.72a12.022,12.022,0,0,0,12.022-12.022l.019-83.278A110.485,110.485,0,0,0,1946.661,78.848Z" fill="#bdbdbd"/>
        <g id="lines">
          <g id="Path_380" data-name="Path 380" fill="none" stroke-miterlimit="10">
            <path d="M2022.427,244.957l.014-61.223a110.485,110.485,0,0,0-75.78-104.886c3.277-10.462,8.624-21.482,17.125-29.982-30.649,0-52.256,10.274-67.45,25.537l-.23.032c3.185-14.485,9.689-31.689,22.144-44.144-104.65,0-116.691,105.249-116.691,153.443l0,61.212A29.37,29.37,0,0,0,1813.6,301.1v18.05a98.31,98.31,0,0,0,44.6,82.393h-1.552V440.86a55.18,55.18,0,0,0,55.181,55.181h0a55.18,55.18,0,0,0,55.18-55.181V401.543h-1.2a98.31,98.31,0,0,0,44.6-82.393V301.1a29.359,29.359,0,0,0,12.027-56.143Z" stroke="none"/>
            <path d="M 1918.25 30.291015625 C 1813.599975585938 30.291015625 1801.558959960938 135.5399475097656 1801.558959960938 183.7340087890625 L 1801.557006835938 244.9460144042969 C 1791.344970703125 249.5440063476562 1784.235961914062 259.8100280761719 1784.235961914062 271.7350158691406 C 1784.235961914062 287.9530029296875 1797.381958007812 301.1000366210938 1813.599975585938 301.1000366210938 L 1813.599975585938 319.1500244140625 C 1813.599975585938 353.635009765625 1831.343994140625 383.9720153808594 1858.196044921875 401.5430297851562 L 1856.64404296875 401.5430297851562 L 1856.64404296875 440.8599243164062 C 1856.64404296875 471.3359985351562 1881.348999023438 496.0409545898438 1911.824951171875 496.0409545898438 C 1942.300048828125 496.0409545898438 1967.005004882812 471.3359985351562 1967.005004882812 440.8599243164062 L 1967.005004882812 401.5430297851562 L 1965.803955078125 401.5430297851562 C 1992.656005859375 383.9720153808594 2010.400024414062 353.635009765625 2010.400024414062 319.1500244140625 L 2010.400024414062 301.1000366210938 C 2026.618041992188 301.1000366210938 2039.764038085938 287.9530029296875 2039.764038085938 271.7350158691406 C 2039.764038085938 259.8060302734375 2032.642944335938 249.5530090332031 2022.427001953125 244.9570007324219 L 2022.441040039062 183.7340087890625 C 2022.441040039062 134.8470153808594 1990.675048828125 93.38592529296875 1946.661010742188 78.8480224609375 C 1949.93798828125 68.38592529296875 1955.285034179688 57.36602783203125 1963.786010742188 48.86602783203125 C 1933.136962890625 48.86602783203125 1911.530029296875 59.1400146484375 1896.336059570312 74.40301513671875 C 1896.260009765625 74.41400146484375 1896.182983398438 74.42401123046875 1896.10595703125 74.43502807617188 C 1899.291015625 59.95001220703125 1905.795043945312 42.74600219726562 1918.25 30.291015625 M 1918.25 22.291015625 L 1937.563598632812 22.291015625 L 1923.906860351562 35.9478759765625 C 1918.89501953125 40.95974731445312 1915.005004882812 46.83023071289062 1911.989135742188 52.83053588867188 C 1926.778686523438 44.87875366210938 1944.108520507812 40.86602783203125 1963.786010742188 40.86602783203125 L 1983.101318359375 40.86602783203125 L 1969.442504882812 54.52316284179688 C 1964.353271484375 59.61181640625 1960.141235351562 66.17428588867188 1956.873291015625 74.092041015625 C 2001.201293945312 92.18765258789062 2030.441040039062 135.265380859375 2030.441040039062 183.7340087890625 L 2030.428100585938 240.2061157226562 C 2041.104736328125 246.9967346191406 2047.764038085938 258.8669738769531 2047.764038085938 271.7350158691406 C 2047.764038085938 289.593017578125 2035.171508789062 304.5651550292969 2018.400024414062 308.2378845214844 L 2018.400024414062 319.1500244140625 C 2018.400024414062 353.2161865234375 2002.283325195312 384.8477783203125 1975.005004882812 404.8926696777344 L 1975.005004882812 440.8599243164062 C 1975.005004882812 475.6980895996094 1946.66259765625 504.0409545898438 1911.824951171875 504.0409545898438 C 1876.986938476562 504.0409545898438 1848.64404296875 475.6980895996094 1848.64404296875 440.8599243164062 L 1848.64404296875 404.6336975097656 C 1821.57666015625 384.5761108398438 1805.599975585938 353.071044921875 1805.599975585938 319.1500244140625 L 1805.599975585938 308.2379150390625 C 1788.828491210938 304.5651550292969 1776.235961914062 289.593017578125 1776.235961914062 271.7350158691406 C 1776.235961914062 258.8616333007812 1782.889282226562 246.9880065917969 1793.55712890625 240.1965637207031 L 1793.558959960938 183.7337951660156 C 1793.558959960938 135.19287109375 1805.708862304688 22.291015625 1918.25 22.291015625 Z" stroke="none" fill="#4e342e"/>
          </g>
          <path id="Path_381" data-name="Path 381" d="M1938.914,303.538a5.849,5.849,0,0,1-11.7,0,15.216,15.216,0,0,1-30.432,0,5.849,5.849,0,0,1-11.7,0" fill="none" stroke="#4e342e" stroke-linecap="round" stroke-linejoin="round" stroke-width="6"/>
          <line id="Line_11" data-name="Line 11" x2="65.185" transform="translate(1879.407 349.792)" fill="none" stroke="#4e342e" stroke-linecap="round" stroke-miterlimit="10" stroke-width="6"/>
          <path id="Path_382" data-name="Path 382" d="M1813.526,275.334a29.386,29.386,0,0,0,22.979,28.677" fill="none" stroke="#4e342e" stroke-linecap="round" stroke-miterlimit="10" stroke-width="6"/>
          <path id="Path_383" data-name="Path 383" d="M2010.4,275.334a29.387,29.387,0,0,1-22.978,28.677" fill="none" stroke="#4e342e" stroke-linecap="round" stroke-miterlimit="10" stroke-width="6"/>
          <path id="Path_384" data-name="Path 384" d="M1801.557,244.946A29.37,29.37,0,0,0,1813.6,301.1" fill="none" stroke="#4e342e" stroke-linecap="round" stroke-miterlimit="10" stroke-width="6"/>
          <path id="Path_385" data-name="Path 385" d="M2021.83,244.679A29.369,29.369,0,0,1,2010.4,301.1" fill="none" stroke="#4e342e" stroke-linecap="round" stroke-miterlimit="10" stroke-width="6"/>
          <path id="Path_386" data-name="Path 386" d="M2010.4,279.034a12.022,12.022,0,0,0,12.022-12.022l.019-83.278a110.485,110.485,0,0,0-75.78-104.886c3.277-10.462,8.624-21.482,17.125-29.982-30.649,0-52.256,10.274-67.45,25.537l-.23.032c3.185-14.485,9.689-31.689,22.144-44.144-104.65,0-116.691,105.249-116.691,153.443v83.278a12.021,12.021,0,0,0,12.021,12.022" fill="none" stroke="#4e342e" stroke-linecap="round" stroke-miterlimit="10" stroke-width="6"/>
          <path id="Path_387" data-name="Path 387" d="M1967.005,401.543V440.86a55.18,55.18,0,0,1-55.18,55.181h0a55.18,55.18,0,0,1-55.181-55.181V401.543" fill="none" stroke="#4e342e" stroke-linecap="round" stroke-miterlimit="10" stroke-width="6"/>
          <path id="Path_388" data-name="Path 388" d="M1912,143.318h-55.356c-43.044,0-43.044,79-43.044,79V319.15a98.434,98.434,0,0,0,63.653,92.082c6.628,6.487,2.914,15.318,34.747,15.318s28.119-8.831,34.747-15.318A98.434,98.434,0,0,0,2010.4,319.15V222.314s0-79-43.044-79Z" fill="none" stroke="#4e342e" stroke-linecap="round" stroke-miterlimit="10" stroke-width="6"/>
          <path id="Path_389" data-name="Path 389" d="M2019.247,291.208a13.488,13.488,0,1,1-8.046,24.315" fill="none" stroke="#4e342e" stroke-linecap="round" stroke-miterlimit="10" stroke-width="6"/>
        </g>
      </g>
    </g>
  </g>
</svg>