<?xml version="1.0" encoding="utf-8"?>
<!-- Uploaded to: SVG Repo, www.svgrepo.com, Generator: SVG Repo Mixer Tools -->
<svg width="800px" height="800px" viewBox="0 0 512 512" xmlns="http://www.w3.org/2000/svg" xmlns:xlink="http://www.w3.org/1999/xlink">
  <defs>
    <clipPath id="clip-Artboard_7">
      <rect width="512" height="512"/>
    </clipPath>
  </defs>
  <g id="Artboard_7" data-name="Artboard 7" clip-path="url(#clip-Artboard_7)">
    <g id="women" transform="translate(-3312)">
      <g id="Group_46" data-name="Group 46">
        <path id="skin-dark" d="M3568,193.14c-44.167,0-79.972,37.758-79.972,47.214v97.3a79.889,79.889,0,0,0,35.529,66.488h-.013l-.079,47.359A44.537,44.537,0,0,0,3568,496.041h0a44.537,44.537,0,0,0,44.537-44.537l0-47.423a79.889,79.889,0,0,0,35.429-66.424v-97.3C3647.972,230.9,3612.167,193.14,3568,193.14Z" fill="#8d6e63"/>
        <path id="skin-tanned" d="M3568,193.14c-44.167,0-79.972,37.758-79.972,47.214v97.3a79.889,79.889,0,0,0,35.529,66.488h-.013l-.079,47.359A44.537,44.537,0,0,0,3568,496.041h0a44.537,44.537,0,0,0,44.537-44.537l0-47.423a79.889,79.889,0,0,0,35.429-66.424v-97.3C3647.972,230.9,3612.167,193.14,3568,193.14Z" fill="#ffccbc"/>
        <path id="skin-light" d="M3568,193.14c-44.167,0-79.972,37.758-79.972,47.214v97.3a79.889,79.889,0,0,0,35.529,66.488h-.013l-.079,47.359A44.537,44.537,0,0,0,3568,496.041h0a44.537,44.537,0,0,0,44.537-44.537l0-47.423a79.889,79.889,0,0,0,35.429-66.424v-97.3C3647.972,230.9,3612.167,193.14,3568,193.14Z" fill="#fbe9e7"/>
        <g id="shadows_highlights" data-name="shadows/highlights">
          <g id="Group_35" data-name="Group 35" style="mix-blend-mode: soft-light;isolation: isolate">
            <path id="Path_151" data-name="Path 151" d="M3647.972,334.657a79.972,79.972,0,1,1-159.944,0" fill="none" stroke="#4e342e" stroke-linecap="round" stroke-miterlimit="10" stroke-width="8"/>
            <path id="Path_152" data-name="Path 152" d="M3612.713,409.972a80.019,80.019,0,0,1-89.252.117" fill="none" stroke="#4e342e" stroke-miterlimit="10" stroke-width="14"/>
            <path id="Path_153" data-name="Path 153" d="M3493,238.728c24.432,16.371,57.808,15.765,79.392-5.819a62.557,62.557,0,0,0,16.5-29.026,45.039,45.039,0,0,0,8.236,10.685c6.887,6.887,28.905,13.482,37.8,15.2" fill="none" stroke="#4e342e" stroke-linecap="round" stroke-miterlimit="10" stroke-width="8"/>
            <path id="Path_154" data-name="Path 154" d="M3575.831,322.605a9.64,9.64,0,0,1-15.662,0" fill="none" stroke="#4e342e" stroke-linecap="round" stroke-miterlimit="10" stroke-width="8"/>
            <path id="Path_155" data-name="Path 155" d="M3576.615,373.623a11.245,11.245,0,0,1-17.23,0" fill="none" stroke="#4e342e" stroke-linecap="round" stroke-miterlimit="10" stroke-width="8"/>
          </g>
          <ellipse id="Ellipse_43" data-name="Ellipse 43" cx="7.524" cy="4.314" rx="7.524" ry="4.314" transform="translate(3560.557 397.757)" fill="#ffffff" style="mix-blend-mode: soft-light;isolation: isolate"/>
          <circle id="Ellipse_44" data-name="Ellipse 44" cx="4" cy="4" r="4" transform="translate(3564 302.446)" fill="#ffffff" style="mix-blend-mode: soft-light;isolation: isolate"/>
          <circle id="Ellipse_45" data-name="Ellipse 45" cx="4" cy="4" r="4" transform="translate(3564 302.446)" fill="#ffffff" style="mix-blend-mode: soft-light;isolation: isolate"/>
        </g>
        <g id="Group_36" data-name="Group 36" style="mix-blend-mode: soft-light;isolation: isolate">
          <path id="Path_156" data-name="Path 156" d="M3595.781,269.9a15.708,15.708,0,0,1,31.415,0Z" fill="#5d4037"/>
          <path id="Path_157" data-name="Path 157" d="M3508.8,269.9a15.708,15.708,0,0,1,31.415,0Z" fill="#5d4037"/>
        </g>
        <g id="eyes-green_blue" data-name="eyes-green/blue">
          <g id="Group_37" data-name="Group 37">
            <path id="Path_158" data-name="Path 158" d="M3595.781,269.9a15.708,15.708,0,1,0,31.415,0Z" fill="#ffffff"/>
            <path id="Path_159" data-name="Path 159" d="M3508.8,269.9a15.708,15.708,0,1,0,31.415,0Z" fill="#ffffff"/>
          </g>
          <circle id="Ellipse_46" data-name="Ellipse 46" cx="8.113" cy="8.113" r="8.113" transform="translate(3603.376 261.792)" fill="#00bcd4"/>
          <circle id="Ellipse_47" data-name="Ellipse 47" cx="8.113" cy="8.113" r="8.113" transform="translate(3516.399 261.792)" fill="#00bcd4"/>
          <g id="Group_38" data-name="Group 38">
            <circle id="Ellipse_48" data-name="Ellipse 48" cx="8.113" cy="8.113" r="8.113" transform="translate(3603.376 261.792)" fill="none" stroke="#4e342e" stroke-linecap="round" stroke-linejoin="round" stroke-width="4"/>
            <circle id="Ellipse_49" data-name="Ellipse 49" cx="8.113" cy="8.113" r="8.113" transform="translate(3516.399 261.792)" fill="none" stroke="#4e342e" stroke-linecap="round" stroke-linejoin="round" stroke-width="4"/>
            <path id="Path_160" data-name="Path 160" d="M3547.294,250.616a29.852,29.852,0,0,0-45.565,0" fill="none" stroke="#4e342e" stroke-linecap="round" stroke-linejoin="round" stroke-width="6"/>
            <path id="Path_161" data-name="Path 161" d="M3634.271,250.616a29.852,29.852,0,0,0-45.565,0" fill="none" stroke="#4e342e" stroke-linecap="round" stroke-linejoin="round" stroke-width="6"/>
          </g>
        </g>
        <g id="eyes-brown">
          <g id="Group_39" data-name="Group 39">
            <path id="Path_162" data-name="Path 162" d="M3595.781,269.9a15.708,15.708,0,1,0,31.415,0Z" fill="#ffffff"/>
            <path id="Path_163" data-name="Path 163" d="M3508.8,269.9a15.708,15.708,0,1,0,31.415,0Z" fill="#ffffff"/>
          </g>
          <circle id="Ellipse_50" data-name="Ellipse 50" cx="8.113" cy="8.113" r="8.113" transform="translate(3603.376 261.792)" fill="#795548"/>
          <circle id="Ellipse_51" data-name="Ellipse 51" cx="8.113" cy="8.113" r="8.113" transform="translate(3516.399 261.792)" fill="#795548"/>
          <g id="Group_40" data-name="Group 40">
            <circle id="Ellipse_52" data-name="Ellipse 52" cx="8.113" cy="8.113" r="8.113" transform="translate(3603.376 261.792)" fill="none" stroke="#4e342e" stroke-linecap="round" stroke-linejoin="round" stroke-width="4"/>
            <circle id="Ellipse_53" data-name="Ellipse 53" cx="8.113" cy="8.113" r="8.113" transform="translate(3516.399 261.792)" fill="none" stroke="#4e342e" stroke-linecap="round" stroke-linejoin="round" stroke-width="4"/>
            <path id="Path_164" data-name="Path 164" d="M3547.294,250.616a29.852,29.852,0,0,0-45.565,0" fill="none" stroke="#4e342e" stroke-linecap="round" stroke-linejoin="round" stroke-width="6"/>
            <path id="Path_165" data-name="Path 165" d="M3634.271,250.616a29.852,29.852,0,0,0-45.565,0" fill="none" stroke="#4e342e" stroke-linecap="round" stroke-linejoin="round" stroke-width="6"/>
          </g>
        </g>
        <g id="eyes-dark">
          <g id="Group_41" data-name="Group 41">
            <path id="Path_166" data-name="Path 166" d="M3595.781,269.9a15.708,15.708,0,1,0,31.415,0Z" fill="#ffffff"/>
            <path id="Path_167" data-name="Path 167" d="M3508.8,269.9a15.708,15.708,0,1,0,31.415,0Z" fill="#ffffff"/>
          </g>
          <circle id="Ellipse_54" data-name="Ellipse 54" cx="8.113" cy="8.113" r="8.113" transform="translate(3603.376 261.792)" fill="#5d4037"/>
          <circle id="Ellipse_55" data-name="Ellipse 55" cx="8.113" cy="8.113" r="8.113" transform="translate(3516.399 261.792)" fill="#5d4037"/>
          <g id="Group_42" data-name="Group 42">
            <circle id="Ellipse_56" data-name="Ellipse 56" cx="8.113" cy="8.113" r="8.113" transform="translate(3603.376 261.792)" fill="none" stroke="#4e342e" stroke-linecap="round" stroke-linejoin="round" stroke-width="4"/>
            <circle id="Ellipse_57" data-name="Ellipse 57" cx="8.113" cy="8.113" r="8.113" transform="translate(3516.399 261.792)" fill="none" stroke="#4e342e" stroke-linecap="round" stroke-linejoin="round" stroke-width="4"/>
            <path id="Path_168" data-name="Path 168" d="M3547.294,250.616a29.852,29.852,0,0,0-45.565,0" fill="none" stroke="#4e342e" stroke-linecap="round" stroke-linejoin="round" stroke-width="6"/>
            <path id="Path_169" data-name="Path 169" d="M3634.271,250.616a29.852,29.852,0,0,0-45.565,0" fill="none" stroke="#4e342e" stroke-linecap="round" stroke-linejoin="round" stroke-width="6"/>
          </g>
        </g>
        <path id="hair-black" d="M3702.993,363.412l.076-.155a47.111,47.111,0,0,0-12.883-41.308l-.117-.062a62.865,62.865,0,0,0-15.432-122.9v-2.655c-5.358-49.25-47.545-88.211-97.39-92.548C3571,103.385,3568,110,3568,110s-3-6.615-9.247-6.213c-49.845,4.337-92.032,43.3-97.39,92.548v2.655a62.859,62.859,0,0,0-20.585,121.058l2.871,4.26a47.08,47.08,0,0,0-10.718,38.949s-31.435,19.915-31.435,54.632a62.874,62.874,0,0,0,94.149,54.532,62.545,62.545,0,0,0,31.255,8.33h.042a7.917,7.917,0,1,0,0-15.833l0,0A7.958,7.958,0,0,0,3526.9,449a7.958,7.958,0,1,0,0-15.917,15.218,15.218,0,0,1-3.356-.384V404.145l-11.839-8.786V381.227l-.2-.177a62.874,62.874,0,0,0-23.255-99.241l-7.5-2.586a62.611,62.611,0,0,0,14.8-40.519L3493,234.728a62.889,62.889,0,0,0,95.892-36.845,45.039,45.039,0,0,0,8.236,10.685,46.813,46.813,0,0,0,24.272,12.914l-.017,0c.086.113.175.224.261.337l1.577,1.98a63.146,63.146,0,0,0,18.013,14.934l-.784-.026a62.611,62.611,0,0,0,14.8,40.519l-.005.013A62.839,62.839,0,0,0,3624.5,381.029l-.006.021-.2.177v15.567l-11.752,7.273v.014l0,47.423a44.33,44.33,0,0,1-9.073,26.933,7.889,7.889,0,0,0,5.592,2.314h.042a62.545,62.545,0,0,0,31.255-8.33,62.862,62.862,0,0,0,62.638-109.009Z" fill="#5d4037"/>
        <path id="hair-brown" d="M3702.993,363.412l.076-.155a47.111,47.111,0,0,0-12.883-41.308l-.117-.062a62.865,62.865,0,0,0-15.432-122.9v-2.655c-5.358-49.25-47.545-88.211-97.39-92.548C3571,103.385,3568,110,3568,110s-3-6.615-9.247-6.213c-49.845,4.337-92.032,43.3-97.39,92.548v2.655a62.859,62.859,0,0,0-20.585,121.058l2.871,4.26a47.08,47.08,0,0,0-10.718,38.949s-31.435,19.915-31.435,54.632a62.874,62.874,0,0,0,94.149,54.532,62.545,62.545,0,0,0,31.255,8.33h.042a7.917,7.917,0,1,0,0-15.833l0,0A7.958,7.958,0,0,0,3526.9,449a7.958,7.958,0,1,0,0-15.917,15.218,15.218,0,0,1-3.356-.384V404.145l-11.839-8.786V381.227l-.2-.177a62.874,62.874,0,0,0-23.255-99.241l-7.5-2.586a62.611,62.611,0,0,0,14.8-40.519L3493,234.728a62.889,62.889,0,0,0,95.892-36.845,45.039,45.039,0,0,0,8.236,10.685,46.813,46.813,0,0,0,24.272,12.914l-.017,0c.086.113.175.224.261.337l1.577,1.98a63.146,63.146,0,0,0,18.013,14.934l-.784-.026a62.611,62.611,0,0,0,14.8,40.519l-.005.013A62.839,62.839,0,0,0,3624.5,381.029l-.006.021-.2.177v15.567l-11.752,7.273v.014l0,47.423a44.33,44.33,0,0,1-9.073,26.933,7.889,7.889,0,0,0,5.592,2.314h.042a62.545,62.545,0,0,0,31.255-8.33,62.862,62.862,0,0,0,62.638-109.009Z" fill="#795548"/>
        <path id="hair-blonde" d="M3702.993,363.412l.076-.155a47.111,47.111,0,0,0-12.883-41.308l-.117-.062a62.865,62.865,0,0,0-15.432-122.9v-2.655c-5.358-49.25-47.545-88.211-97.39-92.548C3571,103.385,3568,110,3568,110s-3-6.615-9.247-6.213c-49.845,4.337-92.032,43.3-97.39,92.548v2.655a62.859,62.859,0,0,0-20.585,121.058l2.871,4.26a47.08,47.08,0,0,0-10.718,38.949s-31.435,19.915-31.435,54.632a62.874,62.874,0,0,0,94.149,54.532,62.545,62.545,0,0,0,31.255,8.33h.042a7.917,7.917,0,1,0,0-15.833l0,0A7.958,7.958,0,0,0,3526.9,449a7.958,7.958,0,1,0,0-15.917,15.218,15.218,0,0,1-3.356-.384V404.145l-11.839-8.786V381.227l-.2-.177a62.874,62.874,0,0,0-23.255-99.241l-7.5-2.586a62.611,62.611,0,0,0,14.8-40.519L3493,234.728a62.889,62.889,0,0,0,95.892-36.845,45.039,45.039,0,0,0,8.236,10.685,46.813,46.813,0,0,0,24.272,12.914l-.017,0c.086.113.175.224.261.337l1.577,1.98a63.146,63.146,0,0,0,18.013,14.934l-.784-.026a62.611,62.611,0,0,0,14.8,40.519l-.005.013A62.839,62.839,0,0,0,3624.5,381.029l-.006.021-.2.177v15.567l-11.752,7.273v.014l0,47.423a44.33,44.33,0,0,1-9.073,26.933,7.889,7.889,0,0,0,5.592,2.314h.042a62.545,62.545,0,0,0,31.255-8.33,62.862,62.862,0,0,0,62.638-109.009Z" fill="#ffd600"/>
        <path id="hair-grey" d="M3702.993,363.412l.076-.155a47.111,47.111,0,0,0-12.883-41.308l-.117-.062a62.865,62.865,0,0,0-15.432-122.9v-2.655c-5.358-49.25-47.545-88.211-97.39-92.548C3571,103.385,3568,110,3568,110s-3-6.615-9.247-6.213c-49.845,4.337-92.032,43.3-97.39,92.548v2.655a62.859,62.859,0,0,0-20.585,121.058l2.871,4.26a47.08,47.08,0,0,0-10.718,38.949s-31.435,19.915-31.435,54.632a62.874,62.874,0,0,0,94.149,54.532,62.545,62.545,0,0,0,31.255,8.33h.042a7.917,7.917,0,1,0,0-15.833l0,0A7.958,7.958,0,0,0,3526.9,449a7.958,7.958,0,1,0,0-15.917,15.218,15.218,0,0,1-3.356-.384V404.145l-11.839-8.786V381.227l-.2-.177a62.874,62.874,0,0,0-23.255-99.241l-7.5-2.586a62.611,62.611,0,0,0,14.8-40.519L3493,234.728a62.889,62.889,0,0,0,95.892-36.845,45.039,45.039,0,0,0,8.236,10.685,46.813,46.813,0,0,0,24.272,12.914l-.017,0c.086.113.175.224.261.337l1.577,1.98a63.146,63.146,0,0,0,18.013,14.934l-.784-.026a62.611,62.611,0,0,0,14.8,40.519l-.005.013A62.839,62.839,0,0,0,3624.5,381.029l-.006.021-.2.177v15.567l-11.752,7.273v.014l0,47.423a44.33,44.33,0,0,1-9.073,26.933,7.889,7.889,0,0,0,5.592,2.314h.042a62.545,62.545,0,0,0,31.255-8.33,62.862,62.862,0,0,0,62.638-109.009Z" fill="#bdbdbd"/>
        <g id="lines">
          <g id="Path_170" data-name="Path 170" fill="none" stroke-miterlimit="10">
            <path d="M3702.993,363.412l.076-.155a47.111,47.111,0,0,0-12.883-41.308l-.117-.062a62.865,62.865,0,0,0-15.432-122.9v-2.655c-5.358-49.25-47.545-88.211-97.39-92.548C3571,103.385,3568,110,3568,110s-3-6.615-9.247-6.213c-49.845,4.337-92.032,43.3-97.39,92.548v2.655a62.859,62.859,0,0,0-20.585,121.058l2.871,4.26a47.08,47.08,0,0,0-10.718,38.949s-31.435,19.915-31.435,54.632a62.874,62.874,0,0,0,94.149,54.532,62.545,62.545,0,0,0,31.255,8.33h.042a7.889,7.889,0,0,0,5.594-2.316A44.461,44.461,0,0,0,3568,496.041h0a44.459,44.459,0,0,0,35.464-17.6,7.889,7.889,0,0,0,5.592,2.314h.042a62.545,62.545,0,0,0,31.255-8.33,62.862,62.862,0,0,0,62.638-109.009Zm-179.449,40.733-.174-.13.187.13Zm-35.516-135.611v13.2l-7.275-2.51A63.041,63.041,0,0,0,3488.028,268.534Zm23.677,125.9q2.781,2.756,5.819,5.238l-5.819-4.318Zm100.838,38.239h0l0-28.6Zm.185-28.726a80.376,80.376,0,0,0,11.567-9.509v2.351Zm42.514-124.716a62.638,62.638,0,0,0-7.27,2.493v-13.2a63.041,63.041,0,0,0,7.275,10.689Z" stroke="none"/>
            <path d="M 3568.001953125 496.0409851074219 C 3582.47607421875 496.0409851074219 3595.3310546875 489.1319885253906 3603.466064453125 478.4370422363281 C 3604.89794921875 479.8669738769531 3606.875 480.7509765625 3609.05810546875 480.7509765625 L 3609.10009765625 480.7509765625 C 3620.48095703125 480.7509765625 3631.14599609375 477.7109680175781 3640.35498046875 472.4209899902344 C 3649.569091796875 477.718994140625 3660.2509765625 480.7509765625 3671.64208984375 480.7509765625 C 3706.360107421875 480.7509765625 3734.50390625 452.6069946289062 3734.50390625 417.8889770507812 C 3734.50390625 394.5919799804688 3721.821044921875 374.27099609375 3702.992919921875 363.4119873046875 L 3703.069091796875 363.2569885253906 C 3703.541015625 360.5849914550781 3703.787109375 357.8349914550781 3703.787109375 355.0279846191406 C 3703.787109375 342.1299743652344 3698.593994140625 330.4449768066406 3690.18603515625 321.948974609375 L 3690.069091796875 321.8869934082031 C 3715.7939453125 314.010986328125 3734.50390625 290.0809936523438 3734.50390625 261.7759704589844 C 3734.50390625 228.06298828125 3707.962890625 200.552978515625 3674.636962890625 198.9899749755859 L 3674.636962890625 196.3349761962891 C 3669.279052734375 147.0849761962891 3627.092041015625 108.1239852905273 3577.2470703125 103.786979675293 C 3571.00830078125 103.3855438232422 3568.000244140625 109.9999923706055 3568 109.9999847412109 C 3567.999755859375 109.9999847412109 3564.99462890625 103.3852691650391 3558.7529296875 103.786979675293 C 3508.907958984375 108.1239852905273 3466.720947265625 147.0849761962891 3461.363037109375 196.3349761962891 L 3461.363037109375 198.9899749755859 C 3428.037109375 200.552978515625 3401.49609375 228.06298828125 3401.49609375 261.7759704589844 C 3401.49609375 288.1519775390625 3417.748046875 310.718994140625 3440.778076171875 320.0479736328125 L 3443.64892578125 324.3079833984375 C 3436.530029296875 332.5499877929688 3432.212890625 343.2809753417969 3432.212890625 355.0279846191406 C 3432.212890625 357.8349914550781 3432.458984375 360.5849914550781 3432.930908203125 363.2569885253906 C 3432.930908203125 363.2569885253906 3401.49609375 383.1719970703125 3401.49609375 417.8889770507812 C 3401.49609375 452.6069946289062 3429.639892578125 480.7509765625 3464.35791015625 480.7509765625 C 3475.7490234375 480.7509765625 3486.430908203125 477.718994140625 3495.64501953125 472.4209899902344 C 3504.85400390625 477.7109680175781 3515.51904296875 480.7509765625 3526.89990234375 480.7509765625 L 3526.94189453125 480.7509765625 C 3529.1259765625 480.7509765625 3531.10400390625 479.8659973144531 3532.535888671875 478.4349670410156 C 3540.6708984375 489.1310424804688 3553.527099609375 496.0409851074219 3568.001953125 496.0409851074219 M 3612.54296875 404.0809936523438 L 3612.5400390625 432.677978515625 L 3612.54296875 404.0809936523438 M 3523.556884765625 404.1449890136719 L 3523.5439453125 404.1449890136719 L 3523.3701171875 404.0150451660156 C 3523.43310546875 404.0580444335938 3523.493896484375 404.1019897460938 3523.556884765625 404.1449890136719 M 3624.294921875 394.4429931640625 L 3624.294921875 396.7939758300781 L 3612.72802734375 403.9519958496094 C 3616.87890625 401.14599609375 3620.7490234375 397.9579772949219 3624.294921875 394.4429931640625 M 3517.52392578125 399.6769714355469 L 3511.705078125 395.3589782714844 L 3511.705078125 394.4389953613281 C 3513.55908203125 396.2759704589844 3515.4990234375 398.0269775390625 3517.52392578125 399.6769714355469 M 3488.028076171875 268.5339965820312 L 3488.028076171875 281.7329711914062 L 3480.7529296875 279.2229919433594 C 3483.529052734375 275.9329833984375 3485.966064453125 272.3499755859375 3488.028076171875 268.5339965820312 M 3647.971923828125 268.5339965820312 C 3650.033935546875 272.3499755859375 3652.470947265625 275.9329833984375 3655.2470703125 279.2229919433594 L 3655.241943359375 279.2359924316406 C 3652.75390625 279.9219970703125 3650.326904296875 280.7559814453125 3647.971923828125 281.7289733886719 L 3647.971923828125 268.5339965820312 M 3568.001953125 504.0409851074219 C 3553.702392578125 504.0409851074219 3540.375732421875 498.391845703125 3530.542236328125 488.3443603515625 C 3529.375244140625 488.6129760742188 3528.169189453125 488.7509765625 3526.94189453125 488.7509765625 C 3516.058349609375 488.7509765625 3505.339111328125 486.2483520507812 3495.646240234375 481.4802856445312 C 3485.95751953125 486.24853515625 3475.2314453125 488.7509765625 3464.35791015625 488.7509765625 C 3425.28466796875 488.7509765625 3393.49609375 456.96240234375 3393.49609375 417.8889770507812 C 3393.49609375 386.9994812011719 3415.006591796875 366.8701782226562 3424.397705078125 359.5549011230469 C 3424.274658203125 358.0501098632812 3424.212890625 356.5381774902344 3424.212890625 355.0279846191406 C 3424.212890625 344.439453125 3427.275390625 334.1236572265625 3432.9462890625 325.2984619140625 C 3408.813720703125 313.4002380371094 3393.49609375 289.00927734375 3393.49609375 261.7759704589844 C 3393.49609375 226.2393493652344 3419.53955078125 196.6984710693359 3453.970703125 191.6729278564453 C 3461.740234375 140.8595886230469 3505.660400390625 100.3762817382812 3558.0595703125 95.81712341308594 L 3558.405517578125 95.78697967529297 L 3559.297119140625 95.7694091796875 C 3562.705322265625 95.7694091796875 3565.61279296875 96.82143402099609 3567.999755859375 98.34507751464844 C 3570.38671875 96.82132720947266 3573.29443359375 95.7694091796875 3576.702880859375 95.7694091796875 L 3577.76123046875 95.80348205566406 C 3630.615234375 100.4003219604492 3674.728759765625 141.2927856445312 3682.107177734375 191.684326171875 C 3716.498291015625 196.7442169189453 3742.50390625 226.2671203613281 3742.50390625 261.7759704589844 C 3742.50390625 289.2395935058594 3727.05908203125 313.5394287109375 3703.09375 325.312744140625 C 3708.753173828125 334.1010437011719 3711.787109375 344.337646484375 3711.787109375 355.0279846191406 C 3711.787109375 356.4842834472656 3711.7294921875 357.9422912597656 3711.615234375 359.3939819335938 C 3730.79541015625 372.5321044921875 3742.50390625 394.47314453125 3742.50390625 417.8889770507812 C 3742.50390625 456.96240234375 3710.71533203125 488.7509765625 3671.64208984375 488.7509765625 C 3660.7685546875 488.7509765625 3650.04248046875 486.2485656738281 3640.353759765625 481.4803161621094 C 3630.661376953125 486.2483825683594 3619.94677734375 488.7509765625 3609.10009765625 488.7509765625 C 3607.857421875 488.7509765625 3606.6396484375 488.6122436523438 3605.46337890625 488.3421936035156 C 3595.6298828125 498.3911437988281 3582.30224609375 504.0409851074219 3568.001953125 504.0409851074219 Z" stroke="none" fill="#4e342e"/>
          </g>
          <g id="Group_45" data-name="Group 45">
            <g id="Group_43" data-name="Group 43">
              <path id="Path_171" data-name="Path 171" d="M3445.814,321.949a47.111,47.111,0,0,0-12.883,41.308" fill="none" stroke="#4e342e" stroke-linecap="round" stroke-miterlimit="10" stroke-width="6"/>
              <path id="Path_172" data-name="Path 172" d="M3469.256,325.553a31.125,31.125,0,0,0-21.126,29.475" fill="none" stroke="#4e342e" stroke-linecap="round" stroke-miterlimit="10" stroke-width="6"/>
              <path id="Path_173" data-name="Path 173" d="M3479.242,339.833a15.2,15.2,0,0,0-15.195,15.2" fill="none" stroke="#4e342e" stroke-linecap="round" stroke-miterlimit="10" stroke-width="6"/>
              <path id="Path_174" data-name="Path 174" d="M3464.358,355.028a62.861,62.861,0,1,0,0,125.723" fill="none" stroke="#4e342e" stroke-linecap="round" stroke-miterlimit="10" stroke-width="6"/>
              <path id="Path_175" data-name="Path 175" d="M3464.358,371.028a47.028,47.028,0,1,0,0,94.056" fill="none" stroke="#4e342e" stroke-linecap="round" stroke-miterlimit="10" stroke-width="6"/>
              <path id="Path_176" data-name="Path 176" d="M3464.358,386.944a31.112,31.112,0,0,0,0,62.224" fill="none" stroke="#4e342e" stroke-linecap="round" stroke-miterlimit="10" stroke-width="6"/>
              <path id="Path_177" data-name="Path 177" d="M3464.358,402.694a15.2,15.2,0,0,0,0,30.39" fill="none" stroke="#4e342e" stroke-linecap="round" stroke-miterlimit="10" stroke-width="6"/>
              <path id="Path_178" data-name="Path 178" d="M3483.261,226.711a46.871,46.871,0,0,1-18.9,3.953,31.112,31.112,0,0,0,0,62.224,47.028,47.028,0,1,1,0,94.056" fill="none" stroke="#4e342e" stroke-linecap="round" stroke-miterlimit="10" stroke-width="6"/>
              <path id="Path_179" data-name="Path 179" d="M3511.386,183.636a47.359,47.359,0,0,1-.594,7.5" fill="none" stroke="#4e342e" stroke-linecap="round" stroke-miterlimit="10" stroke-width="6"/>
              <path id="Path_180" data-name="Path 180" d="M3495.469,183.636a31.111,31.111,0,0,1-31.111,31.111,47.028,47.028,0,1,0,0,94.057,31.112,31.112,0,0,1,0,62.224" fill="none" stroke="#4e342e" stroke-linecap="round" stroke-miterlimit="10" stroke-width="6"/>
              <path id="Path_181" data-name="Path 181" d="M3479.553,183.719a15.2,15.2,0,0,1-15.2,15.2,62.862,62.862,0,0,0,0,125.724,15.2,15.2,0,1,1,0,30.39" fill="none" stroke="#4e342e" stroke-linecap="round" stroke-miterlimit="10" stroke-width="6"/>
              <path id="Path_182" data-name="Path 182" d="M3526.9,449h0a31.111,31.111,0,0,1-31.111-31.112v-23.8" fill="none" stroke="#4e342e" stroke-linecap="round" stroke-miterlimit="10" stroke-width="6"/>
              <path id="Path_183" data-name="Path 183" d="M3526.9,449a7.958,7.958,0,1,0,0-15.917,15.2,15.2,0,0,1-15.195-15.2V381.226" fill="none" stroke="#4e342e" stroke-linecap="round" stroke-miterlimit="10" stroke-width="6"/>
              <path id="Path_184" data-name="Path 184" d="M3526.9,449a7.958,7.958,0,1,1,0,15.917h-.166a47.029,47.029,0,0,1-47.029-47.029V400.671" fill="none" stroke="#4e342e" stroke-linecap="round" stroke-miterlimit="10" stroke-width="6"/>
              <path id="Path_185" data-name="Path 185" d="M3526.942,464.918a7.917,7.917,0,1,1,0,15.833h-.042a62.861,62.861,0,0,1-62.861-62.862v-15.2" fill="none" stroke="#4e342e" stroke-linecap="round" stroke-miterlimit="10" stroke-width="6"/>
              <path id="Path_186" data-name="Path 186" d="M3464.358,449.168a31.2,31.2,0,0,0,7.6-.935" fill="none" stroke="#4e342e" stroke-linecap="round" stroke-miterlimit="10" stroke-width="6"/>
              <path id="Path_187" data-name="Path 187" d="M3481.846,461.725a46.9,46.9,0,0,1-17.488,3.359" fill="none" stroke="#4e342e" stroke-linecap="round" stroke-miterlimit="10" stroke-width="6"/>
              <path id="Path_188" data-name="Path 188" d="M3495.79,472.341a62.575,62.575,0,0,1-31.432,8.41" fill="none" stroke="#4e342e" stroke-linecap="round" stroke-miterlimit="10" stroke-width="6"/>
              <path id="Path_189" data-name="Path 189" d="M3480.753,279.223a62.611,62.611,0,0,0,14.8-40.519" fill="none" stroke="#4e342e" stroke-linecap="round" stroke-miterlimit="10" stroke-width="6"/>
              <path id="Path_190" data-name="Path 190" d="M3460.572,276.5a47,47,0,0,0,18.66-31.082" fill="none" stroke="#4e342e" stroke-linecap="round" stroke-miterlimit="10" stroke-width="6"/>
              <path id="Path_191" data-name="Path 191" d="M3449.471,264.824a31.171,31.171,0,0,0,13.234-17.984" fill="none" stroke="#4e342e" stroke-linecap="round" stroke-miterlimit="10" stroke-width="6"/>
              <path id="Path_192" data-name="Path 192" d="M3525.662,197.688a63.107,63.107,0,0,0,1.557-13.969" fill="none" stroke="#4e342e" stroke-linecap="round" stroke-miterlimit="10" stroke-width="6"/>
              <path id="Path_193" data-name="Path 193" d="M3464.039,402.694a62.861,62.861,0,0,0,0-125.723h.319a15.2,15.2,0,0,1,0-30.39,62.574,62.574,0,0,0,32.792-9.22" fill="none" stroke="#4e342e" stroke-linecap="round" stroke-miterlimit="10" stroke-width="6"/>
              <path id="Path_194" data-name="Path 194" d="M3690.186,321.949a47.111,47.111,0,0,1,12.883,41.308" fill="none" stroke="#4e342e" stroke-linecap="round" stroke-miterlimit="10" stroke-width="6"/>
              <path id="Path_195" data-name="Path 195" d="M3666.744,325.553a31.125,31.125,0,0,1,21.126,29.475" fill="none" stroke="#4e342e" stroke-linecap="round" stroke-miterlimit="10" stroke-width="6"/>
              <path id="Path_196" data-name="Path 196" d="M3656.758,339.833a15.2,15.2,0,0,1,15.195,15.2" fill="none" stroke="#4e342e" stroke-linecap="round" stroke-miterlimit="10" stroke-width="6"/>
              <path id="Path_197" data-name="Path 197" d="M3671.642,355.028a62.861,62.861,0,1,1,0,125.723" fill="none" stroke="#4e342e" stroke-linecap="round" stroke-miterlimit="10" stroke-width="6"/>
              <path id="Path_198" data-name="Path 198" d="M3671.642,371.028a47.028,47.028,0,1,1,0,94.056" fill="none" stroke="#4e342e" stroke-linecap="round" stroke-miterlimit="10" stroke-width="6"/>
              <path id="Path_199" data-name="Path 199" d="M3671.642,386.944a31.112,31.112,0,0,1,0,62.224" fill="none" stroke="#4e342e" stroke-linecap="round" stroke-miterlimit="10" stroke-width="6"/>
              <path id="Path_200" data-name="Path 200" d="M3671.642,402.694a15.2,15.2,0,0,1,0,30.39" fill="none" stroke="#4e342e" stroke-linecap="round" stroke-miterlimit="10" stroke-width="6"/>
              <path id="Path_201" data-name="Path 201" d="M3642.705,220.71a46.824,46.824,0,0,0,28.937,9.954,31.112,31.112,0,0,1,0,62.224,47.028,47.028,0,1,0,0,94.056" fill="none" stroke="#4e342e" stroke-linecap="round" stroke-miterlimit="10" stroke-width="6"/>
              <path id="Path_202" data-name="Path 202" d="M3660.261,212.6a31.035,31.035,0,0,0,11.381,2.147,47.028,47.028,0,1,1,0,94.057,31.112,31.112,0,0,0,0,62.224" fill="none" stroke="#4e342e" stroke-linecap="round" stroke-miterlimit="10" stroke-width="6"/>
              <path id="Path_203" data-name="Path 203" d="M3671.642,198.914a62.862,62.862,0,0,1,0,125.724,15.2,15.2,0,1,0,0,30.39" fill="none" stroke="#4e342e" stroke-linecap="round" stroke-miterlimit="10" stroke-width="6"/>
              <path id="Path_204" data-name="Path 204" d="M3612.694,448.8a31.116,31.116,0,0,0,27.517-30.907v-23.8" fill="none" stroke="#4e342e" stroke-linecap="round" stroke-miterlimit="10" stroke-width="6"/>
              <path id="Path_205" data-name="Path 205" d="M3612.7,432.655a15.2,15.2,0,0,0,11.6-14.766V381.226" fill="none" stroke="#4e342e" stroke-linecap="round" stroke-miterlimit="10" stroke-width="6"/>
              <path id="Path_206" data-name="Path 206" d="M3610.482,464.9a47.029,47.029,0,0,0,45.813-47.013V400.671" fill="none" stroke="#4e342e" stroke-linecap="round" stroke-miterlimit="10" stroke-width="6"/>
              <path id="Path_207" data-name="Path 207" d="M3671.961,402.694a62.861,62.861,0,0,1,0-125.723h-.319a15.2,15.2,0,0,0,0-30.39,62.768,62.768,0,0,1-50.262-25.1" fill="none" stroke="#4e342e" stroke-linecap="round" stroke-miterlimit="10" stroke-width="6"/>
              <path id="Path_208" data-name="Path 208" d="M3671.961,402.694v15.2a62.861,62.861,0,0,1-62.861,62.862h-.042a7.887,7.887,0,0,1-5.448-2.173" fill="none" stroke="#4e342e" stroke-linecap="round" stroke-miterlimit="10" stroke-width="6"/>
              <path id="Path_209" data-name="Path 209" d="M3671.642,449.168a31.2,31.2,0,0,1-7.6-.935" fill="none" stroke="#4e342e" stroke-linecap="round" stroke-miterlimit="10" stroke-width="6"/>
              <path id="Path_210" data-name="Path 210" d="M3654.154,461.725a46.9,46.9,0,0,0,17.488,3.359" fill="none" stroke="#4e342e" stroke-linecap="round" stroke-miterlimit="10" stroke-width="6"/>
              <path id="Path_211" data-name="Path 211" d="M3640.371,472.433a61.906,61.906,0,0,0,31.271,8.318" fill="none" stroke="#4e342e" stroke-linecap="round" stroke-miterlimit="10" stroke-width="6"/>
              <path id="Path_212" data-name="Path 212" d="M3655.247,279.223a62.611,62.611,0,0,1-14.8-40.519" fill="none" stroke="#4e342e" stroke-linecap="round" stroke-miterlimit="10" stroke-width="6"/>
              <path id="Path_213" data-name="Path 213" d="M3675.428,276.5a47,47,0,0,1-18.66-31.082" fill="none" stroke="#4e342e" stroke-linecap="round" stroke-miterlimit="10" stroke-width="6"/>
              <path id="Path_214" data-name="Path 214" d="M3686.529,264.824a31.171,31.171,0,0,1-13.234-17.984" fill="none" stroke="#4e342e" stroke-linecap="round" stroke-miterlimit="10" stroke-width="6"/>
              <path id="Path_215" data-name="Path 215" d="M3564,152.358A47.03,47.03,0,0,1,3494.852,216" fill="none" stroke="#4e342e" stroke-linecap="round" stroke-miterlimit="10" stroke-width="6"/>
              <path id="Path_216" data-name="Path 216" d="M3506.107,204.743a8,8,0,0,1,11.314-11.314,15.2,15.2,0,0,0,25.106-15.717" fill="none" stroke="#4e342e" stroke-linecap="round" stroke-miterlimit="10" stroke-width="6"/>
              <path id="Path_217" data-name="Path 217" d="M3494.852,216a7.958,7.958,0,0,1,11.255-11.254,31.116,31.116,0,0,0,48.288-38.651" fill="none" stroke="#4e342e" stroke-linecap="round" stroke-miterlimit="10" stroke-width="6"/>
              <path id="Path_218" data-name="Path 218" d="M3494.852,216a7.9,7.9,0,0,0-11.166,11.166l-.2-.254a62.861,62.861,0,0,0,88.9-88.9" fill="none" stroke="#4e342e" stroke-linecap="round" stroke-miterlimit="10" stroke-width="6"/>
              <path id="Path_219" data-name="Path 219" d="M3588.889,197.482a47.066,47.066,0,0,0,74.744,11.086" fill="none" stroke="#4e342e" stroke-linecap="round" stroke-miterlimit="10" stroke-width="6"/>
              <path id="Path_220" data-name="Path 220" d="M3652.378,197.313A8,8,0,1,0,3641.065,186a15.2,15.2,0,0,1-25.107-15.718" fill="none" stroke="#4e342e" stroke-linecap="round" stroke-miterlimit="10" stroke-width="6"/>
              <path id="Path_221" data-name="Path 221" d="M3663.633,208.568a7.959,7.959,0,1,0-11.255-11.255,31.113,31.113,0,0,1-53.019-19.6" fill="none" stroke="#4e342e" stroke-linecap="round" stroke-miterlimit="10" stroke-width="6"/>
              <path id="Path_222" data-name="Path 222" d="M3674.637,196.335c-5.358-49.25-47.545-88.211-97.39-92.548C3571,103.385,3568,110,3568,110s-3-6.615-9.247-6.213c-49.845,4.337-92.032,43.3-97.39,92.548" fill="none" stroke="#4e342e" stroke-linecap="round" stroke-miterlimit="10" stroke-width="6"/>
              <path id="Path_223" data-name="Path 223" d="M3623.835,394.911a79.971,79.971,0,0,1-111.68-.009" fill="none" stroke="#4e342e" stroke-linecap="round" stroke-miterlimit="10" stroke-width="6"/>
              <path id="Path_224" data-name="Path 224" d="M3577.7,318.588a13.715,13.715,0,0,1-19.4,0" fill="none" stroke="#4e342e" stroke-linecap="round" stroke-miterlimit="10" stroke-width="6"/>
              <path id="Path_225" data-name="Path 225" d="M3578.216,370.554a13.716,13.716,0,0,1-19.4,0" fill="none" stroke="#4e342e" stroke-linecap="round" stroke-miterlimit="10" stroke-width="6"/>
              <path id="Path_226" data-name="Path 226" d="M3537.916,357.233c14.528,3.385,14.907-6.385,20.837-6.385,3.566,0,7.123,3.639,9.247,6.77,2.124-3.131,5.681-6.77,9.247-6.77,5.93,0,6.98,9.77,20.837,6.385" fill="none" stroke="#4e342e" stroke-linecap="round" stroke-miterlimit="10" stroke-width="6"/>
              <line id="Line_4" data-name="Line 4" y1="28.555" transform="translate(3523.544 404.145)" fill="none" stroke="#4e342e" stroke-linecap="round" stroke-miterlimit="10" stroke-width="6"/>
              <line id="Line_5" data-name="Line 5" y2="19.849" transform="translate(3490.667 263.037)" fill="none" stroke="#4e342e" stroke-linecap="round" stroke-miterlimit="10" stroke-width="6"/>
              <line id="Line_6" data-name="Line 6" y2="19.849" transform="translate(3645.313 263.037)" fill="none" stroke="#4e342e" stroke-linecap="round" stroke-miterlimit="10" stroke-width="6"/>
              <path id="Path_227" data-name="Path 227" d="M3532.441,478.508a44.465,44.465,0,0,0,35.419,17.533H3568a44.537,44.537,0,0,0,44.537-44.537l0-47.423" fill="none" stroke="#4e342e" stroke-linecap="round" stroke-miterlimit="10" stroke-width="6"/>
            </g>
            <g id="Group_44" data-name="Group 44">
              <path id="Path_228" data-name="Path 228" d="M3445.814,321.949a47.111,47.111,0,0,0-12.883,41.308" fill="none" stroke="#593226" stroke-linecap="round" stroke-miterlimit="10" stroke-width="6"/>
              <path id="Path_229" data-name="Path 229" d="M3469.256,325.553a31.125,31.125,0,0,0-21.126,29.475" fill="none" stroke="#593226" stroke-linecap="round" stroke-miterlimit="10" stroke-width="6"/>
              <path id="Path_230" data-name="Path 230" d="M3479.242,339.833a15.2,15.2,0,0,0-15.195,15.2" fill="none" stroke="#593226" stroke-linecap="round" stroke-miterlimit="10" stroke-width="6"/>
              <path id="Path_231" data-name="Path 231" d="M3464.358,355.028a62.861,62.861,0,1,0,0,125.723" fill="none" stroke="#593226" stroke-linecap="round" stroke-miterlimit="10" stroke-width="6"/>
              <path id="Path_232" data-name="Path 232" d="M3464.358,371.028a47.028,47.028,0,1,0,0,94.056" fill="none" stroke="#593226" stroke-linecap="round" stroke-miterlimit="10" stroke-width="6"/>
              <path id="Path_233" data-name="Path 233" d="M3464.358,386.944a31.112,31.112,0,0,0,0,62.224" fill="none" stroke="#593226" stroke-linecap="round" stroke-miterlimit="10" stroke-width="6"/>
              <path id="Path_234" data-name="Path 234" d="M3464.358,402.694a15.2,15.2,0,0,0,0,30.39" fill="none" stroke="#593226" stroke-linecap="round" stroke-miterlimit="10" stroke-width="6"/>
              <path id="Path_235" data-name="Path 235" d="M3483.261,226.711a46.871,46.871,0,0,1-18.9,3.953,31.112,31.112,0,0,0,0,62.224,47.028,47.028,0,1,1,0,94.056" fill="none" stroke="#593226" stroke-linecap="round" stroke-miterlimit="10" stroke-width="6"/>
              <path id="Path_236" data-name="Path 236" d="M3511.386,183.636a47.359,47.359,0,0,1-.594,7.5" fill="none" stroke="#593226" stroke-linecap="round" stroke-miterlimit="10" stroke-width="6"/>
              <path id="Path_237" data-name="Path 237" d="M3495.469,183.636a31.111,31.111,0,0,1-31.111,31.111,47.028,47.028,0,1,0,0,94.057,31.112,31.112,0,0,1,0,62.224" fill="none" stroke="#593226" stroke-linecap="round" stroke-miterlimit="10" stroke-width="6"/>
              <path id="Path_238" data-name="Path 238" d="M3479.553,183.719a15.2,15.2,0,0,1-15.2,15.2,62.862,62.862,0,0,0,0,125.724,15.2,15.2,0,1,1,0,30.39" fill="none" stroke="#593226" stroke-linecap="round" stroke-miterlimit="10" stroke-width="6"/>
              <path id="Path_239" data-name="Path 239" d="M3526.9,449h0a31.111,31.111,0,0,1-31.111-31.112v-23.8" fill="none" stroke="#593226" stroke-linecap="round" stroke-miterlimit="10" stroke-width="6"/>
              <path id="Path_240" data-name="Path 240" d="M3526.9,449a7.958,7.958,0,1,0,0-15.917,15.2,15.2,0,0,1-15.195-15.2V381.226" fill="none" stroke="#593226" stroke-linecap="round" stroke-miterlimit="10" stroke-width="6"/>
              <path id="Path_241" data-name="Path 241" d="M3526.9,449a7.958,7.958,0,1,1,0,15.917h-.166a47.029,47.029,0,0,1-47.029-47.029V400.671" fill="none" stroke="#593226" stroke-linecap="round" stroke-miterlimit="10" stroke-width="6"/>
              <path id="Path_242" data-name="Path 242" d="M3526.942,464.918a7.917,7.917,0,1,1,0,15.833h-.042a62.861,62.861,0,0,1-62.861-62.862v-15.2" fill="none" stroke="#593226" stroke-linecap="round" stroke-miterlimit="10" stroke-width="6"/>
              <path id="Path_243" data-name="Path 243" d="M3464.358,449.168a31.2,31.2,0,0,0,7.6-.935" fill="none" stroke="#593226" stroke-linecap="round" stroke-miterlimit="10" stroke-width="6"/>
              <path id="Path_244" data-name="Path 244" d="M3481.846,461.725a46.9,46.9,0,0,1-17.488,3.359" fill="none" stroke="#593226" stroke-linecap="round" stroke-miterlimit="10" stroke-width="6"/>
              <path id="Path_245" data-name="Path 245" d="M3495.79,472.341a62.575,62.575,0,0,1-31.432,8.41" fill="none" stroke="#593226" stroke-linecap="round" stroke-miterlimit="10" stroke-width="6"/>
              <path id="Path_246" data-name="Path 246" d="M3480.753,279.223a62.611,62.611,0,0,0,14.8-40.519" fill="none" stroke="#593226" stroke-linecap="round" stroke-miterlimit="10" stroke-width="6"/>
              <path id="Path_247" data-name="Path 247" d="M3460.572,276.5a47,47,0,0,0,18.66-31.082" fill="none" stroke="#593226" stroke-linecap="round" stroke-miterlimit="10" stroke-width="6"/>
              <path id="Path_248" data-name="Path 248" d="M3449.471,264.824a31.171,31.171,0,0,0,13.234-17.984" fill="none" stroke="#593226" stroke-linecap="round" stroke-miterlimit="10" stroke-width="6"/>
              <path id="Path_249" data-name="Path 249" d="M3525.662,197.688a63.107,63.107,0,0,0,1.557-13.969" fill="none" stroke="#593226" stroke-linecap="round" stroke-miterlimit="10" stroke-width="6"/>
              <path id="Path_250" data-name="Path 250" d="M3464.039,402.694a62.861,62.861,0,0,0,0-125.723h.319a15.2,15.2,0,0,1,0-30.39,62.574,62.574,0,0,0,32.792-9.22" fill="none" stroke="#593226" stroke-linecap="round" stroke-miterlimit="10" stroke-width="6"/>
              <path id="Path_251" data-name="Path 251" d="M3690.186,321.949a47.111,47.111,0,0,1,12.883,41.308" fill="none" stroke="#593226" stroke-linecap="round" stroke-miterlimit="10" stroke-width="6"/>
              <path id="Path_252" data-name="Path 252" d="M3666.744,325.553a31.125,31.125,0,0,1,21.126,29.475" fill="none" stroke="#593226" stroke-linecap="round" stroke-miterlimit="10" stroke-width="6"/>
              <path id="Path_253" data-name="Path 253" d="M3656.758,339.833a15.2,15.2,0,0,1,15.195,15.2" fill="none" stroke="#593226" stroke-linecap="round" stroke-miterlimit="10" stroke-width="6"/>
              <path id="Path_254" data-name="Path 254" d="M3671.642,355.028a62.861,62.861,0,1,1,0,125.723" fill="none" stroke="#593226" stroke-linecap="round" stroke-miterlimit="10" stroke-width="6"/>
              <path id="Path_255" data-name="Path 255" d="M3671.642,371.028a47.028,47.028,0,1,1,0,94.056" fill="none" stroke="#593226" stroke-linecap="round" stroke-miterlimit="10" stroke-width="6"/>
              <path id="Path_256" data-name="Path 256" d="M3671.642,386.944a31.112,31.112,0,0,1,0,62.224" fill="none" stroke="#593226" stroke-linecap="round" stroke-miterlimit="10" stroke-width="6"/>
              <path id="Path_257" data-name="Path 257" d="M3671.642,402.694a15.2,15.2,0,0,1,0,30.39" fill="none" stroke="#593226" stroke-linecap="round" stroke-miterlimit="10" stroke-width="6"/>
              <path id="Path_258" data-name="Path 258" d="M3642.705,220.71a46.824,46.824,0,0,0,28.937,9.954,31.112,31.112,0,0,1,0,62.224,47.028,47.028,0,1,0,0,94.056" fill="none" stroke="#593226" stroke-linecap="round" stroke-miterlimit="10" stroke-width="6"/>
              <path id="Path_259" data-name="Path 259" d="M3660.261,212.6a31.035,31.035,0,0,0,11.381,2.147,47.028,47.028,0,1,1,0,94.057,31.112,31.112,0,0,0,0,62.224" fill="none" stroke="#593226" stroke-linecap="round" stroke-miterlimit="10" stroke-width="6"/>
              <path id="Path_260" data-name="Path 260" d="M3671.642,198.914a62.862,62.862,0,0,1,0,125.724,15.2,15.2,0,1,0,0,30.39" fill="none" stroke="#593226" stroke-linecap="round" stroke-miterlimit="10" stroke-width="6"/>
              <path id="Path_261" data-name="Path 261" d="M3612.694,448.8a31.116,31.116,0,0,0,27.517-30.907v-23.8" fill="none" stroke="#593226" stroke-linecap="round" stroke-miterlimit="10" stroke-width="6"/>
              <path id="Path_262" data-name="Path 262" d="M3612.7,432.655a15.2,15.2,0,0,0,11.6-14.766V381.226" fill="none" stroke="#593226" stroke-linecap="round" stroke-miterlimit="10" stroke-width="6"/>
              <path id="Path_263" data-name="Path 263" d="M3610.482,464.9a47.029,47.029,0,0,0,45.813-47.013V400.671" fill="none" stroke="#593226" stroke-linecap="round" stroke-miterlimit="10" stroke-width="6"/>
              <path id="Path_264" data-name="Path 264" d="M3671.961,402.694a62.861,62.861,0,0,1,0-125.723h-.319a15.2,15.2,0,0,0,0-30.39,62.768,62.768,0,0,1-50.262-25.1" fill="none" stroke="#593226" stroke-linecap="round" stroke-miterlimit="10" stroke-width="6"/>
              <path id="Path_265" data-name="Path 265" d="M3671.961,402.694v15.2a62.861,62.861,0,0,1-62.861,62.862h-.042a7.887,7.887,0,0,1-5.448-2.173" fill="none" stroke="#593226" stroke-linecap="round" stroke-miterlimit="10" stroke-width="6"/>
              <path id="Path_266" data-name="Path 266" d="M3671.642,449.168a31.2,31.2,0,0,1-7.6-.935" fill="none" stroke="#593226" stroke-linecap="round" stroke-miterlimit="10" stroke-width="6"/>
              <path id="Path_267" data-name="Path 267" d="M3654.154,461.725a46.9,46.9,0,0,0,17.488,3.359" fill="none" stroke="#593226" stroke-linecap="round" stroke-miterlimit="10" stroke-width="6"/>
              <path id="Path_268" data-name="Path 268" d="M3640.371,472.433a61.906,61.906,0,0,0,31.271,8.318" fill="none" stroke="#593226" stroke-linecap="round" stroke-miterlimit="10" stroke-width="6"/>
              <path id="Path_269" data-name="Path 269" d="M3655.247,279.223a62.611,62.611,0,0,1-14.8-40.519" fill="none" stroke="#593226" stroke-linecap="round" stroke-miterlimit="10" stroke-width="6"/>
              <path id="Path_270" data-name="Path 270" d="M3675.428,276.5a47,47,0,0,1-18.66-31.082" fill="none" stroke="#593226" stroke-linecap="round" stroke-miterlimit="10" stroke-width="6"/>
              <path id="Path_271" data-name="Path 271" d="M3686.529,264.824a31.171,31.171,0,0,1-13.234-17.984" fill="none" stroke="#593226" stroke-linecap="round" stroke-miterlimit="10" stroke-width="6"/>
              <path id="Path_272" data-name="Path 272" d="M3564,152.358A47.03,47.03,0,0,1,3494.852,216" fill="none" stroke="#593226" stroke-linecap="round" stroke-miterlimit="10" stroke-width="6"/>
              <path id="Path_273" data-name="Path 273" d="M3506.107,204.743a8,8,0,0,1,11.314-11.314,15.2,15.2,0,0,0,25.106-15.717" fill="none" stroke="#593226" stroke-linecap="round" stroke-miterlimit="10" stroke-width="6"/>
              <path id="Path_274" data-name="Path 274" d="M3494.852,216a7.958,7.958,0,0,1,11.255-11.254,31.116,31.116,0,0,0,48.288-38.651" fill="none" stroke="#593226" stroke-linecap="round" stroke-miterlimit="10" stroke-width="6"/>
              <path id="Path_275" data-name="Path 275" d="M3494.852,216a7.9,7.9,0,0,0-11.166,11.166l-.2-.254a62.861,62.861,0,0,0,88.9-88.9" fill="none" stroke="#593226" stroke-linecap="round" stroke-miterlimit="10" stroke-width="6"/>
              <path id="Path_276" data-name="Path 276" d="M3588.889,197.482a47.066,47.066,0,0,0,74.744,11.086" fill="none" stroke="#593226" stroke-linecap="round" stroke-miterlimit="10" stroke-width="6"/>
              <path id="Path_277" data-name="Path 277" d="M3652.378,197.313A8,8,0,1,0,3641.065,186a15.2,15.2,0,0,1-25.107-15.718" fill="none" stroke="#593226" stroke-linecap="round" stroke-miterlimit="10" stroke-width="6"/>
              <path id="Path_278" data-name="Path 278" d="M3663.633,208.568a7.959,7.959,0,1,0-11.255-11.255,31.113,31.113,0,0,1-53.019-19.6" fill="none" stroke="#593226" stroke-linecap="round" stroke-miterlimit="10" stroke-width="6"/>
              <path id="Path_279" data-name="Path 279" d="M3674.637,196.335c-5.358-49.25-47.545-88.211-97.39-92.548C3571,103.385,3568,110,3568,110s-3-6.615-9.247-6.213c-49.845,4.337-92.032,43.3-97.39,92.548" fill="none" stroke="#593226" stroke-linecap="round" stroke-miterlimit="10" stroke-width="6"/>
              <path id="Path_280" data-name="Path 280" d="M3623.835,394.911a79.971,79.971,0,0,1-111.68-.009" fill="none" stroke="#593226" stroke-linecap="round" stroke-miterlimit="10" stroke-width="6"/>
              <path id="Path_281" data-name="Path 281" d="M3577.7,318.588a13.715,13.715,0,0,1-19.4,0" fill="none" stroke="#593226" stroke-linecap="round" stroke-miterlimit="10" stroke-width="6"/>
              <path id="Path_282" data-name="Path 282" d="M3578.216,370.554a13.716,13.716,0,0,1-19.4,0" fill="none" stroke="#593226" stroke-linecap="round" stroke-miterlimit="10" stroke-width="6"/>
              <path id="Path_283" data-name="Path 283" d="M3537.916,357.233c14.528,3.385,14.907-6.385,20.837-6.385,3.566,0,7.123,3.639,9.247,6.77,2.124-3.131,5.681-6.77,9.247-6.77,5.93,0,6.98,9.77,20.837,6.385" fill="none" stroke="#593226" stroke-linecap="round" stroke-miterlimit="10" stroke-width="6"/>
              <line id="Line_7" data-name="Line 7" y1="28.555" transform="translate(3523.544 404.145)" fill="none" stroke="#593226" stroke-linecap="round" stroke-miterlimit="10" stroke-width="6"/>
              <line id="Line_8" data-name="Line 8" y2="19.849" transform="translate(3490.667 263.037)" fill="none" stroke="#593226" stroke-linecap="round" stroke-miterlimit="10" stroke-width="6"/>
              <line id="Line_9" data-name="Line 9" y2="19.849" transform="translate(3645.313 263.037)" fill="none" stroke="#593226" stroke-linecap="round" stroke-miterlimit="10" stroke-width="6"/>
              <path id="Path_284" data-name="Path 284" d="M3532.441,478.508a44.465,44.465,0,0,0,35.419,17.533H3568a44.537,44.537,0,0,0,44.537-44.537l0-47.423" fill="none" stroke="#593226" stroke-linecap="round" stroke-miterlimit="10" stroke-width="6"/>
            </g>
          </g>
        </g>
      </g>
    </g>
  </g>
</svg>